%TF.GenerationSoftware,KiCad,Pcbnew,7.0.7*%
%TF.CreationDate,2023-10-16T17:22:34-07:00*%
%TF.ProjectId,main_pcb,6d61696e-5f70-4636-922e-6b696361645f,v1.0.0*%
%TF.SameCoordinates,Original*%
%TF.FileFunction,Profile,NP*%
%FSLAX46Y46*%
G04 Gerber Fmt 4.6, Leading zero omitted, Abs format (unit mm)*
G04 Created by KiCad (PCBNEW 7.0.7) date 2023-10-16 17:22:34*
%MOMM*%
%LPD*%
G01*
G04 APERTURE LIST*
%TA.AperFunction,Profile*%
%ADD10C,0.150000*%
%TD*%
%TA.AperFunction,Profile*%
%ADD11C,0.120000*%
%TD*%
G04 APERTURE END LIST*
D10*
X139999988Y-192500000D02*
X139999988Y-122500000D01*
X175999988Y-204600000D02*
X139999988Y-192500000D01*
X221999988Y-204600000D02*
X175999988Y-204600000D01*
X271999990Y-117000000D02*
X271999990Y-185350000D01*
X193999988Y-111300000D02*
X271999990Y-117000000D01*
X271999990Y-185350000D02*
X276778958Y-199500413D01*
X266778958Y-216820921D02*
X221999988Y-204600000D01*
X276778958Y-199500413D02*
X266778958Y-216820921D01*
X139999988Y-122500000D02*
X193999988Y-111300000D01*
D11*
%TO.C,_23*%
X220299988Y-121100000D02*
X223699988Y-121100000D01*
X220299988Y-124100000D02*
X220299988Y-121100000D01*
X223699988Y-121100000D02*
X223699988Y-124100000D01*
X223699988Y-124100000D02*
X220299988Y-124100000D01*
%TO.C,_17*%
X202299988Y-135600000D02*
X205699988Y-135600000D01*
X202299988Y-138600000D02*
X202299988Y-135600000D01*
X205699988Y-135600000D02*
X205699988Y-138600000D01*
X205699988Y-138600000D02*
X202299988Y-138600000D01*
%TO.C,_28*%
X242410829Y-193864453D02*
X245694976Y-194744438D01*
X241634372Y-196762230D02*
X242410829Y-193864453D01*
X245694976Y-194744438D02*
X244918519Y-197642215D01*
X244918519Y-197642215D02*
X241634372Y-196762230D01*
%TO.C,_25*%
X238299988Y-157600000D02*
X241699988Y-157600000D01*
X238299988Y-160600000D02*
X238299988Y-157600000D01*
X241699988Y-157600000D02*
X241699988Y-160600000D01*
X241699988Y-160600000D02*
X238299988Y-160600000D01*
%TO.C,_21*%
X220299988Y-155100000D02*
X223699988Y-155100000D01*
X220299988Y-158100000D02*
X220299988Y-155100000D01*
X223699988Y-155100000D02*
X223699988Y-158100000D01*
X223699988Y-158100000D02*
X220299988Y-158100000D01*
%TO.C,_4*%
X148299988Y-126000000D02*
X151699988Y-126000000D01*
X148299988Y-129000000D02*
X148299988Y-126000000D01*
X151699988Y-126000000D02*
X151699988Y-129000000D01*
X151699988Y-129000000D02*
X148299988Y-129000000D01*
%TO.C,_19*%
X220299988Y-189100000D02*
X223699988Y-189100000D01*
X220299988Y-192100000D02*
X220299988Y-189100000D01*
X223699988Y-189100000D02*
X223699988Y-192100000D01*
X223699988Y-192100000D02*
X220299988Y-192100000D01*
%TO.C,_5*%
X166299988Y-177000000D02*
X169699988Y-177000000D01*
X166299988Y-180000000D02*
X166299988Y-177000000D01*
X169699988Y-177000000D02*
X169699988Y-180000000D01*
X169699988Y-180000000D02*
X166299988Y-180000000D01*
%TO.C,_2*%
X148299988Y-160000000D02*
X151699988Y-160000000D01*
X148299988Y-163000000D02*
X148299988Y-160000000D01*
X151699988Y-160000000D02*
X151699988Y-163000000D01*
X151699988Y-163000000D02*
X148299988Y-163000000D01*
%TO.C,_29*%
X269597869Y-204938424D02*
X267897869Y-207882910D01*
X266999793Y-203438424D02*
X269597869Y-204938424D01*
X267897869Y-207882910D02*
X265299793Y-206382910D01*
X265299793Y-206382910D02*
X266999793Y-203438424D01*
%TO.C,_15*%
X202299988Y-169600000D02*
X205699988Y-169600000D01*
X202299988Y-172600000D02*
X202299988Y-169600000D01*
X205699988Y-169600000D02*
X205699988Y-172600000D01*
X205699988Y-172600000D02*
X202299988Y-172600000D01*
%TO.C,_11*%
X184299988Y-155100000D02*
X187699988Y-155100000D01*
X184299988Y-158100000D02*
X184299988Y-155100000D01*
X187699988Y-155100000D02*
X187699988Y-158100000D01*
X187699988Y-158100000D02*
X184299988Y-158100000D01*
%TO.C,_24*%
X238299988Y-174600000D02*
X241699988Y-174600000D01*
X238299988Y-177600000D02*
X238299988Y-174600000D01*
X241699988Y-174600000D02*
X241699988Y-177600000D01*
X241699988Y-177600000D02*
X238299988Y-177600000D01*
%TO.C,_10*%
X184299988Y-172100000D02*
X187699988Y-172100000D01*
X184299988Y-175100000D02*
X184299988Y-172100000D01*
X187699988Y-172100000D02*
X187699988Y-175100000D01*
X187699988Y-175100000D02*
X184299988Y-175100000D01*
%TO.C,_9*%
X184299988Y-189100000D02*
X187699988Y-189100000D01*
X184299988Y-192100000D02*
X184299988Y-189100000D01*
X187699988Y-189100000D02*
X187699988Y-192100000D01*
X187699988Y-192100000D02*
X184299988Y-192100000D01*
%TO.C,_14*%
X202299988Y-186600000D02*
X205699988Y-186600000D01*
X202299988Y-189600000D02*
X202299988Y-186600000D01*
X205699988Y-186600000D02*
X205699988Y-189600000D01*
X205699988Y-189600000D02*
X202299988Y-189600000D01*
%TO.C,_20*%
X220299988Y-172100000D02*
X223699988Y-172100000D01*
X220299988Y-175100000D02*
X220299988Y-172100000D01*
X223699988Y-172100000D02*
X223699988Y-175100000D01*
X223699988Y-175100000D02*
X220299988Y-175100000D01*
%TO.C,_27*%
X238299988Y-123600000D02*
X241699988Y-123600000D01*
X238299988Y-126600000D02*
X238299988Y-123600000D01*
X241699988Y-123600000D02*
X241699988Y-126600000D01*
X241699988Y-126600000D02*
X238299988Y-126600000D01*
%TO.C,_12*%
X184299988Y-138100000D02*
X187699988Y-138100000D01*
X184299988Y-141100000D02*
X184299988Y-138100000D01*
X187699988Y-138100000D02*
X187699988Y-141100000D01*
X187699988Y-141100000D02*
X184299988Y-141100000D01*
%TO.C,_18*%
X202299988Y-118600000D02*
X205699988Y-118600000D01*
X202299988Y-121600000D02*
X202299988Y-118600000D01*
X205699988Y-118600000D02*
X205699988Y-121600000D01*
X205699988Y-121600000D02*
X202299988Y-121600000D01*
%TO.C,_16*%
X202299988Y-152600000D02*
X205699988Y-152600000D01*
X202299988Y-155600000D02*
X202299988Y-152600000D01*
X205699988Y-152600000D02*
X205699988Y-155600000D01*
X205699988Y-155600000D02*
X202299988Y-155600000D01*
%TO.C,_1*%
X148299988Y-177000000D02*
X151699988Y-177000000D01*
X148299988Y-180000000D02*
X148299988Y-177000000D01*
X151699988Y-177000000D02*
X151699988Y-180000000D01*
X151699988Y-180000000D02*
X148299988Y-180000000D01*
%TO.C,_6*%
X166299988Y-160000000D02*
X169699988Y-160000000D01*
X166299988Y-163000000D02*
X166299988Y-160000000D01*
X169699988Y-160000000D02*
X169699988Y-163000000D01*
X169699988Y-163000000D02*
X166299988Y-163000000D01*
%TO.C,_8*%
X166299988Y-126000000D02*
X169699988Y-126000000D01*
X166299988Y-129000000D02*
X166299988Y-126000000D01*
X169699988Y-126000000D02*
X169699988Y-129000000D01*
X169699988Y-129000000D02*
X166299988Y-129000000D01*
%TO.C,_13*%
X184299988Y-121100000D02*
X187699988Y-121100000D01*
X184299988Y-124100000D02*
X184299988Y-121100000D01*
X187699988Y-121100000D02*
X187699988Y-124100000D01*
X187699988Y-124100000D02*
X184299988Y-124100000D01*
%TO.C,_22*%
X220299988Y-138100000D02*
X223699988Y-138100000D01*
X220299988Y-141100000D02*
X220299988Y-138100000D01*
X223699988Y-138100000D02*
X223699988Y-141100000D01*
X223699988Y-141100000D02*
X220299988Y-141100000D01*
%TO.C,_7*%
X166299988Y-143000000D02*
X169699988Y-143000000D01*
X166299988Y-146000000D02*
X166299988Y-143000000D01*
X169699988Y-143000000D02*
X169699988Y-146000000D01*
X169699988Y-146000000D02*
X166299988Y-146000000D01*
%TO.C,_3*%
X148299988Y-143000000D02*
X151699988Y-143000000D01*
X148299988Y-146000000D02*
X148299988Y-143000000D01*
X151699988Y-143000000D02*
X151699988Y-146000000D01*
X151699988Y-146000000D02*
X148299988Y-146000000D01*
%TO.C,_26*%
X238299988Y-140600000D02*
X241699988Y-140600000D01*
X238299988Y-143600000D02*
X238299988Y-140600000D01*
X241699988Y-140600000D02*
X241699988Y-143600000D01*
X241699988Y-143600000D02*
X238299988Y-143600000D01*
%TD*%
M02*
