%TF.GenerationSoftware,KiCad,Pcbnew,7.0.7*%
%TF.CreationDate,2023-10-16T17:22:34-07:00*%
%TF.ProjectId,main_pcb,6d61696e-5f70-4636-922e-6b696361645f,v1.0.0*%
%TF.SameCoordinates,Original*%
%TF.FileFunction,Copper,L1,Top*%
%TF.FilePolarity,Positive*%
%FSLAX46Y46*%
G04 Gerber Fmt 4.6, Leading zero omitted, Abs format (unit mm)*
G04 Created by KiCad (PCBNEW 7.0.7) date 2023-10-16 17:22:34*
%MOMM*%
%LPD*%
G01*
G04 APERTURE LIST*
G04 Aperture macros list*
%AMRotRect*
0 Rectangle, with rotation*
0 The origin of the aperture is its center*
0 $1 length*
0 $2 width*
0 $3 Rotation angle, in degrees counterclockwise*
0 Add horizontal line*
21,1,$1,$2,0,0,$3*%
G04 Aperture macros list end*
%TA.AperFunction,SMDPad,CuDef*%
%ADD10R,1.700000X0.820000*%
%TD*%
%TA.AperFunction,SMDPad,CuDef*%
%ADD11RotRect,1.700000X0.820000X345.000000*%
%TD*%
%TA.AperFunction,SMDPad,CuDef*%
%ADD12R,2.600000X2.600000*%
%TD*%
%TA.AperFunction,SMDPad,CuDef*%
%ADD13RotRect,1.700000X0.820000X240.000000*%
%TD*%
%TA.AperFunction,ComponentPad*%
%ADD14O,2.200000X1.600000*%
%TD*%
%TA.AperFunction,ComponentPad*%
%ADD15C,1.700000*%
%TD*%
%TA.AperFunction,SMDPad,CuDef*%
%ADD16RotRect,2.600000X2.600000X165.000000*%
%TD*%
%TA.AperFunction,SMDPad,CuDef*%
%ADD17R,1.100000X0.600000*%
%TD*%
%TA.AperFunction,SMDPad,CuDef*%
%ADD18RotRect,2.600000X2.600000X60.000000*%
%TD*%
%TA.AperFunction,SMDPad,CuDef*%
%ADD19R,1.200000X0.900000*%
%TD*%
%TA.AperFunction,SMDPad,CuDef*%
%ADD20RotRect,0.900000X1.200000X150.000000*%
%TD*%
%TA.AperFunction,SMDPad,CuDef*%
%ADD21RotRect,0.900000X1.200000X255.000000*%
%TD*%
%TA.AperFunction,ViaPad*%
%ADD22C,0.800000*%
%TD*%
%TA.AperFunction,Conductor*%
%ADD23C,0.250000*%
%TD*%
G04 APERTURE END LIST*
D10*
%TO.P,_23,DIN*%
%TO.N,LED_10*%
X224549988Y-123350000D03*
%TO.P,_23,DOUT*%
%TO.N,LED_11*%
X219449988Y-121850000D03*
%TO.P,_23,GND*%
%TO.N,GND*%
X224549988Y-121850000D03*
%TO.P,_23,VDD*%
%TO.N,RAW*%
X219449988Y-123350000D03*
%TD*%
%TO.P,_17,DIN*%
%TO.N,LED_12*%
X206549988Y-137850000D03*
%TO.P,_17,DOUT*%
%TO.N,LED_13*%
X201449988Y-136350000D03*
%TO.P,_17,GND*%
%TO.N,GND*%
X206549988Y-136350000D03*
%TO.P,_17,VDD*%
%TO.N,RAW*%
X201449988Y-137850000D03*
%TD*%
D11*
%TO.P,_28,DIN*%
%TO.N,LED_5*%
X245933671Y-197137767D03*
%TO.P,_28,DOUT*%
%TO.N,LED_6*%
X241395677Y-194368901D03*
%TO.P,_28,GND*%
%TO.N,GND*%
X246321899Y-195688878D03*
%TO.P,_28,VDD*%
%TO.N,RAW*%
X241007449Y-195817790D03*
%TD*%
D10*
%TO.P,_25,DIN*%
%TO.N,LED_2*%
X242549988Y-159850000D03*
%TO.P,_25,DOUT*%
%TO.N,LED_3*%
X237449988Y-158350000D03*
%TO.P,_25,GND*%
%TO.N,GND*%
X242549988Y-158350000D03*
%TO.P,_25,VDD*%
%TO.N,RAW*%
X237449988Y-159850000D03*
%TD*%
%TO.P,_21,DIN*%
%TO.N,LED_8*%
X224549988Y-157350000D03*
%TO.P,_21,DOUT*%
%TO.N,LED_9*%
X219449988Y-155850000D03*
%TO.P,_21,GND*%
%TO.N,GND*%
X224549988Y-155850000D03*
%TO.P,_21,VDD*%
%TO.N,RAW*%
X219449988Y-157350000D03*
%TD*%
D12*
%TO.P,S20,1*%
%TO.N,CIndex*%
X218724988Y-184050000D03*
%TO.P,S20,2*%
%TO.N,index_bottom*%
X230274988Y-181850000D03*
%TD*%
%TO.P,S27,1*%
%TO.N,CInner*%
X236724988Y-135550000D03*
%TO.P,S27,2*%
%TO.N,inner_num*%
X248274988Y-133350000D03*
%TD*%
D10*
%TO.P,_4,DIN*%
%TO.N,LED_28*%
X152549988Y-128250000D03*
%TO.P,_4,DOUT*%
%TO.N,LED_29*%
X147449988Y-126750000D03*
%TO.P,_4,GND*%
%TO.N,GND*%
X152549988Y-126750000D03*
%TO.P,_4,VDD*%
%TO.N,RAW*%
X147449988Y-128250000D03*
%TD*%
%TO.P,_19,DIN*%
%TO.N,LED_6*%
X224549988Y-191350000D03*
%TO.P,_19,DOUT*%
%TO.N,LED_7*%
X219449988Y-189850000D03*
%TO.P,_19,GND*%
%TO.N,GND*%
X224549988Y-189850000D03*
%TO.P,_19,VDD*%
%TO.N,RAW*%
X219449988Y-191350000D03*
%TD*%
%TO.P,_5,DIN*%
%TO.N,LED_24*%
X170549988Y-179250000D03*
%TO.P,_5,DOUT*%
%TO.N,LED_25*%
X165449988Y-177750000D03*
%TO.P,_5,GND*%
%TO.N,GND*%
X170549988Y-177750000D03*
%TO.P,_5,VDD*%
%TO.N,RAW*%
X165449988Y-179250000D03*
%TD*%
D12*
%TO.P,S15,1*%
%TO.N,CMid*%
X200724988Y-181550000D03*
%TO.P,S15,2*%
%TO.N,middle_bottom*%
X212274988Y-179350000D03*
%TD*%
%TO.P,S5,1*%
%TO.N,CPinky*%
X164724988Y-188950000D03*
%TO.P,S5,2*%
%TO.N,pinky_bottom*%
X176274988Y-186750000D03*
%TD*%
%TO.P,S11,1*%
%TO.N,CRing*%
X182724988Y-167050000D03*
%TO.P,S11,2*%
%TO.N,ring_home*%
X194274988Y-164850000D03*
%TD*%
D10*
%TO.P,_2,DIN*%
%TO.N,LED_26*%
X152549988Y-162250000D03*
%TO.P,_2,DOUT*%
%TO.N,LED_27*%
X147449988Y-160750000D03*
%TO.P,_2,GND*%
%TO.N,GND*%
X152549988Y-160750000D03*
%TO.P,_2,VDD*%
%TO.N,RAW*%
X147449988Y-162250000D03*
%TD*%
D13*
%TO.P,_29,DIN*%
%TO.N,LED_4*%
X265524312Y-207494032D03*
%TO.P,_29,DOUT*%
%TO.N,LED_5*%
X269373350Y-203827302D03*
%TO.P,_29,GND*%
%TO.N,GND*%
X266823350Y-208244032D03*
%TO.P,_29,VDD*%
%TO.N,RAW*%
X268074312Y-203077302D03*
%TD*%
D10*
%TO.P,_15,DIN*%
%TO.N,LED_14*%
X206549988Y-171850000D03*
%TO.P,_15,DOUT*%
%TO.N,LED_15*%
X201449988Y-170350000D03*
%TO.P,_15,GND*%
%TO.N,GND*%
X206549988Y-170350000D03*
%TO.P,_15,VDD*%
%TO.N,RAW*%
X201449988Y-171850000D03*
%TD*%
%TO.P,_11,DIN*%
%TO.N,LED_18*%
X188549988Y-157350000D03*
%TO.P,_11,DOUT*%
%TO.N,LED_19*%
X183449988Y-155850000D03*
%TO.P,_11,GND*%
%TO.N,GND*%
X188549988Y-155850000D03*
%TO.P,_11,VDD*%
%TO.N,RAW*%
X183449988Y-157350000D03*
%TD*%
D12*
%TO.P,S9,1*%
%TO.N,CPinky*%
X182724988Y-201050000D03*
%TO.P,S9,2*%
%TO.N,ring_mod*%
X194274988Y-198850000D03*
%TD*%
D10*
%TO.P,_24,DIN*%
%TO.N,LED_3*%
X242549988Y-176850000D03*
%TO.P,_24,DOUT*%
%TO.N,LED_4*%
X237449988Y-175350000D03*
%TO.P,_24,GND*%
%TO.N,GND*%
X242549988Y-175350000D03*
%TO.P,_24,VDD*%
%TO.N,RAW*%
X237449988Y-176850000D03*
%TD*%
D14*
%TO.P,TRRS1,1*%
%TO.N,TRS_DATA*%
X255699988Y-167000000D03*
X255699988Y-171600000D03*
%TO.P,TRRS1,2*%
X256799988Y-167000000D03*
X256799988Y-171600000D03*
%TO.P,TRRS1,3*%
%TO.N,RAW*%
X260799988Y-167000000D03*
X260799988Y-171600000D03*
%TO.P,TRRS1,4*%
%TO.N,GND*%
X263799988Y-167000000D03*
X263799988Y-171600000D03*
%TD*%
D10*
%TO.P,_10,DIN*%
%TO.N,LED_17*%
X188549988Y-174350000D03*
%TO.P,_10,DOUT*%
%TO.N,LED_18*%
X183449988Y-172850000D03*
%TO.P,_10,GND*%
%TO.N,GND*%
X188549988Y-172850000D03*
%TO.P,_10,VDD*%
%TO.N,RAW*%
X183449988Y-174350000D03*
%TD*%
D12*
%TO.P,S16,1*%
%TO.N,CMid*%
X200724988Y-164550000D03*
%TO.P,S16,2*%
%TO.N,middle_home*%
X212274988Y-162350000D03*
%TD*%
D15*
%TO.P,MCU-AX1,GND*%
%TO.N,GND*%
X266219988Y-127440000D03*
X250979988Y-129980000D03*
X250979988Y-132520000D03*
%TO.P,MCU-AX1,P0*%
%TO.N,P0*%
X250979988Y-124900000D03*
%TO.P,MCU-AX1,P1*%
%TO.N,P1*%
X250979988Y-127440000D03*
%TO.P,MCU-AX1,P2*%
%TO.N,RNum*%
X250979988Y-135060000D03*
%TO.P,MCU-AX1,P3*%
%TO.N,RTop*%
X250979988Y-137600000D03*
%TO.P,MCU-AX1,P4*%
%TO.N,RHome*%
X250979988Y-140140000D03*
%TO.P,MCU-AX1,P5*%
%TO.N,RBottom*%
X250979988Y-142680000D03*
%TO.P,MCU-AX1,P6*%
%TO.N,RMod*%
X250979988Y-145220000D03*
%TO.P,MCU-AX1,P7*%
%TO.N,LED_START_3V3*%
X250979988Y-147760000D03*
%TO.P,MCU-AX1,P8*%
%TO.N,TRS_DATA*%
X250979988Y-150300000D03*
%TO.P,MCU-AX1,P9*%
%TO.N,P9*%
X250979988Y-152840000D03*
%TO.P,MCU-AX1,P10*%
%TO.N,P10*%
X250979988Y-122360000D03*
%TO.P,MCU-AX1,P11*%
%TO.N,CInner*%
X266219988Y-122360000D03*
%TO.P,MCU-AX1,P20*%
%TO.N,OLED_SDA*%
X266219988Y-147760000D03*
%TO.P,MCU-AX1,P21*%
%TO.N,OLED_SCL*%
X266219988Y-152840000D03*
%TO.P,MCU-AX1,P22*%
%TO.N,COuter*%
X266219988Y-145220000D03*
%TO.P,MCU-AX1,P23*%
%TO.N,P23*%
X266219988Y-150300000D03*
%TO.P,MCU-AX1,P26*%
%TO.N,CPinky*%
X266219988Y-142680000D03*
%TO.P,MCU-AX1,P27*%
%TO.N,CRing*%
X266219988Y-140140000D03*
%TO.P,MCU-AX1,P28*%
%TO.N,CMid*%
X266219988Y-137600000D03*
%TO.P,MCU-AX1,P29*%
%TO.N,CIndex*%
X266219988Y-135060000D03*
%TO.P,MCU-AX1,RAW*%
%TO.N,RAW*%
X266219988Y-124900000D03*
%TO.P,MCU-AX1,RST*%
%TO.N,RST*%
X266219988Y-129980000D03*
%TO.P,MCU-AX1,VDD*%
%TO.N,3V3*%
X266219988Y-132520000D03*
%TD*%
D12*
%TO.P,S24,1*%
%TO.N,CInner*%
X236724988Y-186550000D03*
%TO.P,S24,2*%
%TO.N,inner_bottom*%
X248274988Y-184350000D03*
%TD*%
%TO.P,S6,1*%
%TO.N,CPinky*%
X164724988Y-171950000D03*
%TO.P,S6,2*%
%TO.N,pinky_home*%
X176274988Y-169750000D03*
%TD*%
%TO.P,S8,1*%
%TO.N,CPinky*%
X164724988Y-137950000D03*
%TO.P,S8,2*%
%TO.N,pinky_num*%
X176274988Y-135750000D03*
%TD*%
D10*
%TO.P,_9,DIN*%
%TO.N,LED_16*%
X188549988Y-191350000D03*
%TO.P,_9,DOUT*%
%TO.N,LED_17*%
X183449988Y-189850000D03*
%TO.P,_9,GND*%
%TO.N,GND*%
X188549988Y-189850000D03*
%TO.P,_9,VDD*%
%TO.N,RAW*%
X183449988Y-191350000D03*
%TD*%
%TO.P,_14,DIN*%
%TO.N,LED_15*%
X206549988Y-188850000D03*
%TO.P,_14,DOUT*%
%TO.N,LED_16*%
X201449988Y-187350000D03*
%TO.P,_14,GND*%
%TO.N,GND*%
X206549988Y-187350000D03*
%TO.P,_14,VDD*%
%TO.N,RAW*%
X201449988Y-188850000D03*
%TD*%
D12*
%TO.P,S1,1*%
%TO.N,COuter*%
X146724988Y-188950000D03*
%TO.P,S1,2*%
%TO.N,outer_bottom*%
X158274988Y-186750000D03*
%TD*%
%TO.P,S10,1*%
%TO.N,CRing*%
X182724988Y-184050000D03*
%TO.P,S10,2*%
%TO.N,ring_bottom*%
X194274988Y-181850000D03*
%TD*%
D10*
%TO.P,_20,DIN*%
%TO.N,LED_7*%
X224549988Y-174350000D03*
%TO.P,_20,DOUT*%
%TO.N,LED_8*%
X219449988Y-172850000D03*
%TO.P,_20,GND*%
%TO.N,GND*%
X224549988Y-172850000D03*
%TO.P,_20,VDD*%
%TO.N,RAW*%
X219449988Y-174350000D03*
%TD*%
%TO.P,_27,DIN*%
%TO.N,LED_START_5V*%
X242549988Y-125850000D03*
%TO.P,_27,DOUT*%
%TO.N,LED_1*%
X237449988Y-124350000D03*
%TO.P,_27,GND*%
%TO.N,GND*%
X242549988Y-124350000D03*
%TO.P,_27,VDD*%
%TO.N,RAW*%
X237449988Y-125850000D03*
%TD*%
%TO.P,_12,DIN*%
%TO.N,LED_19*%
X188549988Y-140350000D03*
%TO.P,_12,DOUT*%
%TO.N,LED_20*%
X183449988Y-138850000D03*
%TO.P,_12,GND*%
%TO.N,GND*%
X188549988Y-138850000D03*
%TO.P,_12,VDD*%
%TO.N,RAW*%
X183449988Y-140350000D03*
%TD*%
%TO.P,_18,DIN*%
%TO.N,LED_11*%
X206549988Y-120850000D03*
%TO.P,_18,DOUT*%
%TO.N,LED_12*%
X201449988Y-119350000D03*
%TO.P,_18,GND*%
%TO.N,GND*%
X206549988Y-119350000D03*
%TO.P,_18,VDD*%
%TO.N,RAW*%
X201449988Y-120850000D03*
%TD*%
D12*
%TO.P,S13,1*%
%TO.N,CRing*%
X182724988Y-133050000D03*
%TO.P,S13,2*%
%TO.N,ring_num*%
X194274988Y-130850000D03*
%TD*%
%TO.P,S12,1*%
%TO.N,CRing*%
X182724988Y-150050000D03*
%TO.P,S12,2*%
%TO.N,ring_top*%
X194274988Y-147850000D03*
%TD*%
D16*
%TO.P,S28,1*%
%TO.N,CIndex*%
X237796608Y-204999626D03*
%TO.P,S28,2*%
%TO.N,layer_cluster*%
X249522453Y-205863949D03*
%TD*%
D12*
%TO.P,S4,1*%
%TO.N,COuter*%
X146724988Y-137950000D03*
%TO.P,S4,2*%
%TO.N,outer_num*%
X158274988Y-135750000D03*
%TD*%
D17*
%TO.P,_30,DIN*%
%TO.N,LED_START_3V3*%
X241299988Y-117600000D03*
%TO.P,_30,DOUT*%
%TO.N,LED_START_5V*%
X238699988Y-116650000D03*
%TO.P,_30,GND*%
%TO.N,GND*%
X241299988Y-118550000D03*
X241299988Y-116650000D03*
%TO.P,_30,VCC*%
%TO.N,RAW*%
X238699988Y-118550000D03*
%TD*%
D12*
%TO.P,S17,1*%
%TO.N,CMid*%
X200724988Y-147550000D03*
%TO.P,S17,2*%
%TO.N,middle_top*%
X212274988Y-145350000D03*
%TD*%
D10*
%TO.P,_16,DIN*%
%TO.N,LED_13*%
X206549988Y-154850000D03*
%TO.P,_16,DOUT*%
%TO.N,LED_14*%
X201449988Y-153350000D03*
%TO.P,_16,GND*%
%TO.N,GND*%
X206549988Y-153350000D03*
%TO.P,_16,VDD*%
%TO.N,RAW*%
X201449988Y-154850000D03*
%TD*%
D12*
%TO.P,S19,1*%
%TO.N,CMid*%
X218724988Y-201050000D03*
%TO.P,S19,2*%
%TO.N,index_mod*%
X230274988Y-198850000D03*
%TD*%
%TO.P,S22,1*%
%TO.N,CIndex*%
X218724988Y-150050000D03*
%TO.P,S22,2*%
%TO.N,index_top*%
X230274988Y-147850000D03*
%TD*%
D10*
%TO.P,_1,DIN*%
%TO.N,LED_25*%
X152549988Y-179250000D03*
%TO.P,_1,DOUT*%
%TO.N,LED_26*%
X147449988Y-177750000D03*
%TO.P,_1,GND*%
%TO.N,GND*%
X152549988Y-177750000D03*
%TO.P,_1,VDD*%
%TO.N,RAW*%
X147449988Y-179250000D03*
%TD*%
D12*
%TO.P,S7,1*%
%TO.N,CPinky*%
X164724988Y-154950000D03*
%TO.P,S7,2*%
%TO.N,pinky_top*%
X176274988Y-152750000D03*
%TD*%
%TO.P,S25,1*%
%TO.N,CInner*%
X236724988Y-169550000D03*
%TO.P,S25,2*%
%TO.N,inner_home*%
X248274988Y-167350000D03*
%TD*%
D10*
%TO.P,_6,DIN*%
%TO.N,LED_23*%
X170549988Y-162250000D03*
%TO.P,_6,DOUT*%
%TO.N,LED_24*%
X165449988Y-160750000D03*
%TO.P,_6,GND*%
%TO.N,GND*%
X170549988Y-160750000D03*
%TO.P,_6,VDD*%
%TO.N,RAW*%
X165449988Y-162250000D03*
%TD*%
%TO.P,_8,DIN*%
%TO.N,LED_21*%
X170549988Y-128250000D03*
%TO.P,_8,DOUT*%
%TO.N,LED_22*%
X165449988Y-126750000D03*
%TO.P,_8,GND*%
%TO.N,GND*%
X170549988Y-126750000D03*
%TO.P,_8,VDD*%
%TO.N,RAW*%
X165449988Y-128250000D03*
%TD*%
%TO.P,_13,DIN*%
%TO.N,LED_20*%
X188549988Y-123350000D03*
%TO.P,_13,DOUT*%
%TO.N,LED_21*%
X183449988Y-121850000D03*
%TO.P,_13,GND*%
%TO.N,GND*%
X188549988Y-121850000D03*
%TO.P,_13,VDD*%
%TO.N,RAW*%
X183449988Y-123350000D03*
%TD*%
%TO.P,_22,DIN*%
%TO.N,LED_9*%
X224549988Y-140350000D03*
%TO.P,_22,DOUT*%
%TO.N,LED_10*%
X219449988Y-138850000D03*
%TO.P,_22,GND*%
%TO.N,GND*%
X224549988Y-138850000D03*
%TO.P,_22,VDD*%
%TO.N,RAW*%
X219449988Y-140350000D03*
%TD*%
D12*
%TO.P,S21,1*%
%TO.N,CIndex*%
X218724988Y-167050000D03*
%TO.P,S21,2*%
%TO.N,index_home*%
X230274988Y-164850000D03*
%TD*%
%TO.P,S2,1*%
%TO.N,COuter*%
X146724988Y-171950000D03*
%TO.P,S2,2*%
%TO.N,outer_home*%
X158274988Y-169750000D03*
%TD*%
D15*
%TO.P,OLED1,GND*%
%TO.N,GND*%
X262409988Y-156100000D03*
%TO.P,OLED1,SCL*%
%TO.N,OLED_SCL*%
X257329988Y-156100000D03*
%TO.P,OLED1,SDA*%
%TO.N,OLED_SDA*%
X254789988Y-156100000D03*
%TO.P,OLED1,VCC*%
%TO.N,3V3*%
X259869988Y-156100000D03*
%TD*%
D10*
%TO.P,_7,DIN*%
%TO.N,LED_22*%
X170549988Y-145250000D03*
%TO.P,_7,DOUT*%
%TO.N,LED_23*%
X165449988Y-143750000D03*
%TO.P,_7,GND*%
%TO.N,GND*%
X170549988Y-143750000D03*
%TO.P,_7,VDD*%
%TO.N,RAW*%
X165449988Y-145250000D03*
%TD*%
%TO.P,_3,DIN*%
%TO.N,LED_27*%
X152549988Y-145250000D03*
%TO.P,_3,DOUT*%
%TO.N,LED_28*%
X147449988Y-143750000D03*
%TO.P,_3,GND*%
%TO.N,GND*%
X152549988Y-143750000D03*
%TO.P,_3,VDD*%
%TO.N,RAW*%
X147449988Y-145250000D03*
%TD*%
D12*
%TO.P,S18,1*%
%TO.N,CMid*%
X200724988Y-130550000D03*
%TO.P,S18,2*%
%TO.N,middle_num*%
X212274988Y-128350000D03*
%TD*%
D10*
%TO.P,_26,DIN*%
%TO.N,LED_1*%
X242549988Y-142850000D03*
%TO.P,_26,DOUT*%
%TO.N,LED_2*%
X237449988Y-141350000D03*
%TO.P,_26,GND*%
%TO.N,GND*%
X242549988Y-141350000D03*
%TO.P,_26,VDD*%
%TO.N,RAW*%
X237449988Y-142850000D03*
%TD*%
D12*
%TO.P,S3,1*%
%TO.N,COuter*%
X146724988Y-154950000D03*
%TO.P,S3,2*%
%TO.N,outer_top*%
X158274988Y-152750000D03*
%TD*%
%TO.P,S26,1*%
%TO.N,CInner*%
X236724988Y-152550000D03*
%TO.P,S26,2*%
%TO.N,inner_top*%
X248274988Y-150350000D03*
%TD*%
%TO.P,S14,1*%
%TO.N,CRing*%
X200724988Y-198550000D03*
%TO.P,S14,2*%
%TO.N,middle_mod*%
X212274988Y-196350000D03*
%TD*%
D18*
%TO.P,S29,1*%
%TO.N,CInner*%
X260036365Y-197599434D03*
%TO.P,S29,2*%
%TO.N,space_cluster*%
X256166621Y-208702027D03*
%TD*%
D12*
%TO.P,S23,1*%
%TO.N,CIndex*%
X218724988Y-133050000D03*
%TO.P,S23,2*%
%TO.N,index_num*%
X230274988Y-130850000D03*
%TD*%
D19*
%TO.P,D12,1*%
%TO.N,ring_top*%
X193399988Y-141950000D03*
%TO.P,D12,2*%
%TO.N,RTop*%
X193399988Y-138650000D03*
%TD*%
%TO.P,D13,1*%
%TO.N,ring_num*%
X193399988Y-124950000D03*
%TO.P,D13,2*%
%TO.N,RNum*%
X193399988Y-121650000D03*
%TD*%
D15*
%TO.P,OLED2,GND*%
%TO.N,GND*%
X256059988Y-154420000D03*
%TO.P,OLED2,SCL*%
%TO.N,OLED_SCL*%
X261139988Y-154420000D03*
%TO.P,OLED2,SDA*%
%TO.N,OLED_SDA*%
X263679988Y-154420000D03*
%TO.P,OLED2,VCC*%
%TO.N,3V3*%
X258599988Y-154420000D03*
%TD*%
D19*
%TO.P,D24,1*%
%TO.N,inner_bottom*%
X247399988Y-178450000D03*
%TO.P,D24,2*%
%TO.N,RBottom*%
X247399988Y-175150000D03*
%TD*%
%TO.P,D3,1*%
%TO.N,outer_top*%
X157399988Y-146850000D03*
%TO.P,D3,2*%
%TO.N,RTop*%
X157399988Y-143550000D03*
%TD*%
%TO.P,D20,1*%
%TO.N,index_bottom*%
X229399988Y-175950000D03*
%TO.P,D20,2*%
%TO.N,RBottom*%
X229399988Y-172650000D03*
%TD*%
%TO.P,D2,1*%
%TO.N,outer_home*%
X157399988Y-163850000D03*
%TO.P,D2,2*%
%TO.N,RHome*%
X157399988Y-160550000D03*
%TD*%
%TO.P,D10,1*%
%TO.N,ring_bottom*%
X193399988Y-175950000D03*
%TO.P,D10,2*%
%TO.N,RBottom*%
X193399988Y-172650000D03*
%TD*%
%TO.P,D11,1*%
%TO.N,ring_home*%
X193399988Y-158950000D03*
%TO.P,D11,2*%
%TO.N,RHome*%
X193399988Y-155650000D03*
%TD*%
%TO.P,D4,1*%
%TO.N,outer_num*%
X157399988Y-129850000D03*
%TO.P,D4,2*%
%TO.N,RNum*%
X157399988Y-126550000D03*
%TD*%
%TO.P,D14,1*%
%TO.N,middle_mod*%
X211399988Y-190450000D03*
%TO.P,D14,2*%
%TO.N,RMod*%
X211399988Y-187150000D03*
%TD*%
%TO.P,D18,1*%
%TO.N,middle_num*%
X211399988Y-122450000D03*
%TO.P,D18,2*%
%TO.N,RNum*%
X211399988Y-119150000D03*
%TD*%
%TO.P,D25,1*%
%TO.N,inner_home*%
X247399988Y-161450000D03*
%TO.P,D25,2*%
%TO.N,RHome*%
X247399988Y-158150000D03*
%TD*%
%TO.P,D7,1*%
%TO.N,pinky_top*%
X175399988Y-146850000D03*
%TO.P,D7,2*%
%TO.N,RTop*%
X175399988Y-143550000D03*
%TD*%
%TO.P,D22,1*%
%TO.N,index_top*%
X229399988Y-141950000D03*
%TO.P,D22,2*%
%TO.N,RTop*%
X229399988Y-138650000D03*
%TD*%
%TO.P,D5,1*%
%TO.N,pinky_bottom*%
X175399988Y-180850000D03*
%TO.P,D5,2*%
%TO.N,RBottom*%
X175399988Y-177550000D03*
%TD*%
%TO.P,D26,1*%
%TO.N,inner_top*%
X247399988Y-144450000D03*
%TO.P,D26,2*%
%TO.N,RTop*%
X247399988Y-141150000D03*
%TD*%
%TO.P,D15,1*%
%TO.N,middle_bottom*%
X211399988Y-173450000D03*
%TO.P,D15,2*%
%TO.N,RBottom*%
X211399988Y-170150000D03*
%TD*%
%TO.P,D8,1*%
%TO.N,pinky_num*%
X175399988Y-129850000D03*
%TO.P,D8,2*%
%TO.N,RNum*%
X175399988Y-126550000D03*
%TD*%
%TO.P,D1,1*%
%TO.N,outer_bottom*%
X157399988Y-180850000D03*
%TO.P,D1,2*%
%TO.N,RBottom*%
X157399988Y-177550000D03*
%TD*%
%TO.P,D9,1*%
%TO.N,ring_mod*%
X193399988Y-192950000D03*
%TO.P,D9,2*%
%TO.N,RMod*%
X193399988Y-189650000D03*
%TD*%
D20*
%TO.P,D29,1*%
%TO.N,space_cluster*%
X261713671Y-210894255D03*
%TO.P,D29,2*%
%TO.N,RMod*%
X264571555Y-212544255D03*
%TD*%
D19*
%TO.P,D23,1*%
%TO.N,index_num*%
X229399988Y-124950000D03*
%TO.P,D23,2*%
%TO.N,RNum*%
X229399988Y-121650000D03*
%TD*%
%TO.P,D6,1*%
%TO.N,pinky_home*%
X175399988Y-163850000D03*
%TO.P,D6,2*%
%TO.N,RHome*%
X175399988Y-160550000D03*
%TD*%
D15*
%TO.P,MCU-AX2,GND*%
%TO.N,GND*%
X252659988Y-126170000D03*
X267899988Y-128710000D03*
X267899988Y-131250000D03*
%TO.P,MCU-AX2,P0*%
%TO.N,P0*%
X267899988Y-123630000D03*
%TO.P,MCU-AX2,P1*%
%TO.N,P1*%
X267899988Y-126170000D03*
%TO.P,MCU-AX2,P2*%
%TO.N,RNum*%
X267899988Y-133790000D03*
%TO.P,MCU-AX2,P3*%
%TO.N,RTop*%
X267899988Y-136330000D03*
%TO.P,MCU-AX2,P4*%
%TO.N,RHome*%
X267899988Y-138870000D03*
%TO.P,MCU-AX2,P5*%
%TO.N,RBottom*%
X267899988Y-141410000D03*
%TO.P,MCU-AX2,P6*%
%TO.N,RMod*%
X267899988Y-143950000D03*
%TO.P,MCU-AX2,P7*%
%TO.N,LED_START_3V3*%
X267899988Y-146490000D03*
%TO.P,MCU-AX2,P8*%
%TO.N,TRS_DATA*%
X267899988Y-149030000D03*
%TO.P,MCU-AX2,P9*%
%TO.N,P9*%
X267899988Y-151570000D03*
%TO.P,MCU-AX2,P10*%
%TO.N,P10*%
X267899988Y-121090000D03*
%TO.P,MCU-AX2,P11*%
%TO.N,CInner*%
X252659988Y-121090000D03*
%TO.P,MCU-AX2,P20*%
%TO.N,OLED_SDA*%
X252659988Y-146490000D03*
%TO.P,MCU-AX2,P21*%
%TO.N,OLED_SCL*%
X252659988Y-151570000D03*
%TO.P,MCU-AX2,P22*%
%TO.N,COuter*%
X252659988Y-143950000D03*
%TO.P,MCU-AX2,P23*%
%TO.N,P23*%
X252659988Y-149030000D03*
%TO.P,MCU-AX2,P26*%
%TO.N,CPinky*%
X252659988Y-141410000D03*
%TO.P,MCU-AX2,P27*%
%TO.N,CRing*%
X252659988Y-138870000D03*
%TO.P,MCU-AX2,P28*%
%TO.N,CMid*%
X252659988Y-136330000D03*
%TO.P,MCU-AX2,P29*%
%TO.N,CIndex*%
X252659988Y-133790000D03*
%TO.P,MCU-AX2,RAW*%
%TO.N,RAW*%
X252659988Y-123630000D03*
%TO.P,MCU-AX2,RST*%
%TO.N,RST*%
X252659988Y-128710000D03*
%TO.P,MCU-AX2,VDD*%
%TO.N,3V3*%
X252659988Y-131250000D03*
%TD*%
D19*
%TO.P,D16,1*%
%TO.N,middle_home*%
X211399988Y-156450000D03*
%TO.P,D16,2*%
%TO.N,RHome*%
X211399988Y-153150000D03*
%TD*%
%TO.P,D17,1*%
%TO.N,middle_top*%
X211399988Y-139450000D03*
%TO.P,D17,2*%
%TO.N,RTop*%
X211399988Y-136150000D03*
%TD*%
%TO.P,D21,1*%
%TO.N,index_home*%
X229399988Y-158950000D03*
%TO.P,D21,2*%
%TO.N,RHome*%
X229399988Y-155650000D03*
%TD*%
%TO.P,D19,1*%
%TO.N,index_mod*%
X229399988Y-192950000D03*
%TO.P,D19,2*%
%TO.N,RMod*%
X229399988Y-189650000D03*
%TD*%
%TO.P,D27,1*%
%TO.N,inner_num*%
X247399988Y-127450000D03*
%TO.P,D27,2*%
%TO.N,RNum*%
X247399988Y-124150000D03*
%TD*%
D21*
%TO.P,D28,1*%
%TO.N,layer_cluster*%
X250204301Y-199938521D03*
%TO.P,D28,2*%
%TO.N,RMod*%
X251058403Y-196750965D03*
%TD*%
D22*
%TO.N,COuter*%
X148909988Y-186770000D03*
X148909988Y-135770000D03*
X148909988Y-152770000D03*
X148909988Y-169770000D03*
X156469988Y-123100000D03*
X270969988Y-118870000D03*
%TO.N,outer_bottom*%
X143599988Y-184850000D03*
X157399988Y-182350000D03*
%TO.N,outer_home*%
X157399988Y-165350000D03*
X143599988Y-167850000D03*
%TO.N,outer_top*%
X143599988Y-150850000D03*
X157399988Y-148350000D03*
%TO.N,outer_num*%
X157399988Y-131350000D03*
X143599988Y-133850000D03*
%TO.N,CPinky*%
X166909988Y-135770000D03*
X166909988Y-152770000D03*
X184909988Y-198870000D03*
X166909988Y-186770000D03*
X166909988Y-169770000D03*
X270234488Y-120080405D03*
X174059988Y-124020000D03*
%TO.N,pinky_bottom*%
X175399988Y-182350000D03*
X161599988Y-184850000D03*
%TO.N,pinky_home*%
X161599988Y-167850000D03*
X175399988Y-165350000D03*
%TO.N,pinky_top*%
X175399988Y-148350000D03*
X161599988Y-150850000D03*
%TO.N,pinky_num*%
X161599988Y-133850000D03*
X175399988Y-131350000D03*
%TO.N,ring_mod*%
X179599988Y-196950000D03*
X193399988Y-194450000D03*
%TO.N,CRing*%
X184909988Y-164870000D03*
X184909988Y-130870000D03*
X184909988Y-181870000D03*
X269506334Y-119373650D03*
X184909988Y-147870000D03*
X192399988Y-116030000D03*
X202909988Y-196370000D03*
%TO.N,ring_bottom*%
X179599988Y-179950000D03*
X193399988Y-177450000D03*
%TO.N,ring_home*%
X179599988Y-162950000D03*
X193399988Y-160450000D03*
%TO.N,ring_top*%
X193399988Y-143450000D03*
X179599988Y-145950000D03*
%TO.N,ring_num*%
X193399988Y-126450000D03*
X179599988Y-128950000D03*
%TO.N,middle_mod*%
X197599988Y-194450000D03*
X211399988Y-191950000D03*
%TO.N,CMid*%
X202909988Y-128370000D03*
X269799488Y-123236231D03*
X202909988Y-145370000D03*
X202909988Y-162370000D03*
X202909988Y-179370000D03*
X220909988Y-198870000D03*
X210439988Y-116690000D03*
%TO.N,middle_bottom*%
X211399988Y-174950000D03*
X197599988Y-177450000D03*
%TO.N,middle_home*%
X211399988Y-157950000D03*
X197599988Y-160450000D03*
%TO.N,middle_top*%
X211399988Y-140950000D03*
X197599988Y-143450000D03*
%TO.N,middle_num*%
X197599988Y-126450000D03*
X211399988Y-123950000D03*
%TO.N,index_mod*%
X229399988Y-194450000D03*
X215599988Y-196950000D03*
%TO.N,CIndex*%
X220909988Y-147870000D03*
X269074988Y-124830000D03*
X228259988Y-119425500D03*
X220909988Y-181870000D03*
X240469988Y-203460000D03*
X220909988Y-130870000D03*
X220909988Y-164870000D03*
%TO.N,index_bottom*%
X229399988Y-177450000D03*
X215599988Y-179950000D03*
%TO.N,index_home*%
X229399988Y-160450000D03*
X215599988Y-162950000D03*
%TO.N,index_top*%
X229399988Y-143450000D03*
X215599988Y-145950000D03*
%TO.N,index_num*%
X215599988Y-128950000D03*
X229399988Y-126450000D03*
%TO.N,CInner*%
X260839988Y-200580000D03*
X238909988Y-167370000D03*
X238909988Y-133370000D03*
X238909988Y-184370000D03*
X238909988Y-150370000D03*
%TO.N,inner_bottom*%
X233599988Y-182450000D03*
X247399988Y-179950000D03*
%TO.N,inner_home*%
X233599988Y-165450000D03*
X247399988Y-162950000D03*
%TO.N,inner_top*%
X233599988Y-148450000D03*
X247399988Y-145950000D03*
%TO.N,inner_num*%
X233599988Y-131450000D03*
X247399988Y-128950000D03*
%TO.N,layer_cluster*%
X235839988Y-200240000D03*
X249819988Y-201390000D03*
%TO.N,space_cluster*%
X260409988Y-210140000D03*
X265149988Y-196940000D03*
%TO.N,RAW*%
X216999988Y-140450000D03*
X198999988Y-120950000D03*
X180999988Y-123450000D03*
X180999988Y-140450000D03*
X144999988Y-128350000D03*
X180999988Y-157450000D03*
X144999988Y-179350000D03*
X162999988Y-145350000D03*
X216999988Y-174450000D03*
X244530470Y-118604500D03*
X198999988Y-171950000D03*
X262429990Y-125025500D03*
X162999988Y-128350000D03*
X162999988Y-162350000D03*
X144999988Y-162350000D03*
X144999988Y-145350000D03*
X269212688Y-200905500D03*
X162999988Y-179350000D03*
X234999988Y-159950000D03*
X257609988Y-125025500D03*
X238615088Y-195280300D03*
X180999988Y-174450000D03*
X198999988Y-137950000D03*
X234999988Y-142950000D03*
X198999988Y-188950000D03*
X216999988Y-123450000D03*
X234999988Y-176950000D03*
X216999988Y-157450000D03*
X198999988Y-154950000D03*
X234999988Y-125950000D03*
X216999988Y-191450000D03*
X180999988Y-191450000D03*
%TO.N,GND*%
X208999988Y-153250000D03*
X248714288Y-196226400D03*
X244999988Y-158250000D03*
X190999988Y-155750000D03*
X190999988Y-172750000D03*
X154999988Y-160650000D03*
X172999988Y-177650000D03*
X241679066Y-190494500D03*
X226999988Y-189750000D03*
X172999988Y-160650000D03*
X244999988Y-141250000D03*
X190999988Y-189750000D03*
X265684988Y-210415800D03*
X172999988Y-143650000D03*
X244999988Y-175250000D03*
X208999988Y-119250000D03*
X154999988Y-126650000D03*
X190999988Y-121750000D03*
X226999988Y-172750000D03*
X172999988Y-126650000D03*
X208999988Y-136250000D03*
X226999988Y-138750000D03*
X208999988Y-187250000D03*
X226999988Y-121750000D03*
X244999988Y-124250000D03*
X190999988Y-138750000D03*
X261209988Y-127440000D03*
X251159988Y-120270000D03*
X255319988Y-127440000D03*
X244659988Y-117025000D03*
X226999988Y-155750000D03*
X154999988Y-177650000D03*
X208999988Y-170250000D03*
X154999988Y-143650000D03*
%TO.N,LED_25*%
X163999988Y-178500000D03*
X153999988Y-178500000D03*
%TO.N,LED_26*%
X152539990Y-163400000D03*
X145999988Y-178500000D03*
X153999988Y-161500000D03*
%TO.N,LED_27*%
X152599990Y-146540000D03*
X145999988Y-161500000D03*
X153999988Y-144500000D03*
%TO.N,LED_28*%
X145999988Y-144500000D03*
X152569990Y-129259502D03*
X153999988Y-127500000D03*
%TO.N,LED_29*%
X145999988Y-127500000D03*
%TO.N,LED_24*%
X171999988Y-178500000D03*
X163999988Y-161500000D03*
%TO.N,LED_23*%
X171999988Y-161500000D03*
X163999988Y-144500000D03*
%TO.N,LED_22*%
X171999988Y-144500000D03*
X163999988Y-127500000D03*
%TO.N,LED_21*%
X171999988Y-127500000D03*
X181999988Y-122600000D03*
%TO.N,LED_16*%
X189999988Y-190600000D03*
X199999988Y-188100000D03*
%TO.N,LED_17*%
X181999988Y-190600000D03*
X188599990Y-175359502D03*
X189999988Y-173600000D03*
%TO.N,LED_18*%
X181999988Y-173600000D03*
X189999988Y-156600000D03*
X188539990Y-158359502D03*
%TO.N,LED_19*%
X181999988Y-156600000D03*
X188629990Y-141359502D03*
X189999988Y-139600000D03*
%TO.N,LED_20*%
X181999988Y-139600000D03*
X189999988Y-122600000D03*
X190229990Y-124240000D03*
%TO.N,LED_15*%
X199999988Y-171100000D03*
X207999988Y-188100000D03*
%TO.N,LED_14*%
X199999988Y-154100000D03*
X207999988Y-171100000D03*
%TO.N,LED_13*%
X207999988Y-154100000D03*
X199999988Y-137100000D03*
%TO.N,LED_12*%
X199999988Y-120100000D03*
X207999988Y-137100000D03*
%TO.N,LED_11*%
X217999988Y-122600000D03*
X207999988Y-120100000D03*
%TO.N,LED_6*%
X225999988Y-190600000D03*
X239800988Y-194718100D03*
%TO.N,LED_7*%
X225999988Y-173600000D03*
X217999988Y-190600000D03*
X224629990Y-175410000D03*
%TO.N,LED_8*%
X217999988Y-173600000D03*
X224569990Y-158440000D03*
X225999988Y-156600000D03*
%TO.N,LED_9*%
X217999988Y-156600000D03*
X225849990Y-141265500D03*
X225999988Y-139600000D03*
%TO.N,LED_10*%
X217999988Y-139600000D03*
X224549988Y-124999998D03*
X225999988Y-122600000D03*
%TO.N,LED_3*%
X235999988Y-159100000D03*
X243999988Y-176100000D03*
%TO.N,LED_4*%
X235999988Y-176100000D03*
X265448788Y-209124800D03*
%TO.N,LED_2*%
X235999988Y-142100000D03*
X243999988Y-159100000D03*
%TO.N,LED_1*%
X243999988Y-142100000D03*
X235999988Y-125100000D03*
%TO.N,LED_START_5V*%
X239849988Y-115810000D03*
X238469988Y-119669104D03*
X243999988Y-125100000D03*
%TO.N,LED_5*%
X247528388Y-196788600D03*
X269448788Y-202196600D03*
%TO.N,RBottom*%
X193399988Y-171150000D03*
X211399988Y-168650000D03*
X247399988Y-173650000D03*
X254135037Y-141860451D03*
X229399988Y-171150000D03*
X255851788Y-141410000D03*
X157399988Y-176050000D03*
X175399988Y-176050000D03*
%TO.N,RHome*%
X157399988Y-159050000D03*
X247399988Y-156650000D03*
X193399988Y-154150000D03*
X254164136Y-139349550D03*
X211399988Y-151650000D03*
X229399988Y-154150000D03*
X175399988Y-159050000D03*
%TO.N,RTop*%
X211399988Y-134650000D03*
X247399988Y-139650000D03*
X254217287Y-136862701D03*
X157399988Y-142050000D03*
X193399988Y-137150000D03*
X175399988Y-142050000D03*
X229399988Y-137150000D03*
%TO.N,RNum*%
X157399988Y-125050000D03*
X254242288Y-134335500D03*
X229399988Y-120150000D03*
X247399988Y-122650000D03*
X175399988Y-125050000D03*
X193399988Y-120150000D03*
X259449488Y-133885000D03*
X211399988Y-117650000D03*
%TO.N,RMod*%
X256369988Y-190044500D03*
X193399988Y-188150000D03*
X229399988Y-188150000D03*
X251589988Y-194990000D03*
X265869988Y-213290000D03*
X254402288Y-144495500D03*
X256576288Y-143950000D03*
X211399988Y-185650000D03*
%TO.N,3V3*%
X258599988Y-132570000D03*
%TO.N,P0*%
X254307287Y-124175500D03*
%TO.N,P1*%
X254307288Y-126590500D03*
%TO.N,LED_START_3V3*%
X254212287Y-147017701D03*
X260159988Y-146490000D03*
X243709990Y-117800000D03*
%TO.N,TRS_DATA*%
X254297287Y-149575500D03*
%TO.N,P9*%
X254160038Y-152045450D03*
%TO.N,P10*%
X254116572Y-121521986D03*
%TO.N,OLED_SDA*%
X254789988Y-159260000D03*
X260119990Y-147760000D03*
%TD*%
D23*
%TO.N,COuter*%
X211539481Y-114855000D02*
X191913287Y-114855000D01*
X146719988Y-137950000D02*
X148909988Y-135770000D01*
X146719988Y-154950000D02*
X148909988Y-152770000D01*
X248755927Y-117631269D02*
X245993592Y-120393604D01*
X178193592Y-119250000D02*
X174343592Y-123100000D01*
X146719988Y-188950000D02*
X148909988Y-186770000D01*
X191913287Y-114855000D02*
X187518287Y-119250000D01*
X270969988Y-118870000D02*
X270214988Y-118115000D01*
X262255877Y-117631269D02*
X248755927Y-117631269D01*
X146719988Y-171950000D02*
X148909988Y-169770000D01*
X233214481Y-120393604D02*
X230160877Y-117340000D01*
X253929988Y-145220000D02*
X266219988Y-145220000D01*
X174343592Y-123100000D02*
X156469988Y-123100000D01*
X252659988Y-143950000D02*
X253929988Y-145220000D01*
X214024481Y-117340000D02*
X211539481Y-114855000D01*
X230160877Y-117340000D02*
X214024481Y-117340000D01*
X262739608Y-118115000D02*
X262255877Y-117631269D01*
X270214988Y-118115000D02*
X262739608Y-118115000D01*
X245993592Y-120393604D02*
X233214481Y-120393604D01*
X187518287Y-119250000D02*
X178193592Y-119250000D01*
%TO.N,outer_bottom*%
X151919988Y-185500000D02*
X152539988Y-184850000D01*
X143599988Y-184850000D02*
X147219988Y-184850000D01*
X157399988Y-182350000D02*
X158274988Y-183225000D01*
X152539988Y-184850000D02*
X156399988Y-184850000D01*
X147219988Y-184850000D02*
X147849988Y-185500000D01*
X158274988Y-183225000D02*
X158274988Y-186750000D01*
X157399988Y-182350000D02*
X157399988Y-180850000D01*
X156399988Y-184850000D02*
X158279988Y-186750000D01*
X147849988Y-185500000D02*
X151919988Y-185500000D01*
%TO.N,outer_home*%
X151919988Y-168500000D02*
X152539988Y-167850000D01*
X157399988Y-165350000D02*
X157399988Y-163850000D01*
X156399988Y-167850000D02*
X158279988Y-169750000D01*
X158274988Y-166225000D02*
X158274988Y-169750000D01*
X147849988Y-168500000D02*
X151919988Y-168500000D01*
X147219988Y-167850000D02*
X147849988Y-168500000D01*
X157399988Y-165350000D02*
X158274988Y-166225000D01*
X143599988Y-167850000D02*
X147219988Y-167850000D01*
X152539988Y-167850000D02*
X156399988Y-167850000D01*
%TO.N,outer_top*%
X157399988Y-148350000D02*
X157399988Y-146850000D01*
X156399988Y-150850000D02*
X158279988Y-152750000D01*
X157399988Y-148350000D02*
X158274988Y-149225000D01*
X147219988Y-150850000D02*
X147849988Y-151500000D01*
X152539988Y-150850000D02*
X156399988Y-150850000D01*
X151919988Y-151500000D02*
X152539988Y-150850000D01*
X147849988Y-151500000D02*
X151919988Y-151500000D01*
X158274988Y-149225000D02*
X158274988Y-152750000D01*
X143599988Y-150850000D02*
X147219988Y-150850000D01*
%TO.N,outer_num*%
X143599988Y-133850000D02*
X147219988Y-133850000D01*
X156399988Y-133850000D02*
X158279988Y-135750000D01*
X152539988Y-133850000D02*
X156399988Y-133850000D01*
X157399988Y-131350000D02*
X157399988Y-129850000D01*
X147219988Y-133850000D02*
X147849988Y-134500000D01*
X158274988Y-132225000D02*
X158274988Y-135750000D01*
X151919988Y-134500000D02*
X152539988Y-133850000D01*
X157399988Y-131350000D02*
X158274988Y-132225000D01*
X147849988Y-134500000D02*
X151919988Y-134500000D01*
%TO.N,CPinky*%
X187704683Y-119700000D02*
X178379988Y-119700000D01*
X246173592Y-120850000D02*
X233034481Y-120850000D01*
X252659988Y-141410000D02*
X253929988Y-142680000D01*
X270234488Y-120080405D02*
X270234488Y-119076499D01*
X164719988Y-171950000D02*
X166909988Y-169770000D01*
X164719988Y-137950000D02*
X166909988Y-135770000D01*
X229974481Y-117790000D02*
X213838085Y-117790000D01*
X269722989Y-118565000D02*
X262553212Y-118565000D01*
X182719988Y-201050000D02*
X184909988Y-198870000D01*
X178379988Y-119700000D02*
X174059988Y-124020000D01*
X213838085Y-117790000D02*
X211353085Y-115305000D01*
X176824988Y-201050000D02*
X182724988Y-201050000D01*
X262553212Y-118565000D02*
X262069481Y-118081269D01*
X192099683Y-115305000D02*
X187704683Y-119700000D01*
X233034481Y-120850000D02*
X229974481Y-117790000D01*
X164724988Y-188950000D02*
X176824988Y-201050000D01*
X253929988Y-142680000D02*
X266219988Y-142680000D01*
X262069481Y-118081269D02*
X248942323Y-118081269D01*
X270234488Y-119076499D02*
X269722989Y-118565000D01*
X211353085Y-115305000D02*
X192099683Y-115305000D01*
X248942323Y-118081269D02*
X246173592Y-120850000D01*
X164719988Y-154950000D02*
X166909988Y-152770000D01*
X164719988Y-188950000D02*
X166909988Y-186770000D01*
%TO.N,pinky_bottom*%
X174399988Y-184850000D02*
X176279988Y-186750000D01*
X170539988Y-184850000D02*
X174399988Y-184850000D01*
X175399988Y-182350000D02*
X176274988Y-183225000D01*
X175399988Y-182350000D02*
X175399988Y-180850000D01*
X176274988Y-183225000D02*
X176274988Y-186750000D01*
X165219988Y-184850000D02*
X165849988Y-185500000D01*
X161599988Y-184850000D02*
X165219988Y-184850000D01*
X169919988Y-185500000D02*
X170539988Y-184850000D01*
X165849988Y-185500000D02*
X169919988Y-185500000D01*
%TO.N,pinky_home*%
X161599988Y-167850000D02*
X165219988Y-167850000D01*
X165849988Y-168500000D02*
X169919988Y-168500000D01*
X170539988Y-167850000D02*
X174399988Y-167850000D01*
X176274988Y-166225000D02*
X176274988Y-169750000D01*
X175399988Y-165350000D02*
X176274988Y-166225000D01*
X165219988Y-167850000D02*
X165849988Y-168500000D01*
X169919988Y-168500000D02*
X170539988Y-167850000D01*
X174399988Y-167850000D02*
X176279988Y-169750000D01*
X175399988Y-165350000D02*
X175399988Y-163850000D01*
%TO.N,pinky_top*%
X175399988Y-148350000D02*
X176274988Y-149225000D01*
X170539988Y-150850000D02*
X174399988Y-150850000D01*
X169919988Y-151500000D02*
X170539988Y-150850000D01*
X161599988Y-150850000D02*
X165219988Y-150850000D01*
X165849988Y-151500000D02*
X169919988Y-151500000D01*
X174399988Y-150850000D02*
X176279988Y-152750000D01*
X176274988Y-149225000D02*
X176274988Y-152750000D01*
X165219988Y-150850000D02*
X165849988Y-151500000D01*
X175399988Y-148350000D02*
X175399988Y-146850000D01*
%TO.N,pinky_num*%
X169919988Y-134500000D02*
X170539988Y-133850000D01*
X165849988Y-134500000D02*
X169919988Y-134500000D01*
X161599988Y-133850000D02*
X165219988Y-133850000D01*
X174399988Y-133850000D02*
X176279988Y-135750000D01*
X175399988Y-131350000D02*
X175399988Y-129850000D01*
X170539988Y-133850000D02*
X174399988Y-133850000D01*
X176274988Y-132225000D02*
X176274988Y-135750000D01*
X165219988Y-133850000D02*
X165849988Y-134500000D01*
X175399988Y-131350000D02*
X176274988Y-132225000D01*
%TO.N,ring_mod*%
X192399988Y-196950000D02*
X194279988Y-198850000D01*
X183219988Y-196950000D02*
X183849988Y-197600000D01*
X194274988Y-195325000D02*
X194274988Y-198850000D01*
X183849988Y-197600000D02*
X187919988Y-197600000D01*
X193399988Y-194450000D02*
X193399988Y-192950000D01*
X187919988Y-197600000D02*
X188539988Y-196950000D01*
X179599988Y-196950000D02*
X183219988Y-196950000D01*
X193399988Y-194450000D02*
X194274988Y-195325000D01*
X188539988Y-196950000D02*
X192399988Y-196950000D01*
%TO.N,CRing*%
X200719988Y-198550000D02*
X202909988Y-196370000D01*
X232848085Y-121300000D02*
X229788085Y-118240000D01*
X269506334Y-119373650D02*
X269147684Y-119015000D01*
X269147684Y-119015000D02*
X262366816Y-119015000D01*
X229788085Y-118240000D02*
X213651689Y-118240000D01*
X211376689Y-115965000D02*
X192464988Y-115965000D01*
X182719988Y-184050000D02*
X184909988Y-181870000D01*
X182719988Y-133050000D02*
X184909988Y-130870000D01*
X246359988Y-121300000D02*
X232848085Y-121300000D01*
X249128719Y-118531269D02*
X246359988Y-121300000D01*
X192464988Y-115965000D02*
X192399988Y-116030000D01*
X253929988Y-140140000D02*
X266219988Y-140140000D01*
X252659988Y-138870000D02*
X253929988Y-140140000D01*
X182719988Y-150050000D02*
X184909988Y-147870000D01*
X261883085Y-118531269D02*
X249128719Y-118531269D01*
X262366816Y-119015000D02*
X261883085Y-118531269D01*
X182719988Y-167050000D02*
X184909988Y-164870000D01*
X213651689Y-118240000D02*
X211376689Y-115965000D01*
%TO.N,ring_bottom*%
X192399988Y-179950000D02*
X194279988Y-181850000D01*
X194274988Y-178325000D02*
X194274988Y-181850000D01*
X183849988Y-180600000D02*
X187919988Y-180600000D01*
X179599988Y-179950000D02*
X183219988Y-179950000D01*
X193399988Y-177450000D02*
X194274988Y-178325000D01*
X187919988Y-180600000D02*
X188539988Y-179950000D01*
X183219988Y-179950000D02*
X183849988Y-180600000D01*
X193399988Y-177450000D02*
X193399988Y-175950000D01*
X188539988Y-179950000D02*
X192399988Y-179950000D01*
%TO.N,ring_home*%
X179599988Y-162950000D02*
X183219988Y-162950000D01*
X183849988Y-163600000D02*
X187919988Y-163600000D01*
X187919988Y-163600000D02*
X188539988Y-162950000D01*
X193399988Y-160450000D02*
X194274988Y-161325000D01*
X183219988Y-162950000D02*
X183849988Y-163600000D01*
X188539988Y-162950000D02*
X192399988Y-162950000D01*
X193399988Y-160450000D02*
X193399988Y-158950000D01*
X192399988Y-162950000D02*
X194279988Y-164850000D01*
X194274988Y-161325000D02*
X194274988Y-164850000D01*
%TO.N,ring_top*%
X192399988Y-145950000D02*
X194279988Y-147850000D01*
X193399988Y-143450000D02*
X194274988Y-144325000D01*
X179599988Y-145950000D02*
X183219988Y-145950000D01*
X194274988Y-144325000D02*
X194274988Y-147850000D01*
X188539988Y-145950000D02*
X192399988Y-145950000D01*
X193399988Y-143450000D02*
X193399988Y-141950000D01*
X187919988Y-146600000D02*
X188539988Y-145950000D01*
X183219988Y-145950000D02*
X183849988Y-146600000D01*
X183849988Y-146600000D02*
X187919988Y-146600000D01*
%TO.N,ring_num*%
X183219988Y-128950000D02*
X183849988Y-129600000D01*
X179599988Y-128950000D02*
X183219988Y-128950000D01*
X187919988Y-129600000D02*
X188539988Y-128950000D01*
X193399988Y-126450000D02*
X193399988Y-124950000D01*
X193399988Y-126450000D02*
X194274988Y-127325000D01*
X183849988Y-129600000D02*
X187919988Y-129600000D01*
X192399988Y-128950000D02*
X194279988Y-130850000D01*
X188539988Y-128950000D02*
X192399988Y-128950000D01*
X194274988Y-127325000D02*
X194274988Y-130850000D01*
%TO.N,middle_mod*%
X210399988Y-194450000D02*
X212279988Y-196350000D01*
X201849988Y-195100000D02*
X205919988Y-195100000D01*
X212274988Y-192825000D02*
X212274988Y-196350000D01*
X211399988Y-191950000D02*
X211399988Y-190450000D01*
X205919988Y-195100000D02*
X206539988Y-194450000D01*
X211399988Y-191950000D02*
X212274988Y-192825000D01*
X197599988Y-194450000D02*
X201219988Y-194450000D01*
X206539988Y-194450000D02*
X210399988Y-194450000D01*
X201219988Y-194450000D02*
X201849988Y-195100000D01*
%TO.N,CMid*%
X252659988Y-136330000D02*
X253929988Y-137600000D01*
X200719988Y-147550000D02*
X202909988Y-145370000D01*
X200719988Y-164550000D02*
X202909988Y-162370000D01*
X269694988Y-120586903D02*
X269694988Y-123131731D01*
X211465293Y-116690000D02*
X213465293Y-118690000D01*
X232661689Y-121750000D02*
X246638287Y-121750000D01*
X268573085Y-119465000D02*
X269694988Y-120586903D01*
X200719988Y-130550000D02*
X202909988Y-128370000D01*
X213465293Y-118690000D02*
X229601689Y-118690000D01*
X218719988Y-201050000D02*
X220909988Y-198870000D01*
X246638287Y-121750000D02*
X249407018Y-118981269D01*
X249407018Y-118981269D02*
X261696689Y-118981269D01*
X210439988Y-116690000D02*
X211465293Y-116690000D01*
X229601689Y-118690000D02*
X232661689Y-121750000D01*
X261696689Y-118981269D02*
X262180420Y-119465000D01*
X253929988Y-137600000D02*
X266219988Y-137600000D01*
X200719988Y-181550000D02*
X202909988Y-179370000D01*
X262180420Y-119465000D02*
X268573085Y-119465000D01*
X269694988Y-123131731D02*
X269799488Y-123236231D01*
%TO.N,middle_bottom*%
X206539988Y-177450000D02*
X210399988Y-177450000D01*
X211399988Y-174950000D02*
X212274988Y-175825000D01*
X201849988Y-178100000D02*
X205919988Y-178100000D01*
X211399988Y-174950000D02*
X211399988Y-173450000D01*
X201219988Y-177450000D02*
X201849988Y-178100000D01*
X210399988Y-177450000D02*
X212279988Y-179350000D01*
X212274988Y-175825000D02*
X212274988Y-179350000D01*
X205919988Y-178100000D02*
X206539988Y-177450000D01*
X197599988Y-177450000D02*
X201219988Y-177450000D01*
%TO.N,middle_home*%
X211399988Y-157950000D02*
X212274988Y-158825000D01*
X210399988Y-160450000D02*
X212279988Y-162350000D01*
X212274988Y-158825000D02*
X212274988Y-162350000D01*
X211399988Y-157950000D02*
X211399988Y-156450000D01*
X201219988Y-160450000D02*
X201849988Y-161100000D01*
X206539988Y-160450000D02*
X210399988Y-160450000D01*
X205919988Y-161100000D02*
X206539988Y-160450000D01*
X197599988Y-160450000D02*
X201219988Y-160450000D01*
X201849988Y-161100000D02*
X205919988Y-161100000D01*
%TO.N,middle_top*%
X197599988Y-143450000D02*
X201219988Y-143450000D01*
X206539988Y-143450000D02*
X210399988Y-143450000D01*
X205919988Y-144100000D02*
X206539988Y-143450000D01*
X201219988Y-143450000D02*
X201849988Y-144100000D01*
X211399988Y-140950000D02*
X212274988Y-141825000D01*
X201849988Y-144100000D02*
X205919988Y-144100000D01*
X211399988Y-140950000D02*
X211399988Y-139450000D01*
X210399988Y-143450000D02*
X212279988Y-145350000D01*
X212274988Y-141825000D02*
X212274988Y-145350000D01*
%TO.N,middle_num*%
X205919988Y-127100000D02*
X206539988Y-126450000D01*
X197599988Y-126450000D02*
X201219988Y-126450000D01*
X201849988Y-127100000D02*
X205919988Y-127100000D01*
X211399988Y-123950000D02*
X212274988Y-124825000D01*
X211399988Y-123950000D02*
X211399988Y-122450000D01*
X201219988Y-126450000D02*
X201849988Y-127100000D01*
X212274988Y-124825000D02*
X212274988Y-128350000D01*
X206539988Y-126450000D02*
X210399988Y-126450000D01*
X210399988Y-126450000D02*
X212279988Y-128350000D01*
%TO.N,index_mod*%
X230274988Y-195325000D02*
X230274988Y-198850000D01*
X229399988Y-194450000D02*
X230274988Y-195325000D01*
X224539988Y-196950000D02*
X228399988Y-196950000D01*
X223919988Y-197600000D02*
X224539988Y-196950000D01*
X215599988Y-196950000D02*
X219219988Y-196950000D01*
X228399988Y-196950000D02*
X230279988Y-198850000D01*
X219849988Y-197600000D02*
X223919988Y-197600000D01*
X229399988Y-194450000D02*
X229399988Y-192950000D01*
X219219988Y-196950000D02*
X219849988Y-197600000D01*
%TO.N,CIndex*%
X253929988Y-135060000D02*
X266219988Y-135060000D01*
X229700793Y-119425500D02*
X228259988Y-119425500D01*
X249593414Y-119431269D02*
X246824683Y-122200000D01*
X218719988Y-150050000D02*
X220909988Y-147870000D01*
X237799988Y-205000000D02*
X240469988Y-203460000D01*
X261510293Y-119431269D02*
X249593414Y-119431269D01*
X268386689Y-119915000D02*
X261994024Y-119915000D01*
X261994024Y-119915000D02*
X261510293Y-119431269D01*
X218719988Y-167050000D02*
X220909988Y-164870000D01*
X232475293Y-122200000D02*
X229700793Y-119425500D01*
X218719988Y-133050000D02*
X220909988Y-130870000D01*
X246824683Y-122200000D02*
X232475293Y-122200000D01*
X252659988Y-133790000D02*
X253929988Y-135060000D01*
X269074988Y-120603299D02*
X268386689Y-119915000D01*
X269074988Y-124830000D02*
X269074988Y-120603299D01*
X218719988Y-184050000D02*
X220909988Y-181870000D01*
%TO.N,index_bottom*%
X224539988Y-179950000D02*
X228399988Y-179950000D01*
X228399988Y-179950000D02*
X230279988Y-181850000D01*
X230274988Y-178325000D02*
X230274988Y-181850000D01*
X215599988Y-179950000D02*
X219219988Y-179950000D01*
X223919988Y-180600000D02*
X224539988Y-179950000D01*
X229399988Y-177450000D02*
X230274988Y-178325000D01*
X219219988Y-179950000D02*
X219849988Y-180600000D01*
X219849988Y-180600000D02*
X223919988Y-180600000D01*
X229399988Y-177450000D02*
X229399988Y-175950000D01*
%TO.N,index_home*%
X224539988Y-162950000D02*
X228399988Y-162950000D01*
X230274988Y-161325000D02*
X230274988Y-164850000D01*
X219219988Y-162950000D02*
X219849988Y-163600000D01*
X223919988Y-163600000D02*
X224539988Y-162950000D01*
X228399988Y-162950000D02*
X230279988Y-164850000D01*
X219849988Y-163600000D02*
X223919988Y-163600000D01*
X229399988Y-160450000D02*
X229399988Y-158950000D01*
X229399988Y-160450000D02*
X230274988Y-161325000D01*
X215599988Y-162950000D02*
X219219988Y-162950000D01*
%TO.N,index_top*%
X229399988Y-143450000D02*
X230274988Y-144325000D01*
X215599988Y-145950000D02*
X219219988Y-145950000D01*
X224539988Y-145950000D02*
X228399988Y-145950000D01*
X228399988Y-145950000D02*
X230279988Y-147850000D01*
X219219988Y-145950000D02*
X219849988Y-146600000D01*
X230274988Y-144325000D02*
X230274988Y-147850000D01*
X223919988Y-146600000D02*
X224539988Y-145950000D01*
X219849988Y-146600000D02*
X223919988Y-146600000D01*
X229399988Y-143450000D02*
X229399988Y-141950000D01*
%TO.N,index_num*%
X219219988Y-128950000D02*
X219849988Y-129600000D01*
X223919988Y-129600000D02*
X224539988Y-128950000D01*
X224539988Y-128950000D02*
X228399988Y-128950000D01*
X219849988Y-129600000D02*
X223919988Y-129600000D01*
X230274988Y-127325000D02*
X230274988Y-130850000D01*
X229399988Y-126450000D02*
X230274988Y-127325000D01*
X215599988Y-128950000D02*
X219219988Y-128950000D01*
X229399988Y-126450000D02*
X229399988Y-124950000D01*
X228399988Y-128950000D02*
X230279988Y-130850000D01*
%TO.N,CInner*%
X236719988Y-186550000D02*
X238909988Y-184370000D01*
X236719988Y-152550000D02*
X238909988Y-150370000D01*
X236719988Y-169550000D02*
X238909988Y-167370000D01*
X236724988Y-186550000D02*
X239494988Y-189320000D01*
X260036365Y-189320000D02*
X260036365Y-197599434D01*
X236719988Y-135550000D02*
X238909988Y-133370000D01*
X239494988Y-189320000D02*
X260036365Y-189320000D01*
X252659988Y-121090000D02*
X253929988Y-122360000D01*
X260039988Y-197600000D02*
X260839988Y-200580000D01*
X253929988Y-122360000D02*
X266219988Y-122360000D01*
%TO.N,inner_bottom*%
X237219988Y-182450000D02*
X237849988Y-183100000D01*
X233599988Y-182450000D02*
X237219988Y-182450000D01*
X248274988Y-180825000D02*
X248274988Y-184350000D01*
X246399988Y-182450000D02*
X248279988Y-184350000D01*
X247399988Y-179950000D02*
X248274988Y-180825000D01*
X242539988Y-182450000D02*
X246399988Y-182450000D01*
X247399988Y-179950000D02*
X247399988Y-178450000D01*
X237849988Y-183100000D02*
X241919988Y-183100000D01*
X241919988Y-183100000D02*
X242539988Y-182450000D01*
%TO.N,inner_home*%
X247399988Y-162950000D02*
X247399988Y-161450000D01*
X237849988Y-166100000D02*
X241919988Y-166100000D01*
X242539988Y-165450000D02*
X246399988Y-165450000D01*
X248274988Y-163825000D02*
X248274988Y-167350000D01*
X241919988Y-166100000D02*
X242539988Y-165450000D01*
X233599988Y-165450000D02*
X237219988Y-165450000D01*
X237219988Y-165450000D02*
X237849988Y-166100000D01*
X246399988Y-165450000D02*
X248279988Y-167350000D01*
X247399988Y-162950000D02*
X248274988Y-163825000D01*
%TO.N,inner_top*%
X242539988Y-148450000D02*
X246399988Y-148450000D01*
X241919988Y-149100000D02*
X242539988Y-148450000D01*
X237849988Y-149100000D02*
X241919988Y-149100000D01*
X237219988Y-148450000D02*
X237849988Y-149100000D01*
X246399988Y-148450000D02*
X248279988Y-150350000D01*
X247399988Y-145950000D02*
X247399988Y-144450000D01*
X247399988Y-145950000D02*
X248274988Y-146825000D01*
X233599988Y-148450000D02*
X237219988Y-148450000D01*
X248274988Y-146825000D02*
X248274988Y-150350000D01*
%TO.N,inner_num*%
X247399988Y-128950000D02*
X247399988Y-127450000D01*
X246399988Y-131450000D02*
X248279988Y-133350000D01*
X242539988Y-131450000D02*
X246399988Y-131450000D01*
X237219988Y-131450000D02*
X237849988Y-132100000D01*
X247399988Y-128950000D02*
X248274988Y-129825000D01*
X241919988Y-132100000D02*
X242539988Y-131450000D01*
X237849988Y-132100000D02*
X241919988Y-132100000D01*
X233599988Y-131450000D02*
X237219988Y-131450000D01*
X248274988Y-129825000D02*
X248274988Y-133350000D01*
%TO.N,layer_cluster*%
X239779988Y-201960000D02*
X243709988Y-203010000D01*
X248199988Y-203550000D02*
X249519988Y-205860000D01*
X243709988Y-203010000D02*
X244479988Y-202550000D01*
X239339988Y-201170000D02*
X239779988Y-201960000D01*
X249819988Y-201390000D02*
X248199988Y-203010000D01*
X249819988Y-201390000D02*
X250199988Y-199940000D01*
X248199988Y-203010000D02*
X248199988Y-203550000D01*
X244479988Y-202550000D02*
X248199988Y-203550000D01*
X235839988Y-200240000D02*
X239339988Y-201170000D01*
%TO.N,space_cluster*%
X260409988Y-210140000D02*
X260409988Y-209690000D01*
X260409988Y-209690000D02*
X258749988Y-208030000D01*
X260669988Y-204690000D02*
X258749988Y-208030000D01*
X260429988Y-203820000D02*
X260669988Y-204690000D01*
X258749988Y-208030000D02*
X256169988Y-208700000D01*
X262459988Y-200300000D02*
X260429988Y-203820000D01*
X265149988Y-196940000D02*
X263329988Y-200080000D01*
X260409988Y-210140000D02*
X261709988Y-210890000D01*
X263329988Y-200080000D02*
X262459988Y-200300000D01*
%TO.N,RAW*%
X201449988Y-188950000D02*
X198999988Y-188950000D01*
X169907831Y-146075000D02*
X169782831Y-146200000D01*
X154815295Y-145350000D02*
X152892794Y-147272501D01*
X174469990Y-163200000D02*
X175894990Y-161775000D01*
X152089990Y-130010000D02*
X155539988Y-130010000D01*
X165449988Y-162250000D02*
X165449988Y-162432843D01*
X240981588Y-195914400D02*
X238615088Y-195280300D01*
X222865487Y-176010500D02*
X223534987Y-176680000D01*
X237449988Y-142950000D02*
X234999988Y-142950000D01*
X237449988Y-176950000D02*
X234999988Y-176950000D01*
X183449988Y-123450000D02*
X180999988Y-123450000D01*
X220254989Y-125890000D02*
X221134489Y-125010500D01*
X175783187Y-179503197D02*
X175211384Y-180075000D01*
X183739988Y-192300000D02*
X183449988Y-192010000D01*
X228474988Y-175175000D02*
X233224988Y-175175000D01*
X218560488Y-142010500D02*
X216999988Y-140450000D01*
X165449988Y-179350000D02*
X162999988Y-179350000D01*
X234999988Y-142950000D02*
X233224988Y-141175000D01*
X175894990Y-161775000D02*
X176674988Y-161775000D01*
X225879990Y-125890000D02*
X227594990Y-124175000D01*
X147739988Y-180200000D02*
X147449988Y-179910000D01*
X191784988Y-124990000D02*
X182539988Y-124990000D01*
X165449988Y-179979998D02*
X165449988Y-179250000D01*
X180999988Y-184750000D02*
X175783187Y-179533199D01*
X151104987Y-164150000D02*
X150154987Y-163200000D01*
X219449988Y-191450000D02*
X216999988Y-191450000D01*
X183449988Y-141010000D02*
X183449988Y-140350000D01*
X233224988Y-175175000D02*
X234999988Y-176950000D01*
X169924990Y-180075000D02*
X169799990Y-180200000D01*
X224064685Y-158960000D02*
X224269685Y-159165000D01*
X219449988Y-192010000D02*
X219739988Y-192300000D01*
X165449988Y-145350000D02*
X162999988Y-145350000D01*
X243834970Y-119300000D02*
X239449988Y-119300000D01*
X233224988Y-141175000D02*
X228474988Y-141175000D01*
X219449988Y-157350000D02*
X219449988Y-157532843D01*
X253955205Y-125025500D02*
X266094488Y-125025500D01*
X182539988Y-124990000D02*
X180999988Y-123450000D01*
X169799990Y-129200000D02*
X165739988Y-129200000D01*
X235494788Y-192160000D02*
X238615088Y-195280300D01*
X201449988Y-120950000D02*
X198999988Y-120950000D01*
X215224988Y-155675000D02*
X216999988Y-157450000D01*
X233224988Y-124175000D02*
X234999988Y-125950000D01*
X228339990Y-192160000D02*
X235494788Y-192160000D01*
X147449988Y-145739998D02*
X147449988Y-145250000D01*
X266094488Y-125025500D02*
X266219988Y-124900000D01*
X197064990Y-124175000D02*
X192599988Y-124175000D01*
X210474988Y-155675000D02*
X215224988Y-155675000D01*
X223744987Y-125890000D02*
X225879990Y-125890000D01*
X219449988Y-140450000D02*
X216999988Y-140450000D01*
X198999988Y-188950000D02*
X195774988Y-192175000D01*
X147449988Y-145350000D02*
X144999988Y-145350000D01*
X216999988Y-123450000D02*
X215224988Y-121675000D01*
X188749990Y-176250000D02*
X187104987Y-176250000D01*
X183739988Y-141300000D02*
X183449988Y-141010000D01*
X165449988Y-145910000D02*
X165449988Y-145250000D01*
X191565486Y-159084502D02*
X193774988Y-156875000D01*
X175211384Y-180075000D02*
X169924990Y-180075000D01*
X197059988Y-139890000D02*
X191124797Y-139890000D01*
X147449988Y-128910000D02*
X148109988Y-129570000D01*
X195774988Y-175175000D02*
X189824990Y-175175000D01*
X169782831Y-146200000D02*
X165739988Y-146200000D01*
X152892794Y-147272501D02*
X151227488Y-147272501D01*
X180999988Y-191450000D02*
X180999988Y-184750000D01*
X176624990Y-129075000D02*
X174474988Y-129075000D01*
X188930295Y-142084502D02*
X186554492Y-142084502D01*
X227659988Y-141990000D02*
X223890990Y-141990000D01*
X157199988Y-128350000D02*
X162999988Y-128350000D01*
X175783187Y-179533199D02*
X175783187Y-179503197D01*
X150154987Y-163200000D02*
X147739988Y-163200000D01*
X201449988Y-171950000D02*
X198999988Y-171950000D01*
X201449988Y-138510000D02*
X201449988Y-137850000D01*
X183449988Y-192010000D02*
X183449988Y-191350000D01*
X216999988Y-123450000D02*
X219439988Y-125890000D01*
X147449988Y-179910000D02*
X147449988Y-179250000D01*
X221134489Y-176010500D02*
X222865487Y-176010500D01*
X170609990Y-130010000D02*
X169799990Y-129200000D01*
X224269685Y-159165000D02*
X224870295Y-159165000D01*
X205782831Y-138800000D02*
X201739988Y-138800000D01*
X215224988Y-121675000D02*
X205907831Y-121675000D01*
X216999988Y-140450000D02*
X215149988Y-138600000D01*
X180999988Y-123450000D02*
X180999988Y-124639998D01*
X165739988Y-129200000D02*
X165449988Y-128910000D01*
X175374988Y-146075000D02*
X169907831Y-146075000D01*
X147449988Y-162910000D02*
X147449988Y-162250000D01*
X173539988Y-130010000D02*
X170609990Y-130010000D01*
X237449988Y-159950000D02*
X234999988Y-159950000D01*
X228199990Y-192300000D02*
X228339990Y-192160000D01*
X155754987Y-180200000D02*
X147739988Y-180200000D01*
X224870295Y-159165000D02*
X225885295Y-158150000D01*
X183449988Y-157450000D02*
X180999988Y-157450000D01*
X219449988Y-123450000D02*
X216999988Y-123450000D01*
X252659988Y-123730283D02*
X253955205Y-125025500D01*
X226969988Y-176680000D02*
X228474988Y-175175000D01*
X192599988Y-124175000D02*
X191784988Y-124990000D01*
X201449988Y-154850000D02*
X201449988Y-155032843D01*
X201449988Y-172510000D02*
X201449988Y-171850000D01*
X186154987Y-175300000D02*
X183969990Y-175300000D01*
X183969990Y-175300000D02*
X183449988Y-174779998D01*
X148620490Y-146910500D02*
X147449988Y-145739998D01*
X222865487Y-125010500D02*
X223744987Y-125890000D01*
X233199988Y-158150000D02*
X234999988Y-159950000D01*
X267987688Y-203027300D02*
X269212688Y-200905500D01*
X180999988Y-140450000D02*
X175374988Y-146075000D01*
X151227488Y-147272501D02*
X150865487Y-146910500D01*
X147449988Y-128350000D02*
X144999988Y-128350000D01*
X237449988Y-125950000D02*
X234999988Y-125950000D01*
X215149988Y-138600000D02*
X205982831Y-138600000D01*
X239449988Y-119300000D02*
X238699988Y-118550000D01*
X183449988Y-140450000D02*
X180999988Y-140450000D01*
X165449988Y-128910000D02*
X165449988Y-128250000D01*
X199849988Y-121800000D02*
X198999988Y-120950000D01*
X201739988Y-138800000D02*
X201449988Y-138510000D01*
X198999988Y-122240002D02*
X197064990Y-124175000D01*
X219449988Y-157532843D02*
X220877145Y-158960000D01*
X151649990Y-129570000D02*
X152089990Y-130010000D01*
X165669990Y-180200000D02*
X165449988Y-179979998D01*
X197074988Y-156875000D02*
X198999988Y-154950000D01*
X219229988Y-176680000D02*
X220464989Y-176680000D01*
X219449988Y-174450000D02*
X216999988Y-174450000D01*
X220877145Y-158960000D02*
X224064685Y-158960000D01*
X183449988Y-158010000D02*
X184437392Y-158997404D01*
X189824990Y-175175000D02*
X188749990Y-176250000D01*
X191124797Y-139890000D02*
X188930295Y-142084502D01*
X148109988Y-129570000D02*
X151649990Y-129570000D01*
X198999988Y-120950000D02*
X198999988Y-122240002D01*
X183449988Y-191450000D02*
X180999988Y-191450000D01*
X150865487Y-146910500D02*
X148620490Y-146910500D01*
X152815295Y-164150000D02*
X151104987Y-164150000D01*
X147449988Y-179350000D02*
X144999988Y-179350000D01*
X181029990Y-124670000D02*
X176624990Y-129075000D01*
X166217145Y-163200000D02*
X174469990Y-163200000D01*
X183449988Y-157350000D02*
X183449988Y-158010000D01*
X252659988Y-123630000D02*
X252659988Y-123730283D01*
X215224988Y-172675000D02*
X205907831Y-172675000D01*
X244530470Y-118604500D02*
X243834970Y-119300000D01*
X219439988Y-125890000D02*
X220254989Y-125890000D01*
X188239685Y-159084502D02*
X191565486Y-159084502D01*
X165739988Y-146200000D02*
X165449988Y-145910000D01*
X162999988Y-179350000D02*
X156604987Y-179350000D01*
X225885295Y-158150000D02*
X233199988Y-158150000D01*
X180936384Y-174350000D02*
X175783187Y-179503197D01*
X205782831Y-172800000D02*
X201739988Y-172800000D01*
X147739988Y-163200000D02*
X147449988Y-162910000D01*
X193774988Y-156875000D02*
X197074988Y-156875000D01*
X165449988Y-162432843D02*
X166217145Y-163200000D01*
X216999988Y-174450000D02*
X219229988Y-176680000D01*
X183449988Y-174779998D02*
X183449988Y-174350000D01*
X205907831Y-172675000D02*
X205782831Y-172800000D01*
X221134489Y-125010500D02*
X222865487Y-125010500D01*
X223890990Y-141990000D02*
X223870490Y-142010500D01*
X156604987Y-179350000D02*
X155754987Y-180200000D01*
X201449988Y-155032843D02*
X202447145Y-156030000D01*
X223870490Y-142010500D02*
X218560488Y-142010500D01*
X183449988Y-174350000D02*
X180936384Y-174350000D01*
X162999988Y-162350000D02*
X154615295Y-162350000D01*
X184437392Y-158997404D02*
X188152587Y-158997404D01*
X198999988Y-137950000D02*
X197059988Y-139890000D01*
X195774988Y-192175000D02*
X189414990Y-192175000D01*
X205982831Y-138600000D02*
X205782831Y-138800000D01*
X154615295Y-162350000D02*
X152815295Y-164150000D01*
X210119988Y-156030000D02*
X210474988Y-155675000D01*
X155539988Y-130010000D02*
X157199988Y-128350000D01*
X219739988Y-192300000D02*
X228199990Y-192300000D01*
X176674988Y-161775000D02*
X180999988Y-157450000D01*
X201449988Y-137950000D02*
X198999988Y-137950000D01*
X183449988Y-174450000D02*
X180999988Y-174450000D01*
X147449988Y-128250000D02*
X147449988Y-128910000D01*
X216999988Y-174450000D02*
X215224988Y-172675000D01*
X165449988Y-162350000D02*
X162999988Y-162350000D01*
X227594990Y-124175000D02*
X233224988Y-124175000D01*
X185769990Y-141300000D02*
X183739988Y-141300000D01*
X188152587Y-158997404D02*
X188239685Y-159084502D01*
X189289990Y-192300000D02*
X183739988Y-192300000D01*
X174474988Y-129075000D02*
X173539988Y-130010000D01*
X147449988Y-162350000D02*
X144999988Y-162350000D01*
X220464989Y-176680000D02*
X221134489Y-176010500D01*
X205782831Y-121800000D02*
X199849988Y-121800000D01*
X219449988Y-191350000D02*
X219449988Y-192010000D01*
X219449988Y-157450000D02*
X216999988Y-157450000D01*
X180999988Y-124639998D02*
X181029990Y-124670000D01*
X202447145Y-156030000D02*
X210119988Y-156030000D01*
X198999988Y-171950000D02*
X195774988Y-175175000D01*
X223534987Y-176680000D02*
X226969988Y-176680000D01*
X165449988Y-128350000D02*
X162999988Y-128350000D01*
X205907831Y-121675000D02*
X205782831Y-121800000D01*
X228474988Y-141175000D02*
X227659988Y-141990000D01*
X201739988Y-172800000D02*
X201449988Y-172510000D01*
X186554492Y-142084502D02*
X185769990Y-141300000D01*
X187104987Y-176250000D02*
X186154987Y-175300000D01*
X189414990Y-192175000D02*
X189289990Y-192300000D01*
X162999988Y-145350000D02*
X154815295Y-145350000D01*
X169799990Y-180200000D02*
X165669990Y-180200000D01*
X201449988Y-154950000D02*
X198999988Y-154950000D01*
%TO.N,GND*%
X191679988Y-173430000D02*
X190999988Y-172750000D01*
X241679066Y-190425000D02*
X227674988Y-190425000D01*
X249679988Y-128680000D02*
X250979988Y-129980000D01*
X188549988Y-121750000D02*
X190999988Y-121750000D01*
X256059988Y-154420000D02*
X254631510Y-154420000D01*
X213053592Y-119940000D02*
X213713592Y-120600000D01*
X240299988Y-116850000D02*
X240299988Y-118090000D01*
X172999988Y-160650000D02*
X173674988Y-161325000D01*
X226999988Y-138750000D02*
X224632831Y-138750000D01*
X240499988Y-116650000D02*
X240299988Y-116850000D01*
X173674988Y-161325000D02*
X176324988Y-161325000D01*
X152549988Y-143650000D02*
X154999988Y-143650000D01*
X196464988Y-156425000D02*
X200489988Y-152400000D01*
X176324988Y-124761396D02*
X176324988Y-127325000D01*
X253489988Y-155561522D02*
X253489988Y-156530000D01*
X251094988Y-158925000D02*
X253489988Y-156530000D01*
X173674988Y-127325000D02*
X172999988Y-126650000D01*
X244999988Y-158250000D02*
X245674988Y-158925000D01*
X209689988Y-119940000D02*
X213053592Y-119940000D01*
X243209988Y-173460000D02*
X227709988Y-173460000D01*
X206549988Y-170250000D02*
X208999988Y-170250000D01*
X243849988Y-123100000D02*
X228349988Y-123100000D01*
X176324988Y-161325000D02*
X176324988Y-161099695D01*
X194309988Y-139440000D02*
X191689988Y-139440000D01*
X190999988Y-138750000D02*
X190149988Y-137900000D01*
X224549988Y-172850000D02*
X224549988Y-172190000D01*
X210349988Y-137600000D02*
X208999988Y-136250000D01*
X224549988Y-172750000D02*
X226999988Y-172750000D01*
X159849988Y-142800000D02*
X158309988Y-144340000D01*
X188549988Y-172750000D02*
X190999988Y-172750000D01*
X245674988Y-158925000D02*
X251094988Y-158925000D01*
X194319988Y-173430000D02*
X191679988Y-173430000D01*
X163124990Y-127325000D02*
X164649990Y-125800000D01*
X155689988Y-178340000D02*
X154999988Y-177650000D01*
X223482831Y-137600000D02*
X210349988Y-137600000D01*
X188549988Y-138750000D02*
X190999988Y-138750000D01*
X172149988Y-125800000D02*
X172999988Y-126650000D01*
X152549988Y-177650000D02*
X154999988Y-177650000D01*
X242549988Y-175250000D02*
X244999988Y-175250000D01*
X194329990Y-190410000D02*
X194299990Y-190440000D01*
X224549988Y-121750000D02*
X226999988Y-121750000D01*
X224549988Y-155750000D02*
X226999988Y-155750000D01*
X252659988Y-126170000D02*
X253929988Y-127440000D01*
X242549988Y-157690000D02*
X242549988Y-158350000D01*
X253489988Y-156638478D02*
X254251510Y-157400000D01*
X155674988Y-127325000D02*
X163124990Y-127325000D01*
X240759988Y-118550000D02*
X241299988Y-118550000D01*
X227709988Y-173460000D02*
X226999988Y-172750000D01*
X176324988Y-143530000D02*
X176324988Y-144325000D01*
X200489988Y-152400000D02*
X208149988Y-152400000D01*
X190149988Y-137900000D02*
X181954988Y-137900000D01*
X210349988Y-188600000D02*
X225849988Y-188600000D01*
X267899988Y-131250000D02*
X267804988Y-131345000D01*
X158309988Y-144340000D02*
X155689988Y-144340000D01*
X152549988Y-126650000D02*
X154999988Y-126650000D01*
X246321899Y-195688878D02*
X246321899Y-195067833D01*
X170549988Y-143650000D02*
X172999988Y-143650000D01*
X181954988Y-137900000D02*
X176324988Y-143530000D01*
X210649988Y-154900000D02*
X224259988Y-154900000D01*
X188549988Y-189750000D02*
X190999988Y-189750000D01*
X191689988Y-139440000D02*
X190999988Y-138750000D01*
X253489988Y-156530000D02*
X253489988Y-156638478D01*
X208149988Y-186400000D02*
X198033594Y-186400000D01*
X246321899Y-195067833D02*
X241679066Y-190425000D01*
X228349988Y-140100000D02*
X226999988Y-138750000D01*
X249679988Y-121750000D02*
X249679988Y-125570000D01*
X176324988Y-144325000D02*
X173674988Y-144325000D01*
X208999988Y-119250000D02*
X208149988Y-118400000D01*
X172149988Y-159800000D02*
X159679990Y-159800000D01*
X254251510Y-157400000D02*
X261109988Y-157400000D01*
X198349988Y-135400000D02*
X194309988Y-139440000D01*
X254631510Y-154420000D02*
X253489988Y-155561522D01*
X170549988Y-177650000D02*
X172999988Y-177650000D01*
X180186384Y-120900000D02*
X176324988Y-124761396D01*
X188549988Y-155750000D02*
X190999988Y-155750000D01*
X208149988Y-152400000D02*
X208999988Y-153250000D01*
X242549988Y-141350000D02*
X242549988Y-140690000D01*
X255319988Y-127440000D02*
X266219988Y-127440000D01*
X224549988Y-155190000D02*
X224549988Y-155850000D01*
X194299990Y-190440000D02*
X191689988Y-190440000D01*
X176324988Y-127325000D02*
X173674988Y-127325000D01*
X158219990Y-178340000D02*
X155689988Y-178340000D01*
X206549988Y-153250000D02*
X208999988Y-153250000D01*
X191689988Y-190440000D02*
X190999988Y-189750000D01*
X210349988Y-171600000D02*
X208999988Y-170250000D01*
X244284988Y-116650000D02*
X241299988Y-116650000D01*
X173674988Y-144325000D02*
X172999988Y-143650000D01*
X172149988Y-176800000D02*
X159759990Y-176800000D01*
X241959988Y-140100000D02*
X228349988Y-140100000D01*
X253929988Y-127440000D02*
X255319988Y-127440000D01*
X241679066Y-190425000D02*
X241679066Y-190494500D01*
X188549988Y-155190000D02*
X188549988Y-155850000D01*
X208999988Y-119250000D02*
X209689988Y-119940000D01*
X242549988Y-140690000D02*
X241959988Y-140100000D01*
X251159988Y-120270000D02*
X249679988Y-121750000D01*
X242549988Y-158250000D02*
X244999988Y-158250000D01*
X158154990Y-161325000D02*
X155674988Y-161325000D01*
X225849988Y-120600000D02*
X226999988Y-121750000D01*
X213713592Y-120600000D02*
X225849988Y-120600000D01*
X228349988Y-123100000D02*
X226999988Y-121750000D01*
X266909988Y-208294000D02*
X265684988Y-210415800D01*
X266629988Y-127440000D02*
X267899988Y-128710000D01*
X170549988Y-126650000D02*
X172999988Y-126650000D01*
X188549988Y-172667157D02*
X187782831Y-171900000D01*
X227674988Y-190425000D02*
X226999988Y-189750000D01*
X172999988Y-143650000D02*
X172149988Y-142800000D01*
X266219988Y-127440000D02*
X266629988Y-127440000D01*
X159759990Y-176800000D02*
X158219990Y-178340000D01*
X244659988Y-117025000D02*
X244284988Y-116650000D01*
X206549988Y-136250000D02*
X208999988Y-136250000D01*
X194319988Y-122430000D02*
X191679988Y-122430000D01*
X190999988Y-155750000D02*
X191674988Y-156425000D01*
X155689988Y-144340000D02*
X154999988Y-143650000D01*
X224259988Y-154900000D02*
X224549988Y-155190000D01*
X224549988Y-138750000D02*
X226999988Y-138750000D01*
X159679990Y-159800000D02*
X158154990Y-161325000D01*
X176324988Y-178325000D02*
X173674988Y-178325000D01*
X206549988Y-119250000D02*
X208999988Y-119250000D01*
X240299988Y-118090000D02*
X240759988Y-118550000D01*
X208149988Y-118400000D02*
X198349988Y-118400000D01*
X198349988Y-169400000D02*
X194319988Y-173430000D01*
X224632831Y-138750000D02*
X223482831Y-137600000D01*
X182524683Y-154900000D02*
X188259988Y-154900000D01*
X154999988Y-126650000D02*
X155674988Y-127325000D01*
X267899988Y-128710000D02*
X267899988Y-131250000D01*
X208149988Y-135400000D02*
X198349988Y-135400000D01*
X208999988Y-170250000D02*
X208149988Y-169400000D01*
X170549988Y-160650000D02*
X172999988Y-160650000D01*
X242259988Y-157400000D02*
X242549988Y-157690000D01*
X172149988Y-142800000D02*
X159849988Y-142800000D01*
X208999988Y-136250000D02*
X208149988Y-135400000D01*
X164649990Y-125800000D02*
X172149988Y-125800000D01*
X206549988Y-187250000D02*
X208999988Y-187250000D01*
X242549988Y-124250000D02*
X244999988Y-124250000D01*
X188549988Y-172850000D02*
X188549988Y-172667157D01*
X194329990Y-190103604D02*
X194329990Y-190410000D01*
X249679988Y-125570000D02*
X249679988Y-128680000D01*
X182524988Y-171900000D02*
X176324988Y-178100000D01*
X190999988Y-121750000D02*
X190149988Y-120900000D01*
X172999988Y-160650000D02*
X172149988Y-159800000D01*
X226999988Y-155750000D02*
X228649988Y-157400000D01*
X244999988Y-124250000D02*
X243849988Y-123100000D01*
X198349988Y-118400000D02*
X194319988Y-122430000D01*
X155674988Y-161325000D02*
X154999988Y-160650000D01*
X208999988Y-187250000D02*
X208149988Y-186400000D01*
X241299988Y-116650000D02*
X240499988Y-116650000D01*
X228649988Y-157400000D02*
X242259988Y-157400000D01*
X188259988Y-154900000D02*
X188549988Y-155190000D01*
X242549988Y-141250000D02*
X244999988Y-141250000D01*
X208999988Y-187250000D02*
X210349988Y-188600000D01*
X250979988Y-129980000D02*
X250979988Y-132520000D01*
X198033594Y-186400000D02*
X194329990Y-190103604D01*
X225849988Y-188600000D02*
X226999988Y-189750000D01*
X246319988Y-125570000D02*
X249679988Y-125570000D01*
X224549988Y-189750000D02*
X226999988Y-189750000D01*
X224549988Y-172190000D02*
X223959988Y-171600000D01*
X208999988Y-153250000D02*
X210649988Y-154900000D01*
X261109988Y-157400000D02*
X262409988Y-156100000D01*
X244999988Y-124250000D02*
X246319988Y-125570000D01*
X191674988Y-156425000D02*
X196464988Y-156425000D01*
X187782831Y-171900000D02*
X182524988Y-171900000D01*
X208149988Y-169400000D02*
X198349988Y-169400000D01*
X152549988Y-160650000D02*
X154999988Y-160650000D01*
X176324988Y-178100000D02*
X176324988Y-178325000D01*
X172999988Y-177650000D02*
X172149988Y-176800000D01*
X244999988Y-175250000D02*
X243209988Y-173460000D01*
X173674988Y-178325000D02*
X172999988Y-177650000D01*
X246347788Y-195592300D02*
X248714288Y-196226400D01*
X190149988Y-120900000D02*
X180186384Y-120900000D01*
X176324988Y-161099695D02*
X182524683Y-154900000D01*
X223959988Y-171600000D02*
X210349988Y-171600000D01*
X191679988Y-122430000D02*
X190999988Y-121750000D01*
%TO.N,LED_25*%
X154419988Y-178920000D02*
X156398591Y-178920000D01*
X163575294Y-178900000D02*
X163599988Y-178900000D01*
X163300293Y-178625000D02*
X163575294Y-178900000D01*
X156398591Y-178920000D02*
X156418591Y-178900000D01*
X153999988Y-178500000D02*
X153249988Y-179250000D01*
X153249988Y-179250000D02*
X152549988Y-179250000D01*
X153999988Y-178500000D02*
X154419988Y-178920000D01*
X165449988Y-177750000D02*
X164749988Y-177750000D01*
X163599988Y-178900000D02*
X163999988Y-178500000D01*
X162699683Y-178625000D02*
X163300293Y-178625000D01*
X162424683Y-178900000D02*
X162699683Y-178625000D01*
X164749988Y-177750000D02*
X163999988Y-178500000D01*
X156418591Y-178900000D02*
X162424683Y-178900000D01*
%TO.N,LED_26*%
X152549988Y-162432843D02*
X152549988Y-162250000D01*
X147449988Y-177750000D02*
X146749988Y-177750000D01*
X146749988Y-177750000D02*
X145999988Y-178500000D01*
X153999988Y-161500000D02*
X153249988Y-162250000D01*
X152539990Y-163400000D02*
X152539990Y-162442841D01*
X153249988Y-162250000D02*
X152549988Y-162250000D01*
X152539990Y-162442841D02*
X152549988Y-162432843D01*
%TO.N,LED_27*%
X153249988Y-145250000D02*
X152549988Y-145250000D01*
X146749988Y-160750000D02*
X145999988Y-161500000D01*
X153999988Y-144500000D02*
X153249988Y-145250000D01*
X147449988Y-160750000D02*
X146749988Y-160750000D01*
X152549988Y-146489998D02*
X152599990Y-146540000D01*
X152549988Y-145250000D02*
X152549988Y-146489998D01*
%TO.N,LED_28*%
X152569990Y-129259502D02*
X152569990Y-128930002D01*
X153999988Y-127500000D02*
X153249988Y-128250000D01*
X147449988Y-143750000D02*
X146749988Y-143750000D01*
X153249988Y-128250000D02*
X152549988Y-128250000D01*
X152549988Y-128910000D02*
X152549988Y-128250000D01*
X152569990Y-128930002D02*
X152549988Y-128910000D01*
X146749988Y-143750000D02*
X145999988Y-144500000D01*
%TO.N,LED_29*%
X146749988Y-126750000D02*
X145999988Y-127500000D01*
X147449988Y-126750000D02*
X146749988Y-126750000D01*
%TO.N,LED_24*%
X165449988Y-160750000D02*
X164749988Y-160750000D01*
X171999988Y-178500000D02*
X171249988Y-179250000D01*
X171249988Y-179250000D02*
X170549988Y-179250000D01*
X164749988Y-160750000D02*
X163999988Y-161500000D01*
%TO.N,LED_23*%
X171999988Y-161500000D02*
X171249988Y-162250000D01*
X171249988Y-162250000D02*
X170549988Y-162250000D01*
X164749988Y-143750000D02*
X163999988Y-144500000D01*
X165449988Y-143750000D02*
X164749988Y-143750000D01*
%TO.N,LED_22*%
X171999988Y-144500000D02*
X171249988Y-145250000D01*
X171249988Y-145250000D02*
X170549988Y-145250000D01*
X164749988Y-126750000D02*
X163999988Y-127500000D01*
X165449988Y-126750000D02*
X164749988Y-126750000D01*
%TO.N,LED_21*%
X176774988Y-126649695D02*
X176774988Y-127535002D01*
X181999988Y-122600000D02*
X180824683Y-122600000D01*
X172274988Y-127775000D02*
X171999988Y-127500000D01*
X180824683Y-122600000D02*
X176774988Y-126649695D01*
X171999988Y-127500000D02*
X171249988Y-128250000D01*
X176774988Y-127535002D02*
X176534990Y-127775000D01*
X182749988Y-121850000D02*
X181999988Y-122600000D01*
X171249988Y-128250000D02*
X170549988Y-128250000D01*
X183449988Y-121850000D02*
X182749988Y-121850000D01*
X176534990Y-127775000D02*
X172274988Y-127775000D01*
%TO.N,LED_16*%
X189249988Y-191350000D02*
X188549988Y-191350000D01*
X194779990Y-190596396D02*
X194779990Y-190290000D01*
X197719990Y-187350000D02*
X201449988Y-187350000D01*
X201449988Y-187350000D02*
X200749988Y-187350000D01*
X189999988Y-190600000D02*
X189249988Y-191350000D01*
X200749988Y-187350000D02*
X199999988Y-188100000D01*
X194779990Y-190290000D02*
X197719990Y-187350000D01*
X190289988Y-190890000D02*
X194486386Y-190890000D01*
X189999988Y-190600000D02*
X190289988Y-190890000D01*
X194486386Y-190890000D02*
X194779990Y-190596396D01*
%TO.N,LED_17*%
X188599990Y-175060002D02*
X188549988Y-175010000D01*
X182749988Y-189850000D02*
X181999988Y-190600000D01*
X189999988Y-173600000D02*
X189249988Y-174350000D01*
X188549988Y-175010000D02*
X188549988Y-174350000D01*
X188599990Y-175359502D02*
X188599990Y-175060002D01*
X183449988Y-189850000D02*
X182749988Y-189850000D01*
X189249988Y-174350000D02*
X188549988Y-174350000D01*
%TO.N,LED_18*%
X183449988Y-172850000D02*
X182749988Y-172850000D01*
X188539990Y-157542841D02*
X188549988Y-157532843D01*
X188549988Y-157532843D02*
X188549988Y-157350000D01*
X189999988Y-156600000D02*
X189249988Y-157350000D01*
X189249988Y-157350000D02*
X188549988Y-157350000D01*
X182749988Y-172850000D02*
X181999988Y-173600000D01*
X188539990Y-158359502D02*
X188539990Y-157542841D01*
%TO.N,LED_19*%
X189999988Y-139600000D02*
X189249988Y-140350000D01*
X188629990Y-141090002D02*
X188549988Y-141010000D01*
X188549988Y-141010000D02*
X188549988Y-140350000D01*
X183449988Y-155850000D02*
X182749988Y-155850000D01*
X189249988Y-140350000D02*
X188549988Y-140350000D01*
X182749988Y-155850000D02*
X181999988Y-156600000D01*
X188629990Y-141359502D02*
X188629990Y-141090002D01*
%TO.N,LED_20*%
X189999988Y-122600000D02*
X189249988Y-123350000D01*
X188549988Y-123350000D02*
X189339990Y-123350000D01*
X189339990Y-123350000D02*
X190229990Y-124240000D01*
X182749988Y-138850000D02*
X181999988Y-139600000D01*
X183449988Y-138850000D02*
X182749988Y-138850000D01*
X189249988Y-123350000D02*
X188549988Y-123350000D01*
%TO.N,LED_15*%
X200749988Y-170350000D02*
X199999988Y-171100000D01*
X201449988Y-170350000D02*
X200749988Y-170350000D01*
X207999988Y-188100000D02*
X207249988Y-188850000D01*
X207249988Y-188850000D02*
X206549988Y-188850000D01*
%TO.N,LED_14*%
X201449988Y-153350000D02*
X200749988Y-153350000D01*
X207249988Y-171850000D02*
X206549988Y-171850000D01*
X200749988Y-153350000D02*
X199999988Y-154100000D01*
X207999988Y-171100000D02*
X207249988Y-171850000D01*
%TO.N,LED_13*%
X207999988Y-154100000D02*
X207249988Y-154850000D01*
X207249988Y-154850000D02*
X206549988Y-154850000D01*
X201449988Y-136350000D02*
X200749988Y-136350000D01*
X200749988Y-136350000D02*
X199999988Y-137100000D01*
%TO.N,LED_12*%
X201449988Y-119350000D02*
X200749988Y-119350000D01*
X207249988Y-137850000D02*
X206549988Y-137850000D01*
X207999988Y-137100000D02*
X207249988Y-137850000D01*
X200749988Y-119350000D02*
X199999988Y-120100000D01*
%TO.N,LED_11*%
X218824988Y-121225000D02*
X209124988Y-121225000D01*
X207999988Y-120100000D02*
X207249988Y-120850000D01*
X219449988Y-121850000D02*
X218824988Y-121225000D01*
X207249988Y-120850000D02*
X206549988Y-120850000D01*
X209124988Y-121225000D02*
X207999988Y-120100000D01*
X219449988Y-121850000D02*
X218749988Y-121850000D01*
X218749988Y-121850000D02*
X217999988Y-122600000D01*
%TO.N,LED_6*%
X227109988Y-191710000D02*
X225999988Y-190600000D01*
X238736776Y-191710000D02*
X227109988Y-191710000D01*
X225999988Y-190600000D02*
X225249988Y-191350000D01*
X225249988Y-191350000D02*
X224549988Y-191350000D01*
X241395677Y-194368901D02*
X238736776Y-191710000D01*
X240719488Y-194187700D02*
X239800988Y-194718100D01*
X241395688Y-194368900D02*
X240719488Y-194187700D01*
%TO.N,LED_7*%
X224549988Y-175329998D02*
X224629990Y-175410000D01*
X225249988Y-174350000D02*
X225999988Y-173600000D01*
X224549988Y-174350000D02*
X224549988Y-175329998D01*
X219449988Y-189850000D02*
X218749988Y-189850000D01*
X218749988Y-189850000D02*
X217999988Y-190600000D01*
X224549988Y-174350000D02*
X225249988Y-174350000D01*
%TO.N,LED_8*%
X218749988Y-172850000D02*
X217999988Y-173600000D01*
X224549988Y-158419998D02*
X224569990Y-158440000D01*
X225999988Y-156600000D02*
X225249988Y-157350000D01*
X224549988Y-157350000D02*
X224549988Y-158419998D01*
X225249988Y-157350000D02*
X224549988Y-157350000D01*
X219449988Y-172850000D02*
X218749988Y-172850000D01*
%TO.N,LED_9*%
X225249988Y-140350000D02*
X224549988Y-140350000D01*
X225849990Y-141265500D02*
X225465488Y-141265500D01*
X225999988Y-139600000D02*
X225249988Y-140350000D01*
X225465488Y-141265500D02*
X224549988Y-140350000D01*
X218749988Y-155850000D02*
X217999988Y-156600000D01*
X219449988Y-155850000D02*
X218749988Y-155850000D01*
%TO.N,LED_10*%
X219449988Y-138850000D02*
X218749988Y-138850000D01*
X218749988Y-138850000D02*
X217999988Y-139600000D01*
X225999988Y-122600000D02*
X225249988Y-123350000D01*
X225249988Y-123350000D02*
X224549988Y-123350000D01*
X224549988Y-124999998D02*
X224549988Y-123350000D01*
%TO.N,LED_3*%
X237449988Y-158350000D02*
X236749988Y-158350000D01*
X243249988Y-176850000D02*
X242549988Y-176850000D01*
X236749988Y-158350000D02*
X235999988Y-159100000D01*
X243999988Y-176100000D02*
X243249988Y-176850000D01*
%TO.N,LED_4*%
X265448788Y-209124800D02*
X265174288Y-208100200D01*
X265174288Y-208100200D02*
X265524288Y-207494000D01*
X236749988Y-175350000D02*
X235999988Y-176100000D01*
X237449988Y-175350000D02*
X236749988Y-175350000D01*
%TO.N,LED_2*%
X243249988Y-159850000D02*
X242549988Y-159850000D01*
X237449988Y-141350000D02*
X236749988Y-141350000D01*
X236749988Y-141350000D02*
X235999988Y-142100000D01*
X243999988Y-159100000D02*
X243249988Y-159850000D01*
%TO.N,LED_1*%
X237449988Y-124350000D02*
X236749988Y-124350000D01*
X243999988Y-142100000D02*
X243249988Y-142850000D01*
X243249988Y-142850000D02*
X242549988Y-142850000D01*
X236749988Y-124350000D02*
X235999988Y-125100000D01*
%TO.N,LED_START_5V*%
X243999988Y-125100000D02*
X243249988Y-125850000D01*
X238699988Y-116650000D02*
X239009988Y-116650000D01*
X243249988Y-125850000D02*
X242549988Y-125850000D01*
X237824988Y-117525000D02*
X237824988Y-119175000D01*
X238699988Y-116650000D02*
X237824988Y-117525000D01*
X238319092Y-119669104D02*
X238469988Y-119669104D01*
X239009988Y-116650000D02*
X239849988Y-115810000D01*
X237824988Y-119175000D02*
X238319092Y-119669104D01*
%TO.N,LED_5*%
X246609788Y-197318900D02*
X245933688Y-197137800D01*
X263424245Y-212994255D02*
X261437849Y-212994255D01*
X267929990Y-208520000D02*
X267929990Y-212255303D01*
X247729616Y-196989828D02*
X247528388Y-196788600D01*
X251439621Y-199729633D02*
X248699816Y-196989828D01*
X264469990Y-214040000D02*
X263424245Y-212994255D01*
X270059990Y-205070000D02*
X270059990Y-206390000D01*
X270059990Y-206390000D02*
X267929990Y-208520000D01*
X269373350Y-203827302D02*
X270119990Y-204573942D01*
X270119990Y-205010000D02*
X270059990Y-205070000D01*
X251439621Y-207322709D02*
X251439621Y-199729633D01*
X247528388Y-196788600D02*
X246609788Y-197318900D01*
X259696454Y-211252860D02*
X255369772Y-211252860D01*
X270119990Y-204573942D02*
X270119990Y-205010000D01*
X269373388Y-203827300D02*
X269723388Y-203221100D01*
X248699816Y-196989828D02*
X247729616Y-196989828D01*
X269723388Y-203221100D02*
X269448788Y-202196600D01*
X261437849Y-212994255D02*
X259696454Y-211252860D01*
X266145293Y-214040000D02*
X264469990Y-214040000D01*
X267929990Y-212255303D02*
X266145293Y-214040000D01*
X255369772Y-211252860D02*
X251439621Y-207322709D01*
%TO.N,RBottom*%
X211399988Y-168650000D02*
X211399988Y-170150000D01*
X211399988Y-168650000D02*
X213899988Y-171150000D01*
X175399988Y-176050000D02*
X180299988Y-171150000D01*
X157399988Y-176050000D02*
X175399988Y-176050000D01*
X267899988Y-141410000D02*
X254585488Y-141410000D01*
X193399988Y-171150000D02*
X195899988Y-168650000D01*
X229399988Y-171150000D02*
X229399988Y-172650000D01*
X247399988Y-173650000D02*
X247399988Y-175150000D01*
X175399988Y-176050000D02*
X175399988Y-177550000D01*
X180299988Y-171150000D02*
X193399988Y-171150000D01*
X195899988Y-168650000D02*
X211399988Y-168650000D01*
X229679988Y-171430000D02*
X245179988Y-171430000D01*
X213899988Y-171150000D02*
X229399988Y-171150000D01*
X254585488Y-141410000D02*
X254135037Y-141860451D01*
X229399988Y-171150000D02*
X229679988Y-171430000D01*
X245179988Y-171430000D02*
X247399988Y-173650000D01*
X157399988Y-176050000D02*
X157399988Y-177550000D01*
X193399988Y-171150000D02*
X193399988Y-172650000D01*
%TO.N,RHome*%
X175929988Y-159050000D02*
X175399988Y-159050000D01*
X195899988Y-151650000D02*
X193399988Y-154150000D01*
X175399988Y-159050000D02*
X157399988Y-159050000D01*
X180829988Y-154150000D02*
X175929988Y-159050000D01*
X267899988Y-138870000D02*
X254643686Y-138870000D01*
X175399988Y-159050000D02*
X175399988Y-160550000D01*
X247399988Y-156650000D02*
X231899988Y-156650000D01*
X231899988Y-156650000D02*
X229399988Y-154150000D01*
X157399988Y-159050000D02*
X157399988Y-160550000D01*
X229399988Y-154150000D02*
X213899988Y-154150000D01*
X193399988Y-154150000D02*
X193399988Y-155650000D01*
X254643686Y-138870000D02*
X254164136Y-139349550D01*
X213899988Y-154150000D02*
X211399988Y-151650000D01*
X229399988Y-154150000D02*
X229399988Y-155650000D01*
X247399988Y-156650000D02*
X247399988Y-158150000D01*
X193399988Y-154150000D02*
X180829988Y-154150000D01*
X211399988Y-151650000D02*
X211399988Y-153150000D01*
X211399988Y-151650000D02*
X195899988Y-151650000D01*
%TO.N,RTop*%
X195899988Y-134650000D02*
X211399988Y-134650000D01*
X193399988Y-137150000D02*
X193399988Y-138650000D01*
X229399988Y-137150000D02*
X229399988Y-138650000D01*
X175399988Y-142050000D02*
X175399988Y-143550000D01*
X157399988Y-142050000D02*
X157399988Y-143550000D01*
X229399988Y-137150000D02*
X231899988Y-139650000D01*
X267899988Y-136330000D02*
X254749988Y-136330000D01*
X193399988Y-137150000D02*
X195899988Y-134650000D01*
X213899988Y-137150000D02*
X229399988Y-137150000D01*
X231899988Y-139650000D02*
X247399988Y-139650000D01*
X247399988Y-139650000D02*
X247399988Y-141150000D01*
X249449988Y-137600000D02*
X250979988Y-137600000D01*
X157399988Y-142050000D02*
X175399988Y-142050000D01*
X247399988Y-139650000D02*
X249449988Y-137600000D01*
X211399988Y-134650000D02*
X211399988Y-136150000D01*
X254749988Y-136330000D02*
X254217287Y-136862701D01*
X211399988Y-134650000D02*
X213899988Y-137150000D01*
X175399988Y-142050000D02*
X180299988Y-137150000D01*
X180299988Y-137150000D02*
X193399988Y-137150000D01*
%TO.N,RNum*%
X193399988Y-120150000D02*
X195899988Y-117650000D01*
X175399988Y-125050000D02*
X180299988Y-120150000D01*
X259449488Y-133885000D02*
X254692788Y-133885000D01*
X211399988Y-117650000D02*
X211399988Y-119150000D01*
X229399988Y-120150000D02*
X229399988Y-121650000D01*
X157399988Y-125050000D02*
X175399988Y-125050000D01*
X247399988Y-122650000D02*
X247399988Y-124150000D01*
X267804988Y-133885000D02*
X267899988Y-133790000D01*
X180299988Y-120150000D02*
X193399988Y-120150000D01*
X175399988Y-125050000D02*
X175399988Y-126550000D01*
X193399988Y-120150000D02*
X193399988Y-121650000D01*
X247399988Y-122650000D02*
X231899988Y-122650000D01*
X229399988Y-120150000D02*
X213899988Y-120150000D01*
X157399988Y-125050000D02*
X157399988Y-126550000D01*
X213899988Y-120150000D02*
X211399988Y-117650000D01*
X195899988Y-117650000D02*
X211399988Y-117650000D01*
X254692788Y-133885000D02*
X254242288Y-134335500D01*
X231899988Y-122650000D02*
X229399988Y-120150000D01*
X259449488Y-133885000D02*
X267804988Y-133885000D01*
%TO.N,RMod*%
X256576288Y-143950000D02*
X254947788Y-143950000D01*
X254947788Y-143950000D02*
X254402288Y-144495500D01*
X213899988Y-188150000D02*
X229399988Y-188150000D01*
X231019988Y-189770000D02*
X229399988Y-188150000D01*
X255556168Y-210802860D02*
X259882850Y-210802860D01*
X256369988Y-190044500D02*
X256095488Y-189770000D01*
X193399988Y-188150000D02*
X195899988Y-185650000D01*
X251589988Y-194824500D02*
X254065788Y-192348700D01*
X211399988Y-185650000D02*
X213899988Y-188150000D01*
X254065788Y-192348700D02*
X254065788Y-209312480D01*
X251589988Y-194990000D02*
X251589988Y-194824500D01*
X195899988Y-185650000D02*
X211399988Y-185650000D01*
X254065788Y-209312480D02*
X255556168Y-210802860D01*
X229399988Y-188150000D02*
X229399988Y-189650000D01*
X251589988Y-194990000D02*
X251589988Y-196219380D01*
X256369988Y-190044500D02*
X254065788Y-192348700D01*
X261624245Y-212544255D02*
X264571555Y-212544255D01*
X193399988Y-188150000D02*
X193399988Y-189650000D01*
X256095488Y-189770000D02*
X231019988Y-189770000D01*
X259882850Y-210802860D02*
X261624245Y-212544255D01*
X267899988Y-143950000D02*
X256576288Y-143950000D01*
X251589988Y-196219380D02*
X251058403Y-196750965D01*
X211399988Y-185650000D02*
X211399988Y-187150000D01*
X265869988Y-213290000D02*
X264569988Y-212540000D01*
%TO.N,RST*%
X253929988Y-129980000D02*
X266219988Y-129980000D01*
X252659988Y-128710000D02*
X253929988Y-129980000D01*
%TO.N,3V3*%
X258599988Y-154420000D02*
X258599988Y-154830000D01*
X252659988Y-131250000D02*
X253929988Y-132520000D01*
X258599988Y-154830000D02*
X259869988Y-156100000D01*
X253929988Y-132520000D02*
X266219988Y-132520000D01*
%TO.N,P0*%
X267899988Y-123630000D02*
X254852787Y-123630000D01*
X254852787Y-123630000D02*
X254307287Y-124175500D01*
%TO.N,P1*%
X254168160Y-126865000D02*
X254234988Y-126865000D01*
X254234988Y-126865000D02*
X254929988Y-126170000D01*
X254929988Y-126170000D02*
X267899988Y-126170000D01*
X254307288Y-126590500D02*
X254113186Y-126784602D01*
X254113186Y-126810026D02*
X254168160Y-126865000D01*
X254113186Y-126784602D02*
X254113186Y-126810026D01*
%TO.N,LED_START_3V3*%
X243709990Y-117800000D02*
X241499988Y-117800000D01*
X241499988Y-117800000D02*
X241299988Y-117600000D01*
X254739988Y-146490000D02*
X254212287Y-147017701D01*
X267899988Y-146490000D02*
X254739988Y-146490000D01*
%TO.N,TRS_DATA*%
X267899988Y-149030000D02*
X269074988Y-150205000D01*
X267899988Y-149030000D02*
X254842787Y-149030000D01*
X254842787Y-149030000D02*
X254297287Y-149575500D01*
X269074988Y-154725000D02*
X256799988Y-167000000D01*
X269074988Y-150205000D02*
X269074988Y-154725000D01*
%TO.N,P9*%
X254635488Y-151570000D02*
X254160038Y-152045450D01*
X267899988Y-151570000D02*
X254635488Y-151570000D01*
%TO.N,P10*%
X267899988Y-121090000D02*
X267889988Y-121080000D01*
X267889988Y-121080000D02*
X254558558Y-121080000D01*
X254558558Y-121080000D02*
X254116572Y-121521986D01*
%TO.N,OLED_SDA*%
X263679988Y-156491701D02*
X263679988Y-154420000D01*
X260911689Y-159260000D02*
X263679988Y-156491701D01*
X254789988Y-159260000D02*
X260911689Y-159260000D01*
X260119990Y-147760000D02*
X266219988Y-147760000D01*
X253929988Y-147760000D02*
X252659988Y-146490000D01*
X260119990Y-147760000D02*
X253929988Y-147760000D01*
%TO.N,OLED_SCL*%
X252659988Y-151570000D02*
X253860438Y-152770450D01*
X254460343Y-152770450D02*
X255210793Y-152020000D01*
X261139988Y-152840000D02*
X261139988Y-152020000D01*
X261139988Y-152020000D02*
X265399988Y-152020000D01*
X257329988Y-152020000D02*
X257329988Y-156100000D01*
X265399988Y-152020000D02*
X266219988Y-152840000D01*
X253860438Y-152770450D02*
X254460343Y-152770450D01*
X261139988Y-154420000D02*
X261139988Y-152840000D01*
X255210793Y-152020000D02*
X257329988Y-152020000D01*
X257329988Y-152020000D02*
X261139988Y-152020000D01*
%TO.N,P23*%
X253929988Y-150300000D02*
X266219988Y-150300000D01*
X252659988Y-149030000D02*
X253929988Y-150300000D01*
%TD*%
M02*
