M48
; DRILL file {KiCad 7.0.7} date 2023 October 16, Monday 17:22:35
; FORMAT={-:-/ absolute / inch / decimal}
; #@! TF.CreationDate,2023-10-16T17:22:35-07:00
; #@! TF.GenerationSoftware,Kicad,Pcbnew,7.0.7
; #@! TF.FileFunction,Plated,1,2,PTH
FMAT,2
INCH
; #@! TA.AperFunction,Plated,PTH,ViaDrill
T1C0.0157
; #@! TA.AperFunction,Plated,PTH,ComponentDrill
T2C0.0354
; #@! TA.AperFunction,Plated,PTH,ComponentDrill
T3C0.0394
%
G90
G05
T1
X5.6535Y-5.2697
X5.6535Y-5.939
X5.6535Y-6.6083
X5.6535Y-7.2776
X5.7087Y-5.0531
X5.7087Y-5.7224
X5.7087Y-6.3917
X5.7087Y-7.061
X5.748Y-5.0197
X5.748Y-5.689
X5.748Y-6.3583
X5.748Y-7.0276
X5.8626Y-5.3453
X5.8626Y-6.0146
X5.8626Y-6.6839
X5.8626Y-7.3531
X6.0055Y-6.4331
X6.0067Y-5.089
X6.0079Y-5.7693
X6.063Y-5.0197
X6.063Y-5.689
X6.063Y-6.3583
X6.063Y-7.0276
X6.1024Y-4.9862
X6.1024Y-5.6555
X6.1024Y-6.3248
X6.1024Y-6.9941
X6.1602Y-4.8465
X6.1968Y-4.9232
X6.1968Y-5.1713
X6.1968Y-5.5925
X6.1968Y-5.8406
X6.1968Y-6.2618
X6.1968Y-6.5098
X6.1968Y-6.9311
X6.1968Y-7.1791
X6.3622Y-5.2697
X6.3622Y-5.939
X6.3622Y-6.6083
X6.3622Y-7.2776
X6.4173Y-5.0531
X6.4173Y-5.7224
X6.4173Y-6.3917
X6.4173Y-7.061
X6.4567Y-5.0197
X6.4567Y-5.689
X6.4567Y-6.3583
X6.4567Y-7.0276
X6.5713Y-5.3453
X6.5713Y-6.0146
X6.5713Y-6.6839
X6.5713Y-7.3531
X6.7717Y-5.0197
X6.7717Y-5.689
X6.7717Y-6.3583
X6.7717Y-7.0276
X6.811Y-4.9862
X6.811Y-5.6555
X6.811Y-6.3248
X6.811Y-6.9941
X6.8528Y-4.8827
X6.9055Y-4.9232
X6.9055Y-5.1713
X6.9055Y-5.5925
X6.9055Y-5.8406
X6.9055Y-6.2618
X6.9055Y-6.5098
X6.9055Y-6.9311
X6.9055Y-7.1791
X7.0709Y-5.0768
X7.0709Y-5.7461
X7.0709Y-6.4154
X7.0709Y-7.0846
X7.0709Y-7.7539
X7.126Y-4.8602
X7.126Y-5.5295
X7.126Y-6.1988
X7.126Y-6.8681
X7.126Y-7.5374
X7.1654Y-4.8268
X7.1654Y-5.4961
X7.1654Y-6.1654
X7.1654Y-6.8346
X7.1654Y-7.5039
X7.2799Y-5.1524
X7.2799Y-5.8217
X7.2799Y-6.4909
X7.2799Y-7.1602
X7.2799Y-7.8295
X7.4228Y-6.2346
X7.4252Y-6.9039
X7.4264Y-5.5653
X7.4803Y-4.8268
X7.4803Y-5.4961
X7.4803Y-6.1654
X7.4803Y-6.8346
X7.4803Y-7.5039
X7.4894Y-4.8913
X7.5197Y-4.7933
X7.5197Y-5.4626
X7.5197Y-6.1319
X7.5197Y-6.8012
X7.5197Y-7.4705
X7.5748Y-4.5681
X7.6142Y-4.7303
X7.6142Y-4.9783
X7.6142Y-5.3996
X7.6142Y-5.6476
X7.6142Y-6.0689
X7.6142Y-6.3169
X7.6142Y-6.7382
X7.6142Y-6.9862
X7.6142Y-7.4075
X7.6142Y-7.6555
X7.7795Y-4.9783
X7.7795Y-5.6476
X7.7795Y-6.3169
X7.7795Y-6.9862
X7.7795Y-7.6555
X7.8346Y-4.7618
X7.8346Y-5.4311
X7.8346Y-6.1004
X7.8346Y-6.7697
X7.8346Y-7.439
X7.874Y-4.7283
X7.874Y-5.3976
X7.874Y-6.0669
X7.874Y-6.7362
X7.874Y-7.4055
X7.9886Y-5.0539
X7.9886Y-5.7232
X7.9886Y-6.3925
X7.9886Y-7.0618
X7.9886Y-7.7311
X8.189Y-4.7283
X8.189Y-5.3976
X8.189Y-6.0669
X8.189Y-6.7362
X8.189Y-7.4055
X8.2283Y-4.6949
X8.2283Y-5.3642
X8.2283Y-6.0335
X8.2283Y-6.7028
X8.2283Y-7.372
X8.285Y-4.5941
X8.3228Y-4.6319
X8.3228Y-4.8799
X8.3228Y-5.3012
X8.3228Y-5.5492
X8.3228Y-5.9705
X8.3228Y-6.2185
X8.3228Y-6.6398
X8.3228Y-6.8878
X8.3228Y-7.3091
X8.3228Y-7.5571
X8.4882Y-5.0768
X8.4882Y-5.7461
X8.4882Y-6.4154
X8.4882Y-7.0846
X8.4882Y-7.7539
X8.5433Y-4.8602
X8.5433Y-5.5295
X8.5433Y-6.1988
X8.5433Y-6.8681
X8.5433Y-7.5374
X8.5827Y-4.8268
X8.5827Y-5.4961
X8.5827Y-6.1654
X8.5827Y-6.8346
X8.5827Y-7.5039
X8.6972Y-5.1524
X8.6972Y-5.8217
X8.6972Y-6.4909
X8.6972Y-7.1602
X8.6972Y-7.8295
X8.8406Y-4.9213
X8.8413Y-6.2378
X8.8437Y-6.9059
X8.8917Y-5.5616
X8.8976Y-4.8268
X8.8976Y-5.4961
X8.8976Y-6.1654
X8.8976Y-6.8346
X8.8976Y-7.5039
X8.937Y-4.7933
X8.937Y-5.4626
X8.937Y-6.1319
X8.937Y-6.8012
X8.937Y-7.4705
X8.9866Y-4.7018
X9.0315Y-4.7303
X9.0315Y-4.9783
X9.0315Y-5.3996
X9.0315Y-5.6476
X9.0315Y-6.0689
X9.0315Y-6.3169
X9.0315Y-6.7382
X9.0315Y-6.9862
X9.0315Y-7.4075
X9.0315Y-7.6555
X9.1968Y-5.1752
X9.1968Y-5.8445
X9.1968Y-6.5138
X9.1968Y-7.1831
X9.252Y-4.9587
X9.252Y-5.628
X9.252Y-6.2972
X9.252Y-6.9665
X9.285Y-7.8835
X9.2913Y-4.9252
X9.2913Y-5.5945
X9.2913Y-6.2638
X9.2913Y-6.9331
X9.3886Y-4.7114
X9.3943Y-7.6882
X9.4059Y-5.2508
X9.4059Y-5.9201
X9.4059Y-6.5894
X9.4059Y-7.2587
X9.441Y-7.6661
X9.4429Y-4.5594
X9.4673Y-8.0102
X9.5149Y-7.4998
X9.5949Y-4.6378
X9.6063Y-4.9252
X9.6063Y-5.5945
X9.6063Y-6.2638
X9.6063Y-6.9331
X9.6272Y-4.6695
X9.6323Y-4.6073
X9.6457Y-4.8917
X9.6457Y-5.561
X9.6457Y-6.2303
X9.6457Y-6.8996
X9.7402Y-4.8287
X9.7402Y-5.0768
X9.7402Y-5.498
X9.7402Y-5.7461
X9.7402Y-6.1673
X9.7402Y-6.4154
X9.7402Y-6.8366
X9.7402Y-7.0846
X9.7452Y-7.7476
X9.7919Y-7.7254
X9.8354Y-7.9287
X9.8882Y-4.735
X9.9051Y-7.6768
X10.0046Y-4.7843
X10.0053Y-5.5851
X10.0063Y-5.986
X10.0065Y-5.4862
X10.0084Y-5.7881
X10.0086Y-5.3883
X10.0095Y-5.2888
X10.0117Y-5.8888
X10.0121Y-4.8888
X10.0121Y-4.9839
X10.0158Y-5.6888
X10.0311Y-6.2701
X10.052Y-5.0173
X10.0729Y-5.5673
X10.0933Y-7.4821
X10.1014Y-5.6673
X10.1421Y-4.9223
X10.1811Y-5.2193
X10.2145Y-5.2711
X10.2409Y-5.8173
X10.2425Y-5.7673
X10.2524Y-8.2732
X10.2693Y-7.8969
X10.2839Y-5.0173
X10.3319Y-4.9223
X10.439Y-7.7535
X10.4507Y-8.2333
X10.46Y-8.2841
X10.4673Y-8.3972
X10.5935Y-4.9146
X10.5989Y-7.9097
X10.6082Y-7.9605
X10.6105Y-4.6997
X10.622Y-4.8518
X10.6392Y-4.7276
X10.6681Y-4.6799
T3
X9.8811Y-4.8173
X9.8811Y-4.9173
X9.8811Y-5.0173
X9.8811Y-5.1173
X9.8811Y-5.2173
X9.8811Y-5.3173
X9.8811Y-5.4173
X9.8811Y-5.5173
X9.8811Y-5.6173
X9.8811Y-5.7173
X9.8811Y-5.8173
X9.8811Y-5.9173
X9.8811Y-6.0173
X9.9472Y-4.7673
X9.9472Y-4.8673
X9.9472Y-4.9673
X9.9472Y-5.0673
X9.9472Y-5.1673
X9.9472Y-5.2673
X9.9472Y-5.3673
X9.9472Y-5.4673
X9.9472Y-5.5673
X9.9472Y-5.6673
X9.9472Y-5.7673
X9.9472Y-5.8673
X9.9472Y-5.9673
X10.0311Y-6.1457
X10.0811Y-6.0795
X10.1311Y-6.1457
X10.1811Y-6.0795
X10.2311Y-6.1457
X10.2811Y-6.0795
X10.3311Y-6.1457
X10.3811Y-6.0795
X10.4811Y-4.8173
X10.4811Y-4.9173
X10.4811Y-5.0173
X10.4811Y-5.1173
X10.4811Y-5.2173
X10.4811Y-5.3173
X10.4811Y-5.4173
X10.4811Y-5.5173
X10.4811Y-5.6173
X10.4811Y-5.7173
X10.4811Y-5.8173
X10.4811Y-5.9173
X10.4811Y-6.0173
X10.5472Y-4.7673
X10.5472Y-4.8673
X10.5472Y-4.9673
X10.5472Y-5.0673
X10.5472Y-5.1673
X10.5472Y-5.2673
X10.5472Y-5.3673
X10.5472Y-5.4673
X10.5472Y-5.5673
X10.5472Y-5.6673
X10.5472Y-5.7673
X10.5472Y-5.8673
X10.5472Y-5.9673
T2
G00X10.0787Y-6.5748
M15
G01X10.0551Y-6.5748
M16
G05
G00X10.0787Y-6.7559
M15
G01X10.0551Y-6.7559
M16
G05
G00X10.122Y-6.5748
M15
G01X10.0984Y-6.5748
M16
G05
G00X10.122Y-6.7559
M15
G01X10.0984Y-6.7559
M16
G05
G00X10.2795Y-6.5748
M15
G01X10.2559Y-6.5748
M16
G05
G00X10.2795Y-6.7559
M15
G01X10.2559Y-6.7559
M16
G05
G00X10.3976Y-6.5748
M15
G01X10.374Y-6.5748
M16
G05
G00X10.3976Y-6.7559
M15
G01X10.374Y-6.7559
M16
G05
T0
M30
