%TF.GenerationSoftware,KiCad,Pcbnew,7.0.7*%
%TF.CreationDate,2023-10-16T17:22:34-07:00*%
%TF.ProjectId,main_pcb,6d61696e-5f70-4636-922e-6b696361645f,v1.0.0*%
%TF.SameCoordinates,Original*%
%TF.FileFunction,Copper,L2,Bot*%
%TF.FilePolarity,Positive*%
%FSLAX46Y46*%
G04 Gerber Fmt 4.6, Leading zero omitted, Abs format (unit mm)*
G04 Created by KiCad (PCBNEW 7.0.7) date 2023-10-16 17:22:34*
%MOMM*%
%LPD*%
G01*
G04 APERTURE LIST*
G04 Aperture macros list*
%AMRotRect*
0 Rectangle, with rotation*
0 The origin of the aperture is its center*
0 $1 length*
0 $2 width*
0 $3 Rotation angle, in degrees counterclockwise*
0 Add horizontal line*
21,1,$1,$2,0,0,$3*%
G04 Aperture macros list end*
%TA.AperFunction,SMDPad,CuDef*%
%ADD10R,1.700000X0.820000*%
%TD*%
%TA.AperFunction,SMDPad,CuDef*%
%ADD11RotRect,1.700000X0.820000X345.000000*%
%TD*%
%TA.AperFunction,SMDPad,CuDef*%
%ADD12R,2.600000X2.600000*%
%TD*%
%TA.AperFunction,SMDPad,CuDef*%
%ADD13RotRect,1.700000X0.820000X240.000000*%
%TD*%
%TA.AperFunction,ComponentPad*%
%ADD14O,2.200000X1.600000*%
%TD*%
%TA.AperFunction,ComponentPad*%
%ADD15C,1.700000*%
%TD*%
%TA.AperFunction,SMDPad,CuDef*%
%ADD16RotRect,2.600000X2.600000X165.000000*%
%TD*%
%TA.AperFunction,SMDPad,CuDef*%
%ADD17R,1.100000X0.600000*%
%TD*%
%TA.AperFunction,SMDPad,CuDef*%
%ADD18RotRect,2.600000X2.600000X60.000000*%
%TD*%
%TA.AperFunction,SMDPad,CuDef*%
%ADD19R,1.200000X0.900000*%
%TD*%
%TA.AperFunction,SMDPad,CuDef*%
%ADD20RotRect,0.900000X1.200000X150.000000*%
%TD*%
%TA.AperFunction,SMDPad,CuDef*%
%ADD21RotRect,0.900000X1.200000X255.000000*%
%TD*%
%TA.AperFunction,ViaPad*%
%ADD22C,0.800000*%
%TD*%
%TA.AperFunction,Conductor*%
%ADD23C,0.250000*%
%TD*%
G04 APERTURE END LIST*
D10*
%TO.P,_23,DIN*%
%TO.N,LED_10*%
X224549988Y-121850000D03*
%TO.P,_23,DOUT*%
%TO.N,LED_11*%
X219449988Y-123350000D03*
%TO.P,_23,GND*%
%TO.N,GND*%
X224549988Y-123350000D03*
%TO.P,_23,VDD*%
%TO.N,RAW*%
X219449988Y-121850000D03*
%TD*%
%TO.P,_17,DIN*%
%TO.N,LED_12*%
X206549988Y-136350000D03*
%TO.P,_17,DOUT*%
%TO.N,LED_13*%
X201449988Y-137850000D03*
%TO.P,_17,GND*%
%TO.N,GND*%
X206549988Y-137850000D03*
%TO.P,_17,VDD*%
%TO.N,RAW*%
X201449988Y-136350000D03*
%TD*%
D11*
%TO.P,_28,DIN*%
%TO.N,LED_5*%
X246321899Y-195688878D03*
%TO.P,_28,DOUT*%
%TO.N,LED_6*%
X241007449Y-195817790D03*
%TO.P,_28,GND*%
%TO.N,GND*%
X245933671Y-197137767D03*
%TO.P,_28,VDD*%
%TO.N,RAW*%
X241395677Y-194368901D03*
%TD*%
D10*
%TO.P,_25,DIN*%
%TO.N,LED_2*%
X242549988Y-158350000D03*
%TO.P,_25,DOUT*%
%TO.N,LED_3*%
X237449988Y-159850000D03*
%TO.P,_25,GND*%
%TO.N,GND*%
X242549988Y-159850000D03*
%TO.P,_25,VDD*%
%TO.N,RAW*%
X237449988Y-158350000D03*
%TD*%
%TO.P,_21,DIN*%
%TO.N,LED_8*%
X224549988Y-155850000D03*
%TO.P,_21,DOUT*%
%TO.N,LED_9*%
X219449988Y-157350000D03*
%TO.P,_21,GND*%
%TO.N,GND*%
X224549988Y-157350000D03*
%TO.P,_21,VDD*%
%TO.N,RAW*%
X219449988Y-155850000D03*
%TD*%
D12*
%TO.P,S20,1*%
%TO.N,CIndex*%
X225274988Y-184050000D03*
%TO.P,S20,2*%
%TO.N,index_bottom*%
X213724988Y-181850000D03*
%TD*%
%TO.P,S27,1*%
%TO.N,CInner*%
X243274988Y-135550000D03*
%TO.P,S27,2*%
%TO.N,inner_num*%
X231724988Y-133350000D03*
%TD*%
D10*
%TO.P,_4,DIN*%
%TO.N,LED_28*%
X152549988Y-126750000D03*
%TO.P,_4,DOUT*%
%TO.N,LED_29*%
X147449988Y-128250000D03*
%TO.P,_4,GND*%
%TO.N,GND*%
X152549988Y-128250000D03*
%TO.P,_4,VDD*%
%TO.N,RAW*%
X147449988Y-126750000D03*
%TD*%
%TO.P,_19,DIN*%
%TO.N,LED_6*%
X224549988Y-189850000D03*
%TO.P,_19,DOUT*%
%TO.N,LED_7*%
X219449988Y-191350000D03*
%TO.P,_19,GND*%
%TO.N,GND*%
X224549988Y-191350000D03*
%TO.P,_19,VDD*%
%TO.N,RAW*%
X219449988Y-189850000D03*
%TD*%
%TO.P,_5,DIN*%
%TO.N,LED_24*%
X170549988Y-177750000D03*
%TO.P,_5,DOUT*%
%TO.N,LED_25*%
X165449988Y-179250000D03*
%TO.P,_5,GND*%
%TO.N,GND*%
X170549988Y-179250000D03*
%TO.P,_5,VDD*%
%TO.N,RAW*%
X165449988Y-177750000D03*
%TD*%
D12*
%TO.P,S15,1*%
%TO.N,CMid*%
X207274988Y-181550000D03*
%TO.P,S15,2*%
%TO.N,middle_bottom*%
X195724988Y-179350000D03*
%TD*%
%TO.P,S5,1*%
%TO.N,CPinky*%
X171274988Y-188950000D03*
%TO.P,S5,2*%
%TO.N,pinky_bottom*%
X159724988Y-186750000D03*
%TD*%
%TO.P,S11,1*%
%TO.N,CRing*%
X189274988Y-167050000D03*
%TO.P,S11,2*%
%TO.N,ring_home*%
X177724988Y-164850000D03*
%TD*%
D10*
%TO.P,_2,DIN*%
%TO.N,LED_26*%
X152549988Y-160750000D03*
%TO.P,_2,DOUT*%
%TO.N,LED_27*%
X147449988Y-162250000D03*
%TO.P,_2,GND*%
%TO.N,GND*%
X152549988Y-162250000D03*
%TO.P,_2,VDD*%
%TO.N,RAW*%
X147449988Y-160750000D03*
%TD*%
D13*
%TO.P,_29,DIN*%
%TO.N,LED_4*%
X266823350Y-208244032D03*
%TO.P,_29,DOUT*%
%TO.N,LED_5*%
X268074312Y-203077302D03*
%TO.P,_29,GND*%
%TO.N,GND*%
X265524312Y-207494032D03*
%TO.P,_29,VDD*%
%TO.N,RAW*%
X269373350Y-203827302D03*
%TD*%
D10*
%TO.P,_15,DIN*%
%TO.N,LED_14*%
X206549988Y-170350000D03*
%TO.P,_15,DOUT*%
%TO.N,LED_15*%
X201449988Y-171850000D03*
%TO.P,_15,GND*%
%TO.N,GND*%
X206549988Y-171850000D03*
%TO.P,_15,VDD*%
%TO.N,RAW*%
X201449988Y-170350000D03*
%TD*%
%TO.P,_11,DIN*%
%TO.N,LED_18*%
X188549988Y-155850000D03*
%TO.P,_11,DOUT*%
%TO.N,LED_19*%
X183449988Y-157350000D03*
%TO.P,_11,GND*%
%TO.N,GND*%
X188549988Y-157350000D03*
%TO.P,_11,VDD*%
%TO.N,RAW*%
X183449988Y-155850000D03*
%TD*%
D12*
%TO.P,S9,1*%
%TO.N,CPinky*%
X189274988Y-201050000D03*
%TO.P,S9,2*%
%TO.N,ring_mod*%
X177724988Y-198850000D03*
%TD*%
D10*
%TO.P,_24,DIN*%
%TO.N,LED_3*%
X242549988Y-175350000D03*
%TO.P,_24,DOUT*%
%TO.N,LED_4*%
X237449988Y-176850000D03*
%TO.P,_24,GND*%
%TO.N,GND*%
X242549988Y-176850000D03*
%TO.P,_24,VDD*%
%TO.N,RAW*%
X237449988Y-175350000D03*
%TD*%
D14*
%TO.P,TRRS1,1*%
%TO.N,TRS_DATA*%
X255699988Y-167000000D03*
X255699988Y-171600000D03*
%TO.P,TRRS1,2*%
X256799988Y-167000000D03*
X256799988Y-171600000D03*
%TO.P,TRRS1,3*%
%TO.N,RAW*%
X260799988Y-167000000D03*
X260799988Y-171600000D03*
%TO.P,TRRS1,4*%
%TO.N,GND*%
X263799988Y-167000000D03*
X263799988Y-171600000D03*
%TD*%
D10*
%TO.P,_10,DIN*%
%TO.N,LED_17*%
X188549988Y-172850000D03*
%TO.P,_10,DOUT*%
%TO.N,LED_18*%
X183449988Y-174350000D03*
%TO.P,_10,GND*%
%TO.N,GND*%
X188549988Y-174350000D03*
%TO.P,_10,VDD*%
%TO.N,RAW*%
X183449988Y-172850000D03*
%TD*%
D12*
%TO.P,S16,1*%
%TO.N,CMid*%
X207274988Y-164550000D03*
%TO.P,S16,2*%
%TO.N,middle_home*%
X195724988Y-162350000D03*
%TD*%
D15*
%TO.P,MCU-AX1,GND*%
%TO.N,GND*%
X266219988Y-127440000D03*
X250979988Y-129980000D03*
X250979988Y-132520000D03*
%TO.P,MCU-AX1,P0*%
%TO.N,P0*%
X250979988Y-124900000D03*
%TO.P,MCU-AX1,P1*%
%TO.N,P1*%
X250979988Y-127440000D03*
%TO.P,MCU-AX1,P2*%
%TO.N,RNum*%
X250979988Y-135060000D03*
%TO.P,MCU-AX1,P3*%
%TO.N,RTop*%
X250979988Y-137600000D03*
%TO.P,MCU-AX1,P4*%
%TO.N,RHome*%
X250979988Y-140140000D03*
%TO.P,MCU-AX1,P5*%
%TO.N,RBottom*%
X250979988Y-142680000D03*
%TO.P,MCU-AX1,P6*%
%TO.N,RMod*%
X250979988Y-145220000D03*
%TO.P,MCU-AX1,P7*%
%TO.N,LED_START_3V3*%
X250979988Y-147760000D03*
%TO.P,MCU-AX1,P8*%
%TO.N,TRS_DATA*%
X250979988Y-150300000D03*
%TO.P,MCU-AX1,P9*%
%TO.N,P9*%
X250979988Y-152840000D03*
%TO.P,MCU-AX1,P10*%
%TO.N,P10*%
X250979988Y-122360000D03*
%TO.P,MCU-AX1,P11*%
%TO.N,CInner*%
X266219988Y-122360000D03*
%TO.P,MCU-AX1,P20*%
%TO.N,OLED_SDA*%
X266219988Y-147760000D03*
%TO.P,MCU-AX1,P21*%
%TO.N,OLED_SCL*%
X266219988Y-152840000D03*
%TO.P,MCU-AX1,P22*%
%TO.N,COuter*%
X266219988Y-145220000D03*
%TO.P,MCU-AX1,P23*%
%TO.N,P23*%
X266219988Y-150300000D03*
%TO.P,MCU-AX1,P26*%
%TO.N,CPinky*%
X266219988Y-142680000D03*
%TO.P,MCU-AX1,P27*%
%TO.N,CRing*%
X266219988Y-140140000D03*
%TO.P,MCU-AX1,P28*%
%TO.N,CMid*%
X266219988Y-137600000D03*
%TO.P,MCU-AX1,P29*%
%TO.N,CIndex*%
X266219988Y-135060000D03*
%TO.P,MCU-AX1,RAW*%
%TO.N,RAW*%
X266219988Y-124900000D03*
%TO.P,MCU-AX1,RST*%
%TO.N,RST*%
X266219988Y-129980000D03*
%TO.P,MCU-AX1,VDD*%
%TO.N,3V3*%
X266219988Y-132520000D03*
%TD*%
D12*
%TO.P,S24,1*%
%TO.N,CInner*%
X243274988Y-186550000D03*
%TO.P,S24,2*%
%TO.N,inner_bottom*%
X231724988Y-184350000D03*
%TD*%
%TO.P,S6,1*%
%TO.N,CPinky*%
X171274988Y-171950000D03*
%TO.P,S6,2*%
%TO.N,pinky_home*%
X159724988Y-169750000D03*
%TD*%
%TO.P,S8,1*%
%TO.N,CPinky*%
X171274988Y-137950000D03*
%TO.P,S8,2*%
%TO.N,pinky_num*%
X159724988Y-135750000D03*
%TD*%
D10*
%TO.P,_9,DIN*%
%TO.N,LED_16*%
X188549988Y-189850000D03*
%TO.P,_9,DOUT*%
%TO.N,LED_17*%
X183449988Y-191350000D03*
%TO.P,_9,GND*%
%TO.N,GND*%
X188549988Y-191350000D03*
%TO.P,_9,VDD*%
%TO.N,RAW*%
X183449988Y-189850000D03*
%TD*%
%TO.P,_14,DIN*%
%TO.N,LED_15*%
X206549988Y-187350000D03*
%TO.P,_14,DOUT*%
%TO.N,LED_16*%
X201449988Y-188850000D03*
%TO.P,_14,GND*%
%TO.N,GND*%
X206549988Y-188850000D03*
%TO.P,_14,VDD*%
%TO.N,RAW*%
X201449988Y-187350000D03*
%TD*%
D12*
%TO.P,S1,1*%
%TO.N,COuter*%
X153274988Y-188950000D03*
%TO.P,S1,2*%
%TO.N,outer_bottom*%
X141724988Y-186750000D03*
%TD*%
%TO.P,S10,1*%
%TO.N,CRing*%
X189274988Y-184050000D03*
%TO.P,S10,2*%
%TO.N,ring_bottom*%
X177724988Y-181850000D03*
%TD*%
D10*
%TO.P,_20,DIN*%
%TO.N,LED_7*%
X224549988Y-172850000D03*
%TO.P,_20,DOUT*%
%TO.N,LED_8*%
X219449988Y-174350000D03*
%TO.P,_20,GND*%
%TO.N,GND*%
X224549988Y-174350000D03*
%TO.P,_20,VDD*%
%TO.N,RAW*%
X219449988Y-172850000D03*
%TD*%
%TO.P,_27,DIN*%
%TO.N,LED_START_5V*%
X242549988Y-124350000D03*
%TO.P,_27,DOUT*%
%TO.N,LED_1*%
X237449988Y-125850000D03*
%TO.P,_27,GND*%
%TO.N,GND*%
X242549988Y-125850000D03*
%TO.P,_27,VDD*%
%TO.N,RAW*%
X237449988Y-124350000D03*
%TD*%
%TO.P,_12,DIN*%
%TO.N,LED_19*%
X188549988Y-138850000D03*
%TO.P,_12,DOUT*%
%TO.N,LED_20*%
X183449988Y-140350000D03*
%TO.P,_12,GND*%
%TO.N,GND*%
X188549988Y-140350000D03*
%TO.P,_12,VDD*%
%TO.N,RAW*%
X183449988Y-138850000D03*
%TD*%
%TO.P,_18,DIN*%
%TO.N,LED_11*%
X206549988Y-119350000D03*
%TO.P,_18,DOUT*%
%TO.N,LED_12*%
X201449988Y-120850000D03*
%TO.P,_18,GND*%
%TO.N,GND*%
X206549988Y-120850000D03*
%TO.P,_18,VDD*%
%TO.N,RAW*%
X201449988Y-119350000D03*
%TD*%
D12*
%TO.P,S13,1*%
%TO.N,CRing*%
X189274988Y-133050000D03*
%TO.P,S13,2*%
%TO.N,ring_num*%
X177724988Y-130850000D03*
%TD*%
%TO.P,S12,1*%
%TO.N,CRing*%
X189274988Y-150050000D03*
%TO.P,S12,2*%
%TO.N,ring_top*%
X177724988Y-147850000D03*
%TD*%
D16*
%TO.P,S28,1*%
%TO.N,CIndex*%
X244123422Y-206694891D03*
%TO.P,S28,2*%
%TO.N,layer_cluster*%
X233536380Y-201580494D03*
%TD*%
D12*
%TO.P,S4,1*%
%TO.N,COuter*%
X153274988Y-137950000D03*
%TO.P,S4,2*%
%TO.N,outer_num*%
X141724988Y-135750000D03*
%TD*%
D17*
%TO.P,_30,DIN*%
%TO.N,LED_START_3V3*%
X241299988Y-117600000D03*
%TO.P,_30,DOUT*%
%TO.N,LED_START_5V*%
X238699988Y-116650000D03*
%TO.P,_30,GND*%
%TO.N,GND*%
X241299988Y-118550000D03*
X241299988Y-116650000D03*
%TO.P,_30,VCC*%
%TO.N,RAW*%
X238699988Y-118550000D03*
%TD*%
D12*
%TO.P,S17,1*%
%TO.N,CMid*%
X207274988Y-147550000D03*
%TO.P,S17,2*%
%TO.N,middle_top*%
X195724988Y-145350000D03*
%TD*%
D10*
%TO.P,_16,DIN*%
%TO.N,LED_13*%
X206549988Y-153350000D03*
%TO.P,_16,DOUT*%
%TO.N,LED_14*%
X201449988Y-154850000D03*
%TO.P,_16,GND*%
%TO.N,GND*%
X206549988Y-154850000D03*
%TO.P,_16,VDD*%
%TO.N,RAW*%
X201449988Y-153350000D03*
%TD*%
D12*
%TO.P,S19,1*%
%TO.N,CMid*%
X225274988Y-201050000D03*
%TO.P,S19,2*%
%TO.N,index_mod*%
X213724988Y-198850000D03*
%TD*%
%TO.P,S22,1*%
%TO.N,CIndex*%
X225274988Y-150050000D03*
%TO.P,S22,2*%
%TO.N,index_top*%
X213724988Y-147850000D03*
%TD*%
D10*
%TO.P,_1,DIN*%
%TO.N,LED_25*%
X152549988Y-177750000D03*
%TO.P,_1,DOUT*%
%TO.N,LED_26*%
X147449988Y-179250000D03*
%TO.P,_1,GND*%
%TO.N,GND*%
X152549988Y-179250000D03*
%TO.P,_1,VDD*%
%TO.N,RAW*%
X147449988Y-177750000D03*
%TD*%
D12*
%TO.P,S7,1*%
%TO.N,CPinky*%
X171274988Y-154950000D03*
%TO.P,S7,2*%
%TO.N,pinky_top*%
X159724988Y-152750000D03*
%TD*%
%TO.P,S25,1*%
%TO.N,CInner*%
X243274988Y-169550000D03*
%TO.P,S25,2*%
%TO.N,inner_home*%
X231724988Y-167350000D03*
%TD*%
D10*
%TO.P,_6,DIN*%
%TO.N,LED_23*%
X170549988Y-160750000D03*
%TO.P,_6,DOUT*%
%TO.N,LED_24*%
X165449988Y-162250000D03*
%TO.P,_6,GND*%
%TO.N,GND*%
X170549988Y-162250000D03*
%TO.P,_6,VDD*%
%TO.N,RAW*%
X165449988Y-160750000D03*
%TD*%
%TO.P,_8,DIN*%
%TO.N,LED_21*%
X170549988Y-126750000D03*
%TO.P,_8,DOUT*%
%TO.N,LED_22*%
X165449988Y-128250000D03*
%TO.P,_8,GND*%
%TO.N,GND*%
X170549988Y-128250000D03*
%TO.P,_8,VDD*%
%TO.N,RAW*%
X165449988Y-126750000D03*
%TD*%
%TO.P,_13,DIN*%
%TO.N,LED_20*%
X188549988Y-121850000D03*
%TO.P,_13,DOUT*%
%TO.N,LED_21*%
X183449988Y-123350000D03*
%TO.P,_13,GND*%
%TO.N,GND*%
X188549988Y-123350000D03*
%TO.P,_13,VDD*%
%TO.N,RAW*%
X183449988Y-121850000D03*
%TD*%
%TO.P,_22,DIN*%
%TO.N,LED_9*%
X224549988Y-138850000D03*
%TO.P,_22,DOUT*%
%TO.N,LED_10*%
X219449988Y-140350000D03*
%TO.P,_22,GND*%
%TO.N,GND*%
X224549988Y-140350000D03*
%TO.P,_22,VDD*%
%TO.N,RAW*%
X219449988Y-138850000D03*
%TD*%
D12*
%TO.P,S21,1*%
%TO.N,CIndex*%
X225274988Y-167050000D03*
%TO.P,S21,2*%
%TO.N,index_home*%
X213724988Y-164850000D03*
%TD*%
%TO.P,S2,1*%
%TO.N,COuter*%
X153274988Y-171950000D03*
%TO.P,S2,2*%
%TO.N,outer_home*%
X141724988Y-169750000D03*
%TD*%
D15*
%TO.P,OLED1,GND*%
%TO.N,GND*%
X262409988Y-156100000D03*
%TO.P,OLED1,SCL*%
%TO.N,OLED_SCL*%
X257329988Y-156100000D03*
%TO.P,OLED1,SDA*%
%TO.N,OLED_SDA*%
X254789988Y-156100000D03*
%TO.P,OLED1,VCC*%
%TO.N,3V3*%
X259869988Y-156100000D03*
%TD*%
D10*
%TO.P,_7,DIN*%
%TO.N,LED_22*%
X170549988Y-143750000D03*
%TO.P,_7,DOUT*%
%TO.N,LED_23*%
X165449988Y-145250000D03*
%TO.P,_7,GND*%
%TO.N,GND*%
X170549988Y-145250000D03*
%TO.P,_7,VDD*%
%TO.N,RAW*%
X165449988Y-143750000D03*
%TD*%
%TO.P,_3,DIN*%
%TO.N,LED_27*%
X152549988Y-143750000D03*
%TO.P,_3,DOUT*%
%TO.N,LED_28*%
X147449988Y-145250000D03*
%TO.P,_3,GND*%
%TO.N,GND*%
X152549988Y-145250000D03*
%TO.P,_3,VDD*%
%TO.N,RAW*%
X147449988Y-143750000D03*
%TD*%
D12*
%TO.P,S18,1*%
%TO.N,CMid*%
X207274988Y-130550000D03*
%TO.P,S18,2*%
%TO.N,middle_num*%
X195724988Y-128350000D03*
%TD*%
D10*
%TO.P,_26,DIN*%
%TO.N,LED_1*%
X242549988Y-141350000D03*
%TO.P,_26,DOUT*%
%TO.N,LED_2*%
X237449988Y-142850000D03*
%TO.P,_26,GND*%
%TO.N,GND*%
X242549988Y-142850000D03*
%TO.P,_26,VDD*%
%TO.N,RAW*%
X237449988Y-141350000D03*
%TD*%
D12*
%TO.P,S3,1*%
%TO.N,COuter*%
X153274988Y-154950000D03*
%TO.P,S3,2*%
%TO.N,outer_top*%
X141724988Y-152750000D03*
%TD*%
%TO.P,S26,1*%
%TO.N,CInner*%
X243274988Y-152550000D03*
%TO.P,S26,2*%
%TO.N,inner_top*%
X231724988Y-150350000D03*
%TD*%
%TO.P,S14,1*%
%TO.N,CRing*%
X207274988Y-198550000D03*
%TO.P,S14,2*%
%TO.N,middle_mod*%
X195724988Y-196350000D03*
%TD*%
D18*
%TO.P,S29,1*%
%TO.N,CInner*%
X256761365Y-203271900D03*
%TO.P,S29,2*%
%TO.N,space_cluster*%
X264441621Y-194369307D03*
%TD*%
D12*
%TO.P,S23,1*%
%TO.N,CIndex*%
X225274988Y-133050000D03*
%TO.P,S23,2*%
%TO.N,index_num*%
X213724988Y-130850000D03*
%TD*%
D19*
%TO.P,D12,1*%
%TO.N,ring_top*%
X193399988Y-141950000D03*
%TO.P,D12,2*%
%TO.N,RTop*%
X193399988Y-138650000D03*
%TD*%
%TO.P,D13,1*%
%TO.N,ring_num*%
X193399988Y-124950000D03*
%TO.P,D13,2*%
%TO.N,RNum*%
X193399988Y-121650000D03*
%TD*%
D15*
%TO.P,OLED2,GND*%
%TO.N,GND*%
X256059988Y-154420000D03*
%TO.P,OLED2,SCL*%
%TO.N,OLED_SCL*%
X261139988Y-154420000D03*
%TO.P,OLED2,SDA*%
%TO.N,OLED_SDA*%
X263679988Y-154420000D03*
%TO.P,OLED2,VCC*%
%TO.N,3V3*%
X258599988Y-154420000D03*
%TD*%
D19*
%TO.P,D24,1*%
%TO.N,inner_bottom*%
X247399988Y-178450000D03*
%TO.P,D24,2*%
%TO.N,RBottom*%
X247399988Y-175150000D03*
%TD*%
%TO.P,D3,1*%
%TO.N,outer_top*%
X157399988Y-146850000D03*
%TO.P,D3,2*%
%TO.N,RTop*%
X157399988Y-143550000D03*
%TD*%
%TO.P,D20,1*%
%TO.N,index_bottom*%
X229399988Y-175950000D03*
%TO.P,D20,2*%
%TO.N,RBottom*%
X229399988Y-172650000D03*
%TD*%
%TO.P,D2,1*%
%TO.N,outer_home*%
X157399988Y-163850000D03*
%TO.P,D2,2*%
%TO.N,RHome*%
X157399988Y-160550000D03*
%TD*%
%TO.P,D10,1*%
%TO.N,ring_bottom*%
X193399988Y-175950000D03*
%TO.P,D10,2*%
%TO.N,RBottom*%
X193399988Y-172650000D03*
%TD*%
%TO.P,D11,1*%
%TO.N,ring_home*%
X193399988Y-158950000D03*
%TO.P,D11,2*%
%TO.N,RHome*%
X193399988Y-155650000D03*
%TD*%
%TO.P,D4,1*%
%TO.N,outer_num*%
X157399988Y-129850000D03*
%TO.P,D4,2*%
%TO.N,RNum*%
X157399988Y-126550000D03*
%TD*%
%TO.P,D14,1*%
%TO.N,middle_mod*%
X211399988Y-190450000D03*
%TO.P,D14,2*%
%TO.N,RMod*%
X211399988Y-187150000D03*
%TD*%
%TO.P,D18,1*%
%TO.N,middle_num*%
X211399988Y-122450000D03*
%TO.P,D18,2*%
%TO.N,RNum*%
X211399988Y-119150000D03*
%TD*%
%TO.P,D25,1*%
%TO.N,inner_home*%
X247399988Y-161450000D03*
%TO.P,D25,2*%
%TO.N,RHome*%
X247399988Y-158150000D03*
%TD*%
%TO.P,D7,1*%
%TO.N,pinky_top*%
X175399988Y-146850000D03*
%TO.P,D7,2*%
%TO.N,RTop*%
X175399988Y-143550000D03*
%TD*%
%TO.P,D22,1*%
%TO.N,index_top*%
X229399988Y-141950000D03*
%TO.P,D22,2*%
%TO.N,RTop*%
X229399988Y-138650000D03*
%TD*%
%TO.P,D5,1*%
%TO.N,pinky_bottom*%
X175399988Y-180850000D03*
%TO.P,D5,2*%
%TO.N,RBottom*%
X175399988Y-177550000D03*
%TD*%
%TO.P,D26,1*%
%TO.N,inner_top*%
X247399988Y-144450000D03*
%TO.P,D26,2*%
%TO.N,RTop*%
X247399988Y-141150000D03*
%TD*%
%TO.P,D15,1*%
%TO.N,middle_bottom*%
X211399988Y-173450000D03*
%TO.P,D15,2*%
%TO.N,RBottom*%
X211399988Y-170150000D03*
%TD*%
%TO.P,D8,1*%
%TO.N,pinky_num*%
X175399988Y-129850000D03*
%TO.P,D8,2*%
%TO.N,RNum*%
X175399988Y-126550000D03*
%TD*%
%TO.P,D1,1*%
%TO.N,outer_bottom*%
X157399988Y-180850000D03*
%TO.P,D1,2*%
%TO.N,RBottom*%
X157399988Y-177550000D03*
%TD*%
%TO.P,D9,1*%
%TO.N,ring_mod*%
X193399988Y-192950000D03*
%TO.P,D9,2*%
%TO.N,RMod*%
X193399988Y-189650000D03*
%TD*%
D20*
%TO.P,D29,1*%
%TO.N,space_cluster*%
X261713671Y-210894255D03*
%TO.P,D29,2*%
%TO.N,RMod*%
X264571555Y-212544255D03*
%TD*%
D19*
%TO.P,D23,1*%
%TO.N,index_num*%
X229399988Y-124950000D03*
%TO.P,D23,2*%
%TO.N,RNum*%
X229399988Y-121650000D03*
%TD*%
%TO.P,D6,1*%
%TO.N,pinky_home*%
X175399988Y-163850000D03*
%TO.P,D6,2*%
%TO.N,RHome*%
X175399988Y-160550000D03*
%TD*%
D15*
%TO.P,MCU-AX2,GND*%
%TO.N,GND*%
X252659988Y-126170000D03*
X267899988Y-128710000D03*
X267899988Y-131250000D03*
%TO.P,MCU-AX2,P0*%
%TO.N,P0*%
X267899988Y-123630000D03*
%TO.P,MCU-AX2,P1*%
%TO.N,P1*%
X267899988Y-126170000D03*
%TO.P,MCU-AX2,P2*%
%TO.N,RNum*%
X267899988Y-133790000D03*
%TO.P,MCU-AX2,P3*%
%TO.N,RTop*%
X267899988Y-136330000D03*
%TO.P,MCU-AX2,P4*%
%TO.N,RHome*%
X267899988Y-138870000D03*
%TO.P,MCU-AX2,P5*%
%TO.N,RBottom*%
X267899988Y-141410000D03*
%TO.P,MCU-AX2,P6*%
%TO.N,RMod*%
X267899988Y-143950000D03*
%TO.P,MCU-AX2,P7*%
%TO.N,LED_START_3V3*%
X267899988Y-146490000D03*
%TO.P,MCU-AX2,P8*%
%TO.N,TRS_DATA*%
X267899988Y-149030000D03*
%TO.P,MCU-AX2,P9*%
%TO.N,P9*%
X267899988Y-151570000D03*
%TO.P,MCU-AX2,P10*%
%TO.N,P10*%
X267899988Y-121090000D03*
%TO.P,MCU-AX2,P11*%
%TO.N,CInner*%
X252659988Y-121090000D03*
%TO.P,MCU-AX2,P20*%
%TO.N,OLED_SDA*%
X252659988Y-146490000D03*
%TO.P,MCU-AX2,P21*%
%TO.N,OLED_SCL*%
X252659988Y-151570000D03*
%TO.P,MCU-AX2,P22*%
%TO.N,COuter*%
X252659988Y-143950000D03*
%TO.P,MCU-AX2,P23*%
%TO.N,P23*%
X252659988Y-149030000D03*
%TO.P,MCU-AX2,P26*%
%TO.N,CPinky*%
X252659988Y-141410000D03*
%TO.P,MCU-AX2,P27*%
%TO.N,CRing*%
X252659988Y-138870000D03*
%TO.P,MCU-AX2,P28*%
%TO.N,CMid*%
X252659988Y-136330000D03*
%TO.P,MCU-AX2,P29*%
%TO.N,CIndex*%
X252659988Y-133790000D03*
%TO.P,MCU-AX2,RAW*%
%TO.N,RAW*%
X252659988Y-123630000D03*
%TO.P,MCU-AX2,RST*%
%TO.N,RST*%
X252659988Y-128710000D03*
%TO.P,MCU-AX2,VDD*%
%TO.N,3V3*%
X252659988Y-131250000D03*
%TD*%
D19*
%TO.P,D16,1*%
%TO.N,middle_home*%
X211399988Y-156450000D03*
%TO.P,D16,2*%
%TO.N,RHome*%
X211399988Y-153150000D03*
%TD*%
%TO.P,D17,1*%
%TO.N,middle_top*%
X211399988Y-139450000D03*
%TO.P,D17,2*%
%TO.N,RTop*%
X211399988Y-136150000D03*
%TD*%
%TO.P,D21,1*%
%TO.N,index_home*%
X229399988Y-158950000D03*
%TO.P,D21,2*%
%TO.N,RHome*%
X229399988Y-155650000D03*
%TD*%
%TO.P,D19,1*%
%TO.N,index_mod*%
X229399988Y-192950000D03*
%TO.P,D19,2*%
%TO.N,RMod*%
X229399988Y-189650000D03*
%TD*%
%TO.P,D27,1*%
%TO.N,inner_num*%
X247399988Y-127450000D03*
%TO.P,D27,2*%
%TO.N,RNum*%
X247399988Y-124150000D03*
%TD*%
D21*
%TO.P,D28,1*%
%TO.N,layer_cluster*%
X250204301Y-199938521D03*
%TO.P,D28,2*%
%TO.N,RMod*%
X251058403Y-196750965D03*
%TD*%
D22*
%TO.N,COuter*%
X148909988Y-186770000D03*
X148909988Y-135770000D03*
X148909988Y-152770000D03*
X148909988Y-169770000D03*
X156469988Y-123100000D03*
X270969988Y-118870000D03*
%TO.N,outer_bottom*%
X143599988Y-184850000D03*
X157399988Y-182350000D03*
%TO.N,outer_home*%
X157399988Y-165350000D03*
X143599988Y-167850000D03*
%TO.N,outer_top*%
X143599988Y-150850000D03*
X157399988Y-148350000D03*
%TO.N,outer_num*%
X157399988Y-131350000D03*
X143599988Y-133850000D03*
%TO.N,CPinky*%
X166909988Y-135770000D03*
X166909988Y-152770000D03*
X184909988Y-198870000D03*
X166909988Y-186770000D03*
X166909988Y-169770000D03*
X270234488Y-120080405D03*
X174059988Y-124020000D03*
%TO.N,pinky_bottom*%
X175399988Y-182350000D03*
X161599988Y-184850000D03*
%TO.N,pinky_home*%
X161599988Y-167850000D03*
X175399988Y-165350000D03*
%TO.N,pinky_top*%
X175399988Y-148350000D03*
X161599988Y-150850000D03*
%TO.N,pinky_num*%
X161599988Y-133850000D03*
X175399988Y-131350000D03*
%TO.N,ring_mod*%
X179599988Y-196950000D03*
X193399988Y-194450000D03*
%TO.N,CRing*%
X184909988Y-164870000D03*
X184909988Y-130870000D03*
X184909988Y-181870000D03*
X269506334Y-119373650D03*
X184909988Y-147870000D03*
X192399988Y-116030000D03*
X202909988Y-196370000D03*
%TO.N,ring_bottom*%
X179599988Y-179950000D03*
X193399988Y-177450000D03*
%TO.N,ring_home*%
X179599988Y-162950000D03*
X193399988Y-160450000D03*
%TO.N,ring_top*%
X193399988Y-143450000D03*
X179599988Y-145950000D03*
%TO.N,ring_num*%
X193399988Y-126450000D03*
X179599988Y-128950000D03*
%TO.N,middle_mod*%
X197599988Y-194450000D03*
X211399988Y-191950000D03*
%TO.N,CMid*%
X202909988Y-128370000D03*
X269799488Y-123236231D03*
X202909988Y-145370000D03*
X202909988Y-162370000D03*
X202909988Y-179370000D03*
X220909988Y-198870000D03*
X210439988Y-116690000D03*
%TO.N,middle_bottom*%
X211399988Y-174950000D03*
X197599988Y-177450000D03*
%TO.N,middle_home*%
X211399988Y-157950000D03*
X197599988Y-160450000D03*
%TO.N,middle_top*%
X211399988Y-140950000D03*
X197599988Y-143450000D03*
%TO.N,middle_num*%
X197599988Y-126450000D03*
X211399988Y-123950000D03*
%TO.N,index_mod*%
X229399988Y-194450000D03*
X215599988Y-196950000D03*
%TO.N,CIndex*%
X220909988Y-147870000D03*
X269074988Y-124830000D03*
X228259988Y-119425500D03*
X220909988Y-181870000D03*
X240469988Y-203460000D03*
X220909988Y-130870000D03*
X220909988Y-164870000D03*
%TO.N,index_bottom*%
X229399988Y-177450000D03*
X215599988Y-179950000D03*
%TO.N,index_home*%
X229399988Y-160450000D03*
X215599988Y-162950000D03*
%TO.N,index_top*%
X229399988Y-143450000D03*
X215599988Y-145950000D03*
%TO.N,index_num*%
X215599988Y-128950000D03*
X229399988Y-126450000D03*
%TO.N,CInner*%
X260839988Y-200580000D03*
X238909988Y-167370000D03*
X238909988Y-133370000D03*
X238909988Y-184370000D03*
X238909988Y-150370000D03*
%TO.N,inner_bottom*%
X233599988Y-182450000D03*
X247399988Y-179950000D03*
%TO.N,inner_home*%
X233599988Y-165450000D03*
X247399988Y-162950000D03*
%TO.N,inner_top*%
X233599988Y-148450000D03*
X247399988Y-145950000D03*
%TO.N,inner_num*%
X233599988Y-131450000D03*
X247399988Y-128950000D03*
%TO.N,layer_cluster*%
X235839988Y-200240000D03*
X249819988Y-201390000D03*
%TO.N,space_cluster*%
X260409988Y-210140000D03*
X265149988Y-196940000D03*
%TO.N,RAW*%
X216999988Y-140450000D03*
X198999988Y-120950000D03*
X180999988Y-123450000D03*
X180999988Y-140450000D03*
X144999988Y-128350000D03*
X180999988Y-157450000D03*
X144999988Y-179350000D03*
X162999988Y-145350000D03*
X216999988Y-174450000D03*
X244530470Y-118604500D03*
X198999988Y-171950000D03*
X262429990Y-125025500D03*
X162999988Y-128350000D03*
X162999988Y-162350000D03*
X144999988Y-162350000D03*
X144999988Y-145350000D03*
X269212688Y-200905500D03*
X162999988Y-179350000D03*
X234999988Y-159950000D03*
X257609988Y-125025500D03*
X238615088Y-195280300D03*
X180999988Y-174450000D03*
X198999988Y-137950000D03*
X234999988Y-142950000D03*
X198999988Y-188950000D03*
X216999988Y-123450000D03*
X234999988Y-176950000D03*
X216999988Y-157450000D03*
X198999988Y-154950000D03*
X234999988Y-125950000D03*
X216999988Y-191450000D03*
X180999988Y-191450000D03*
%TO.N,GND*%
X208999988Y-153250000D03*
X248714288Y-196226400D03*
X244999988Y-158250000D03*
X190999988Y-155750000D03*
X190999988Y-172750000D03*
X154999988Y-160650000D03*
X172999988Y-177650000D03*
X241679066Y-190494500D03*
X226999988Y-189750000D03*
X172999988Y-160650000D03*
X244999988Y-141250000D03*
X190999988Y-189750000D03*
X265684988Y-210415800D03*
X172999988Y-143650000D03*
X244999988Y-175250000D03*
X208999988Y-119250000D03*
X154999988Y-126650000D03*
X190999988Y-121750000D03*
X226999988Y-172750000D03*
X172999988Y-126650000D03*
X208999988Y-136250000D03*
X226999988Y-138750000D03*
X208999988Y-187250000D03*
X226999988Y-121750000D03*
X244999988Y-124250000D03*
X190999988Y-138750000D03*
X261209988Y-127440000D03*
X251159988Y-120270000D03*
X255319988Y-127440000D03*
X244659988Y-117025000D03*
X226999988Y-155750000D03*
X154999988Y-177650000D03*
X208999988Y-170250000D03*
X154999988Y-143650000D03*
%TO.N,LED_25*%
X163999988Y-178500000D03*
X153999988Y-178500000D03*
%TO.N,LED_26*%
X152539990Y-163400000D03*
X145999988Y-178500000D03*
X153999988Y-161500000D03*
%TO.N,LED_27*%
X152599990Y-146540000D03*
X145999988Y-161500000D03*
X153999988Y-144500000D03*
%TO.N,LED_28*%
X145999988Y-144500000D03*
X152569990Y-129259502D03*
X153999988Y-127500000D03*
%TO.N,LED_29*%
X145999988Y-127500000D03*
%TO.N,LED_24*%
X171999988Y-178500000D03*
X163999988Y-161500000D03*
%TO.N,LED_23*%
X171999988Y-161500000D03*
X163999988Y-144500000D03*
%TO.N,LED_22*%
X171999988Y-144500000D03*
X163999988Y-127500000D03*
%TO.N,LED_21*%
X171999988Y-127500000D03*
X181999988Y-122600000D03*
%TO.N,LED_16*%
X189999988Y-190600000D03*
X199999988Y-188100000D03*
%TO.N,LED_17*%
X181999988Y-190600000D03*
X188599990Y-175359502D03*
X189999988Y-173600000D03*
%TO.N,LED_18*%
X181999988Y-173600000D03*
X189999988Y-156600000D03*
X188539990Y-158359502D03*
%TO.N,LED_19*%
X181999988Y-156600000D03*
X188629990Y-141359502D03*
X189999988Y-139600000D03*
%TO.N,LED_20*%
X181999988Y-139600000D03*
X189999988Y-122600000D03*
X190229990Y-124240000D03*
%TO.N,LED_15*%
X199999988Y-171100000D03*
X207999988Y-188100000D03*
%TO.N,LED_14*%
X199999988Y-154100000D03*
X207999988Y-171100000D03*
%TO.N,LED_13*%
X207999988Y-154100000D03*
X199999988Y-137100000D03*
%TO.N,LED_12*%
X199999988Y-120100000D03*
X207999988Y-137100000D03*
%TO.N,LED_11*%
X217999988Y-122600000D03*
X207999988Y-120100000D03*
%TO.N,LED_6*%
X225999988Y-190600000D03*
X239800988Y-194718100D03*
%TO.N,LED_7*%
X225999988Y-173600000D03*
X217999988Y-190600000D03*
X224629990Y-175410000D03*
%TO.N,LED_8*%
X217999988Y-173600000D03*
X224569990Y-158440000D03*
X225999988Y-156600000D03*
%TO.N,LED_9*%
X217999988Y-156600000D03*
X225849990Y-141265500D03*
X225999988Y-139600000D03*
%TO.N,LED_10*%
X217999988Y-139600000D03*
X224549988Y-124999998D03*
X225999988Y-122600000D03*
%TO.N,LED_3*%
X235999988Y-159100000D03*
X243999988Y-176100000D03*
%TO.N,LED_4*%
X235999988Y-176100000D03*
X265448788Y-209124800D03*
%TO.N,LED_2*%
X235999988Y-142100000D03*
X243999988Y-159100000D03*
%TO.N,LED_1*%
X243999988Y-142100000D03*
X235999988Y-125100000D03*
%TO.N,LED_START_5V*%
X239849988Y-115810000D03*
X238469988Y-119669104D03*
X243999988Y-125100000D03*
%TO.N,LED_5*%
X247528388Y-196788600D03*
X269448788Y-202196600D03*
%TO.N,RBottom*%
X193399988Y-171150000D03*
X211399988Y-168650000D03*
X247399988Y-173650000D03*
X254135037Y-141860451D03*
X229399988Y-171150000D03*
X255851788Y-141410000D03*
X157399988Y-176050000D03*
X175399988Y-176050000D03*
%TO.N,RHome*%
X157399988Y-159050000D03*
X247399988Y-156650000D03*
X193399988Y-154150000D03*
X254164136Y-139349550D03*
X211399988Y-151650000D03*
X229399988Y-154150000D03*
X175399988Y-159050000D03*
%TO.N,RTop*%
X211399988Y-134650000D03*
X247399988Y-139650000D03*
X254217287Y-136862701D03*
X157399988Y-142050000D03*
X193399988Y-137150000D03*
X175399988Y-142050000D03*
X229399988Y-137150000D03*
%TO.N,RNum*%
X157399988Y-125050000D03*
X254242288Y-134335500D03*
X229399988Y-120150000D03*
X247399988Y-122650000D03*
X175399988Y-125050000D03*
X193399988Y-120150000D03*
X259449488Y-133885000D03*
X211399988Y-117650000D03*
%TO.N,RMod*%
X256369988Y-190044500D03*
X193399988Y-188150000D03*
X229399988Y-188150000D03*
X251589988Y-194990000D03*
X265869988Y-213290000D03*
X254402288Y-144495500D03*
X256576288Y-143950000D03*
X211399988Y-185650000D03*
%TO.N,3V3*%
X258599988Y-132570000D03*
%TO.N,P0*%
X254307287Y-124175500D03*
%TO.N,P1*%
X254307288Y-126590500D03*
%TO.N,LED_START_3V3*%
X254212287Y-147017701D03*
X260159988Y-146490000D03*
X243709990Y-117800000D03*
%TO.N,TRS_DATA*%
X254297287Y-149575500D03*
%TO.N,P9*%
X254160038Y-152045450D03*
%TO.N,P10*%
X254116572Y-121521986D03*
%TO.N,OLED_SDA*%
X254789988Y-159260000D03*
X260119990Y-147760000D03*
%TD*%
D23*
%TO.N,COuter*%
X271149488Y-142362201D02*
X271149488Y-124184328D01*
X271424488Y-123909328D02*
X271424488Y-122516403D01*
X153124988Y-149641316D02*
X153124988Y-154800000D01*
X153124988Y-166641316D02*
X153124988Y-171800000D01*
X158324988Y-183075000D02*
X156524988Y-184875000D01*
X148909988Y-169770000D02*
X151089988Y-169770000D01*
X155949990Y-163816314D02*
X153124988Y-166641316D01*
X156524988Y-184875000D02*
X154223338Y-184875000D01*
X156469988Y-130311884D02*
X156469988Y-123100000D01*
X151089988Y-169770000D02*
X153279988Y-171970000D01*
X151089988Y-186770000D02*
X153279988Y-188970000D01*
X156039990Y-146726314D02*
X153124988Y-149641316D01*
X271149488Y-124184328D02*
X271424488Y-123909328D01*
X148909988Y-135770000D02*
X151089988Y-135770000D01*
X153124988Y-171800000D02*
X153274988Y-171950000D01*
X154992204Y-130774100D02*
X156007772Y-130774100D01*
X148909988Y-186770000D02*
X151089988Y-186770000D01*
X151089988Y-152770000D02*
X153279988Y-154970000D01*
X153274988Y-137950000D02*
X153124988Y-137800000D01*
X153124988Y-188800000D02*
X153274988Y-188950000D01*
X154489990Y-137950000D02*
X156039990Y-139500000D01*
X158324988Y-175450000D02*
X158324988Y-183075000D01*
X153124988Y-137800000D02*
X153124988Y-132641316D01*
X153124988Y-132641316D02*
X154992204Y-130774100D01*
X153124988Y-154800000D02*
X153274988Y-154950000D01*
X154824988Y-171950000D02*
X158324988Y-175450000D01*
X270969988Y-122061903D02*
X270969988Y-118870000D01*
X155949990Y-157625002D02*
X155949990Y-163816314D01*
X156007772Y-130774100D02*
X156469988Y-130311884D01*
X268291689Y-145220000D02*
X271149488Y-142362201D01*
X156039990Y-139500000D02*
X156039990Y-146726314D01*
X148909988Y-152770000D02*
X151089988Y-152770000D01*
X153274988Y-137950000D02*
X154489990Y-137950000D01*
X153274988Y-154950000D02*
X155949990Y-157625002D01*
X151089988Y-135770000D02*
X153279988Y-137970000D01*
X153124988Y-185973350D02*
X153124988Y-188800000D01*
X153274988Y-171950000D02*
X154824988Y-171950000D01*
X154223338Y-184875000D02*
X153124988Y-185973350D01*
X266219988Y-145220000D02*
X268291689Y-145220000D01*
X271424488Y-122516403D02*
X270969988Y-122061903D01*
%TO.N,outer_bottom*%
X141719988Y-186750000D02*
X143599988Y-184850000D01*
X157399988Y-182350000D02*
X157399988Y-180850000D01*
%TO.N,outer_home*%
X157399988Y-165350000D02*
X157399988Y-163850000D01*
X141719988Y-169750000D02*
X143599988Y-167850000D01*
%TO.N,outer_top*%
X141719988Y-152750000D02*
X143599988Y-150850000D01*
X157399988Y-148350000D02*
X157399988Y-146850000D01*
%TO.N,outer_num*%
X141719988Y-135750000D02*
X143599988Y-133850000D01*
X157399988Y-131350000D02*
X157399988Y-129850000D01*
%TO.N,CPinky*%
X270974488Y-122702799D02*
X270234488Y-121962799D01*
X166909988Y-152770000D02*
X169089988Y-152770000D01*
X171274988Y-171950000D02*
X173724988Y-174400000D01*
X173724988Y-147041316D02*
X171124988Y-149641316D01*
X171124988Y-154800000D02*
X171274988Y-154950000D01*
X270699488Y-140272201D02*
X270699488Y-123997932D01*
X169089988Y-135770000D02*
X171279988Y-137970000D01*
X174059988Y-129490000D02*
X171124988Y-132425000D01*
X173724988Y-181041316D02*
X171124988Y-183641316D01*
X187089988Y-198870000D02*
X189279988Y-201070000D01*
X171124988Y-166641316D02*
X171124988Y-171800000D01*
X184909988Y-198870000D02*
X187089988Y-198870000D01*
X266219988Y-142680000D02*
X268291689Y-142680000D01*
X268291689Y-142680000D02*
X270699488Y-140272201D01*
X171124988Y-132425000D02*
X171124988Y-137800000D01*
X173724988Y-174400000D02*
X173724988Y-181041316D01*
X171274988Y-154950000D02*
X173724988Y-157400000D01*
X270699488Y-123997932D02*
X270974488Y-123722932D01*
X173724988Y-140400000D02*
X173724988Y-147041316D01*
X171124988Y-183641316D02*
X171124988Y-188800000D01*
X270234488Y-121962799D02*
X270234488Y-120080405D01*
X166909988Y-169770000D02*
X169089988Y-169770000D01*
X171124988Y-149641316D02*
X171124988Y-154800000D01*
X166909988Y-186770000D02*
X169089988Y-186770000D01*
X166909988Y-135770000D02*
X169089988Y-135770000D01*
X173724988Y-164041316D02*
X171124988Y-166641316D01*
X174059988Y-124020000D02*
X174059988Y-129490000D01*
X169089988Y-152770000D02*
X171279988Y-154970000D01*
X169089988Y-169770000D02*
X171279988Y-171970000D01*
X171124988Y-137800000D02*
X171274988Y-137950000D01*
X270974488Y-123722932D02*
X270974488Y-122702799D01*
X169089988Y-186770000D02*
X171279988Y-188970000D01*
X171124988Y-188800000D02*
X171274988Y-188950000D01*
X171124988Y-171800000D02*
X171274988Y-171950000D01*
X173724988Y-157400000D02*
X173724988Y-164041316D01*
X171274988Y-137950000D02*
X173724988Y-140400000D01*
%TO.N,pinky_bottom*%
X159719988Y-186750000D02*
X161599988Y-184850000D01*
X175399988Y-182350000D02*
X175399988Y-180850000D01*
%TO.N,pinky_home*%
X175399988Y-165350000D02*
X175399988Y-163850000D01*
X159719988Y-169750000D02*
X161599988Y-167850000D01*
%TO.N,pinky_top*%
X159719988Y-152750000D02*
X161599988Y-150850000D01*
X175399988Y-148350000D02*
X175399988Y-146850000D01*
%TO.N,pinky_num*%
X159719988Y-135750000D02*
X161599988Y-133850000D01*
X175399988Y-131350000D02*
X175399988Y-129850000D01*
%TO.N,ring_mod*%
X177719988Y-198850000D02*
X179599988Y-196950000D01*
X193399988Y-194450000D02*
X193399988Y-192950000D01*
%TO.N,CRing*%
X189124988Y-127741316D02*
X189124988Y-132900000D01*
X189274988Y-167050000D02*
X191724988Y-169500000D01*
X269509988Y-121874695D02*
X270524488Y-122889195D01*
X189124988Y-149900000D02*
X189274988Y-150050000D01*
X191724988Y-142141316D02*
X189124988Y-144741316D01*
X184909988Y-164870000D02*
X187089988Y-164870000D01*
X191683672Y-184050000D02*
X202909988Y-195276316D01*
X189274988Y-133050000D02*
X191724988Y-135500000D01*
X184909988Y-147870000D02*
X187089988Y-147870000D01*
X191724988Y-135500000D02*
X191724988Y-142141316D01*
X191724988Y-169500000D02*
X191724988Y-176141316D01*
X187089988Y-130870000D02*
X189279988Y-133070000D01*
X184909988Y-130870000D02*
X187089988Y-130870000D01*
X269506334Y-119373650D02*
X269509988Y-119377304D01*
X202909988Y-196370000D02*
X205089988Y-196370000D01*
X191724988Y-176141316D02*
X189124988Y-178741316D01*
X269509988Y-119377304D02*
X269509988Y-121874695D01*
X270249488Y-138182201D02*
X268291689Y-140140000D01*
X192399988Y-124466316D02*
X189124988Y-127741316D01*
X268291689Y-140140000D02*
X266219988Y-140140000D01*
X188719988Y-166495000D02*
X189274988Y-167050000D01*
X270524488Y-122889195D02*
X270524488Y-123536536D01*
X189274988Y-150050000D02*
X191724988Y-152500000D01*
X270249488Y-123811536D02*
X270249488Y-138182201D01*
X184909988Y-181870000D02*
X187089988Y-181870000D01*
X191724988Y-159141316D02*
X188719988Y-162146316D01*
X205089988Y-196370000D02*
X207279988Y-198570000D01*
X189124988Y-178741316D02*
X189124988Y-183900000D01*
X187089988Y-181870000D02*
X189279988Y-184070000D01*
X189124988Y-144741316D02*
X189124988Y-149900000D01*
X202909988Y-195276316D02*
X202909988Y-196370000D01*
X187089988Y-164870000D02*
X189279988Y-167070000D01*
X187089988Y-147870000D02*
X189279988Y-150070000D01*
X189274988Y-184050000D02*
X191683672Y-184050000D01*
X189124988Y-132900000D02*
X189274988Y-133050000D01*
X188719988Y-162146316D02*
X188719988Y-166495000D01*
X192399988Y-116030000D02*
X192399988Y-124466316D01*
X270524488Y-123536536D02*
X270249488Y-123811536D01*
X191724988Y-152500000D02*
X191724988Y-159141316D01*
X189124988Y-183900000D02*
X189274988Y-184050000D01*
%TO.N,ring_bottom*%
X177719988Y-181850000D02*
X179599988Y-179950000D01*
X193399988Y-177450000D02*
X193399988Y-175950000D01*
%TO.N,ring_home*%
X193399988Y-160450000D02*
X193399988Y-158950000D01*
X177719988Y-164850000D02*
X179599988Y-162950000D01*
%TO.N,ring_top*%
X177719988Y-147850000D02*
X179599988Y-145950000D01*
X193399988Y-143450000D02*
X193399988Y-141950000D01*
%TO.N,ring_num*%
X193399988Y-126450000D02*
X193399988Y-124950000D01*
X177719988Y-130850000D02*
X179599988Y-128950000D01*
%TO.N,middle_mod*%
X195719988Y-196350000D02*
X197599988Y-194450000D01*
X211399988Y-191950000D02*
X211399988Y-190450000D01*
%TO.N,CMid*%
X209724988Y-150000000D02*
X209724988Y-156641316D01*
X207124988Y-176241316D02*
X207124988Y-181400000D01*
X210474988Y-167750000D02*
X210474988Y-172891316D01*
X205089988Y-128370000D02*
X207279988Y-130570000D01*
X210474988Y-172891316D02*
X207124988Y-176241316D01*
X202909988Y-162370000D02*
X205089988Y-162370000D01*
X209724988Y-156641316D02*
X207124988Y-159241316D01*
X205089988Y-179370000D02*
X207279988Y-181570000D01*
X207124988Y-142025000D02*
X207124988Y-147400000D01*
X205089988Y-162370000D02*
X207279988Y-164570000D01*
X207274988Y-181550000D02*
X208824988Y-181550000D01*
X207124988Y-130400000D02*
X207124988Y-123638173D01*
X207124988Y-159241316D02*
X207124988Y-164400000D01*
X207274988Y-130550000D02*
X207124988Y-130400000D01*
X268291689Y-137600000D02*
X266219988Y-137600000D01*
X202909988Y-128370000D02*
X205089988Y-128370000D01*
X207124988Y-147400000D02*
X207274988Y-147550000D01*
X207274988Y-130550000D02*
X210250293Y-133525305D01*
X207274988Y-147550000D02*
X209724988Y-150000000D01*
X208824988Y-181550000D02*
X214799988Y-187525000D01*
X207124988Y-123638173D02*
X210439988Y-120323173D01*
X207274988Y-164550000D02*
X210474988Y-167750000D01*
X220909988Y-197740000D02*
X220909988Y-198870000D01*
X223089988Y-198870000D02*
X225279988Y-201070000D01*
X214799988Y-191630000D02*
X220909988Y-197740000D01*
X220909988Y-198870000D02*
X223089988Y-198870000D01*
X214799988Y-187525000D02*
X214799988Y-191630000D01*
X210250293Y-133525305D02*
X210250293Y-138899695D01*
X269799488Y-136092201D02*
X268291689Y-137600000D01*
X210250293Y-138899695D02*
X207124988Y-142025000D01*
X269799488Y-123236231D02*
X269799488Y-136092201D01*
X205089988Y-145370000D02*
X207279988Y-147570000D01*
X207124988Y-181400000D02*
X207274988Y-181550000D01*
X202909988Y-145370000D02*
X205089988Y-145370000D01*
X202909988Y-179370000D02*
X205089988Y-179370000D01*
X207124988Y-164400000D02*
X207274988Y-164550000D01*
X210439988Y-120323173D02*
X210439988Y-116690000D01*
%TO.N,middle_bottom*%
X211399988Y-174950000D02*
X211399988Y-173450000D01*
X195719988Y-179350000D02*
X197599988Y-177450000D01*
%TO.N,middle_home*%
X211399988Y-157950000D02*
X211399988Y-156450000D01*
X195719988Y-162350000D02*
X197599988Y-160450000D01*
%TO.N,middle_top*%
X211399988Y-140950000D02*
X211399988Y-139450000D01*
X195719988Y-145350000D02*
X197599988Y-143450000D01*
%TO.N,middle_num*%
X211399988Y-123950000D02*
X211399988Y-122450000D01*
X195719988Y-128350000D02*
X197599988Y-126450000D01*
%TO.N,index_mod*%
X213719988Y-198850000D02*
X215599988Y-196950000D01*
X229399988Y-194450000D02*
X229399988Y-192950000D01*
%TO.N,CIndex*%
X228725888Y-178607784D02*
X227358672Y-179975000D01*
X225124988Y-126138173D02*
X225124988Y-132900000D01*
X220909988Y-164870000D02*
X223089988Y-164870000D01*
X228259988Y-119425500D02*
X228259988Y-123003173D01*
X220909988Y-147870000D02*
X223089988Y-147870000D01*
X225124988Y-166900000D02*
X225274988Y-167050000D01*
X223089988Y-147870000D02*
X225279988Y-150070000D01*
X225124988Y-161741316D02*
X225124988Y-166900000D01*
X228469988Y-158396316D02*
X225124988Y-161741316D01*
X220909988Y-181870000D02*
X223089988Y-181870000D01*
X226223338Y-179975000D02*
X225124988Y-181073350D01*
X228474988Y-141391316D02*
X225124988Y-144741316D01*
X225274988Y-184050000D02*
X226824988Y-184050000D01*
X225124988Y-181073350D02*
X225124988Y-183900000D01*
X223089988Y-181870000D02*
X225279988Y-184070000D01*
X223089988Y-164870000D02*
X225279988Y-167070000D01*
X228474988Y-136250000D02*
X228474988Y-141391316D01*
X228289988Y-170065000D02*
X228289988Y-177156316D01*
X240469988Y-203460000D02*
X242579988Y-204020000D01*
X237323115Y-200553127D02*
X237563115Y-200553127D01*
X228674988Y-177750305D02*
X228725888Y-177801205D01*
X225274988Y-167050000D02*
X228289988Y-170065000D01*
X225124988Y-144741316D02*
X225124988Y-149900000D01*
X220909988Y-130870000D02*
X223089988Y-130870000D01*
X225124988Y-183900000D02*
X225274988Y-184050000D01*
X223089988Y-130870000D02*
X225279988Y-133070000D01*
X225274988Y-150050000D02*
X228469988Y-153245000D01*
X237563115Y-200553127D02*
X240469988Y-203460000D01*
X235819988Y-199050000D02*
X237323115Y-200553127D01*
X226824988Y-184050000D02*
X235819988Y-193045000D01*
X225124988Y-149900000D02*
X225274988Y-150050000D01*
X228469988Y-153245000D02*
X228469988Y-158396316D01*
X227358672Y-179975000D02*
X226223338Y-179975000D01*
X269074988Y-124830000D02*
X269074988Y-134276701D01*
X228725888Y-177801205D02*
X228725888Y-178607784D01*
X225124988Y-132900000D02*
X225274988Y-133050000D01*
X269074988Y-134276701D02*
X268291689Y-135060000D01*
X228674988Y-177541316D02*
X228674988Y-177750305D01*
X268291689Y-135060000D02*
X266219988Y-135060000D01*
X228289988Y-177156316D02*
X228674988Y-177541316D01*
X235819988Y-193045000D02*
X235819988Y-199050000D01*
X228259988Y-123003173D02*
X225124988Y-126138173D01*
X242579988Y-204020000D02*
X244129988Y-206710000D01*
X225274988Y-133050000D02*
X228474988Y-136250000D01*
%TO.N,index_bottom*%
X213719988Y-181850000D02*
X215599988Y-179950000D01*
X229399988Y-177450000D02*
X229399988Y-175950000D01*
%TO.N,index_home*%
X213719988Y-164850000D02*
X215599988Y-162950000D01*
X229399988Y-160450000D02*
X229399988Y-158950000D01*
%TO.N,index_top*%
X213719988Y-147850000D02*
X215599988Y-145950000D01*
X229399988Y-143450000D02*
X229399988Y-141950000D01*
%TO.N,index_num*%
X229399988Y-126450000D02*
X229399988Y-124950000D01*
X213719988Y-130850000D02*
X215599988Y-128950000D01*
%TO.N,CInner*%
X241089988Y-150370000D02*
X243279988Y-152570000D01*
X245724988Y-138000000D02*
X245724988Y-144425000D01*
X259739988Y-202480000D02*
X256739988Y-203270000D01*
X249804988Y-121835000D02*
X250549988Y-121090000D01*
X243124988Y-147025000D02*
X243124988Y-152400000D01*
X241089988Y-133370000D02*
X243279988Y-135570000D01*
X249804988Y-123445000D02*
X249804988Y-121835000D01*
X245724988Y-155000000D02*
X245724988Y-161641316D01*
X243124988Y-130125000D02*
X249804988Y-123445000D01*
X242899988Y-164466316D02*
X242899988Y-169175000D01*
X242899988Y-169175000D02*
X243274988Y-169550000D01*
X241089988Y-184370000D02*
X243279988Y-186570000D01*
X250549988Y-121090000D02*
X252659988Y-121090000D01*
X243124988Y-135400000D02*
X243124988Y-130125000D01*
X246474988Y-177891316D02*
X243124988Y-181241316D01*
X243274988Y-135550000D02*
X245724988Y-138000000D01*
X243274988Y-169550000D02*
X246474988Y-172750000D01*
X245724988Y-161641316D02*
X242899988Y-164466316D01*
X243124988Y-186400000D02*
X243274988Y-186550000D01*
X246474988Y-172750000D02*
X246474988Y-177891316D01*
X243124988Y-181241316D02*
X243124988Y-186400000D01*
X238909988Y-167370000D02*
X241089988Y-167370000D01*
X243274988Y-152550000D02*
X245724988Y-155000000D01*
X238909988Y-184370000D02*
X241089988Y-184370000D01*
X243124988Y-152400000D02*
X243274988Y-152550000D01*
X238909988Y-133370000D02*
X241089988Y-133370000D01*
X241089988Y-167370000D02*
X243279988Y-169570000D01*
X245724988Y-144425000D02*
X243124988Y-147025000D01*
X243274988Y-135550000D02*
X243124988Y-135400000D01*
X238909988Y-150370000D02*
X241089988Y-150370000D01*
X260839988Y-200580000D02*
X259739988Y-202480000D01*
%TO.N,inner_bottom*%
X247399988Y-179950000D02*
X247399988Y-178450000D01*
X231719988Y-184350000D02*
X233599988Y-182450000D01*
%TO.N,inner_home*%
X231719988Y-167350000D02*
X233599988Y-165450000D01*
X247399988Y-162950000D02*
X247399988Y-161450000D01*
%TO.N,inner_top*%
X231719988Y-150350000D02*
X233599988Y-148450000D01*
X247399988Y-145950000D02*
X247399988Y-144450000D01*
%TO.N,inner_num*%
X247399988Y-128950000D02*
X247399988Y-127450000D01*
X231719988Y-133350000D02*
X233599988Y-131450000D01*
%TO.N,layer_cluster*%
X233539988Y-201580000D02*
X235839988Y-200240000D01*
X249819988Y-201390000D02*
X250199988Y-199940000D01*
%TO.N,space_cluster*%
X264439988Y-194370000D02*
X265149988Y-196940000D01*
X260409988Y-210140000D02*
X261709988Y-210890000D01*
%TO.N,RAW*%
X162999988Y-145350000D02*
X162999988Y-143650000D01*
X244679970Y-118455000D02*
X244530470Y-118604500D01*
X234999988Y-159950000D02*
X234999988Y-158250000D01*
X144999988Y-128350000D02*
X144999988Y-126650000D01*
X180999988Y-172750000D02*
X183449988Y-172750000D01*
X270889818Y-190945000D02*
X271644988Y-191700170D01*
X216999988Y-155750000D02*
X219449988Y-155750000D01*
X271644988Y-191700170D02*
X271644988Y-198473200D01*
X266999990Y-172770000D02*
X266859990Y-172910000D01*
X266999990Y-164590000D02*
X266999990Y-172770000D01*
X243720078Y-192044500D02*
X257198415Y-192044500D01*
X144999988Y-162350000D02*
X144999988Y-160650000D01*
X237449988Y-118550000D02*
X237449988Y-124350000D01*
X162999988Y-160650000D02*
X165449988Y-160650000D01*
X162999988Y-126650000D02*
X165449988Y-126650000D01*
X144999988Y-160650000D02*
X147449988Y-160650000D01*
X239033170Y-193720000D02*
X239055088Y-193638200D01*
X237099988Y-145050000D02*
X237099988Y-158000000D01*
X239449988Y-119300000D02*
X243834970Y-119300000D01*
X239055088Y-193638200D02*
X241421588Y-194272300D01*
X144999988Y-179350000D02*
X144999988Y-177650000D01*
X216999988Y-189750000D02*
X219449988Y-189750000D01*
X266859990Y-172910000D02*
X262109988Y-172910000D01*
X144999988Y-145350000D02*
X144999988Y-143650000D01*
X144999988Y-177650000D02*
X147449988Y-177650000D01*
X234999988Y-142950000D02*
X237099988Y-145050000D01*
X257609988Y-125025500D02*
X257549988Y-124965500D01*
X241395677Y-194368901D02*
X243720078Y-192044500D01*
X216999988Y-121750000D02*
X219449988Y-121750000D01*
X162999988Y-162350000D02*
X162999988Y-160650000D01*
X144999988Y-143650000D02*
X147449988Y-143650000D01*
X198999988Y-137950000D02*
X198999988Y-136250000D01*
X198999988Y-119250000D02*
X201449988Y-119250000D01*
X198999988Y-170250000D02*
X201449988Y-170250000D01*
X237099988Y-162050000D02*
X237099988Y-175000000D01*
X257549988Y-124965500D02*
X257549988Y-119380000D01*
X234999988Y-142950000D02*
X234999988Y-141250000D01*
X238699988Y-118550000D02*
X237449988Y-118550000D01*
X258297915Y-190945000D02*
X270889818Y-190945000D01*
X216999988Y-157450000D02*
X216999988Y-155750000D01*
X234999988Y-141250000D02*
X237449988Y-141250000D01*
X162999988Y-179350000D02*
X162999988Y-177650000D01*
X237099988Y-158000000D02*
X237449988Y-158350000D01*
X238615088Y-195280300D02*
X239033170Y-193720000D01*
X198999988Y-187250000D02*
X201449988Y-187250000D01*
X234999988Y-175250000D02*
X237449988Y-175250000D01*
X270684988Y-201755500D02*
X269459988Y-203877300D01*
X271644988Y-198473200D02*
X269212688Y-200905500D01*
X180999988Y-155750000D02*
X183449988Y-155750000D01*
X260799988Y-171600000D02*
X260799988Y-167000000D01*
X237099988Y-179050000D02*
X237099988Y-191683100D01*
X257198415Y-192044500D02*
X258297915Y-190945000D01*
X237099988Y-128050000D02*
X237099988Y-141000000D01*
X216999988Y-123450000D02*
X216999988Y-121750000D01*
X198999988Y-171950000D02*
X198999988Y-170250000D01*
X257549988Y-119380000D02*
X256624988Y-118455000D01*
X234999988Y-125950000D02*
X234999988Y-124250000D01*
X234999988Y-124250000D02*
X237449988Y-124250000D01*
X262109988Y-172910000D02*
X260799988Y-171600000D01*
X198999988Y-154950000D02*
X198999988Y-153250000D01*
X269212688Y-200905500D02*
X270684988Y-201755500D01*
X216999988Y-138750000D02*
X219449988Y-138750000D01*
X216999988Y-140450000D02*
X216999988Y-138750000D01*
X162999988Y-143650000D02*
X165449988Y-143650000D01*
X234999988Y-125950000D02*
X237099988Y-128050000D01*
X198999988Y-153250000D02*
X201449988Y-153250000D01*
X216999988Y-172750000D02*
X219449988Y-172750000D01*
X180999988Y-140450000D02*
X180999988Y-138750000D01*
X264949990Y-162540000D02*
X266999990Y-164590000D01*
X198999988Y-188950000D02*
X198999988Y-187250000D01*
X216999988Y-191450000D02*
X216999988Y-189750000D01*
X234999988Y-159950000D02*
X237099988Y-162050000D01*
X180999988Y-123450000D02*
X180999988Y-121750000D01*
X180999988Y-174450000D02*
X180999988Y-172750000D01*
X234999988Y-176950000D02*
X237099988Y-179050000D01*
X243834970Y-119300000D02*
X244530470Y-118604500D01*
X216999988Y-174450000D02*
X216999988Y-172750000D01*
X234999988Y-176950000D02*
X234999988Y-175250000D01*
X144999988Y-126650000D02*
X147449988Y-126650000D01*
X180999988Y-138750000D02*
X183449988Y-138750000D01*
X180999988Y-189750000D02*
X183449988Y-189750000D01*
X238699988Y-118550000D02*
X239449988Y-119300000D01*
X237099988Y-191683100D02*
X239055088Y-193638200D01*
X162999988Y-177650000D02*
X165449988Y-177650000D01*
X234999988Y-158250000D02*
X237449988Y-158250000D01*
X237099988Y-175000000D02*
X237449988Y-175350000D01*
X262429990Y-125025500D02*
X264949990Y-127545500D01*
X256624988Y-118455000D02*
X244679970Y-118455000D01*
X264949990Y-127545500D02*
X264949990Y-162540000D01*
X198999988Y-136250000D02*
X201449988Y-136250000D01*
X162999988Y-128350000D02*
X162999988Y-126650000D01*
X180999988Y-157450000D02*
X180999988Y-155750000D01*
X180999988Y-191450000D02*
X180999988Y-189750000D01*
X180999988Y-121750000D02*
X183449988Y-121750000D01*
X237099988Y-141000000D02*
X237449988Y-141350000D01*
X198999988Y-120950000D02*
X198999988Y-119250000D01*
%TO.N,GND*%
X190999988Y-155750000D02*
X190999988Y-157450000D01*
X226999988Y-174450000D02*
X224549988Y-174450000D01*
X238557906Y-132520000D02*
X237999988Y-133077918D01*
X226999988Y-121750000D02*
X226999988Y-123450000D01*
X272544988Y-204175714D02*
X266304902Y-210415800D01*
X172999988Y-179350000D02*
X170549988Y-179350000D01*
X242549988Y-125850000D02*
X242549988Y-130181776D01*
X240299988Y-116850000D02*
X240299988Y-118380000D01*
X154999988Y-177650000D02*
X154999988Y-179350000D01*
X244999988Y-175250000D02*
X244999988Y-176950000D01*
X242549988Y-142850000D02*
X242549988Y-147181776D01*
X244999988Y-159950000D02*
X242549988Y-159950000D01*
X154999988Y-145350000D02*
X152549988Y-145350000D01*
X208999988Y-119250000D02*
X208999988Y-120950000D01*
X172999988Y-128350000D02*
X170549988Y-128350000D01*
X172999988Y-162350000D02*
X170549988Y-162350000D01*
X154999988Y-128350000D02*
X152549988Y-128350000D01*
X208999988Y-136250000D02*
X208999988Y-137950000D01*
X255319988Y-121523320D02*
X253586668Y-119790000D01*
X261209988Y-127440000D02*
X261209988Y-120156269D01*
X248714288Y-196226400D02*
X248274288Y-197868500D01*
X190999988Y-138750000D02*
X190999988Y-140450000D01*
X244959988Y-156040000D02*
X244959988Y-158210000D01*
X258078719Y-117025000D02*
X242299988Y-117025000D01*
X226999988Y-140450000D02*
X224549988Y-140450000D01*
X240469988Y-118550000D02*
X241299988Y-118550000D01*
X242549988Y-176850000D02*
X242549988Y-181181776D01*
X271262610Y-190045000D02*
X272544988Y-191327378D01*
X243209988Y-173460000D02*
X244999988Y-175250000D01*
X240211764Y-183520000D02*
X238539988Y-183520000D01*
X257571570Y-190045000D02*
X271262610Y-190045000D01*
X172999988Y-177650000D02*
X172999988Y-179350000D01*
X237999988Y-136378427D02*
X241171561Y-139550000D01*
X226999988Y-189750000D02*
X226999988Y-191450000D01*
X208999988Y-170250000D02*
X208999988Y-171950000D01*
X190999988Y-172750000D02*
X190999988Y-174450000D01*
X244999988Y-158250000D02*
X244999988Y-159950000D01*
X264212688Y-209565800D02*
X265437688Y-207444000D01*
X248274288Y-197868500D02*
X245907788Y-197234400D01*
X226999988Y-157450000D02*
X224549988Y-157450000D01*
X154999988Y-162350000D02*
X152549988Y-162350000D01*
X245039988Y-141210000D02*
X244999988Y-141250000D01*
X242549988Y-147181776D02*
X240211764Y-149520000D01*
X241299988Y-116650000D02*
X240499988Y-116650000D01*
X265684988Y-210415800D02*
X264212688Y-209565800D01*
X154999988Y-128170000D02*
X154999988Y-128350000D01*
X208999988Y-120950000D02*
X206549988Y-120950000D01*
X154999988Y-160650000D02*
X154999988Y-162350000D01*
X154999988Y-126650000D02*
X154999988Y-128170000D01*
X226999988Y-138750000D02*
X226999988Y-140450000D01*
X208999988Y-154950000D02*
X206549988Y-154950000D01*
X190999988Y-121750000D02*
X190999988Y-123450000D01*
X237999988Y-133077918D02*
X237999988Y-136378427D01*
X208999988Y-187250000D02*
X208999988Y-188950000D01*
X242324988Y-160075000D02*
X242324988Y-164406776D01*
X208999988Y-137950000D02*
X206549988Y-137950000D01*
X255319988Y-127440000D02*
X255319988Y-121523320D01*
X237999988Y-150077918D02*
X237999988Y-153378427D01*
X238539988Y-183520000D02*
X237999988Y-184060000D01*
X190999988Y-157450000D02*
X188549988Y-157450000D01*
X241171561Y-139550000D02*
X245039988Y-139550000D01*
X237999988Y-170378427D02*
X241081561Y-173460000D01*
X172999988Y-160650000D02*
X172999988Y-162350000D01*
X244999988Y-176950000D02*
X242549988Y-176950000D01*
X241494488Y-190894500D02*
X256722070Y-190894500D01*
X256722070Y-190894500D02*
X257571570Y-190045000D01*
X226999988Y-155750000D02*
X226999988Y-157450000D01*
X242549988Y-181181776D02*
X240211764Y-183520000D01*
X240211764Y-166520000D02*
X238529988Y-166520000D01*
X240499988Y-116650000D02*
X240299988Y-116850000D01*
X242549988Y-159850000D02*
X242324988Y-160075000D01*
X154999988Y-179350000D02*
X152549988Y-179350000D01*
X190999988Y-191450000D02*
X188549988Y-191450000D01*
X261209988Y-120156269D02*
X258078719Y-117025000D01*
X238529988Y-166520000D02*
X237999988Y-167050000D01*
X237999988Y-167050000D02*
X237999988Y-170378427D01*
X238557906Y-149520000D02*
X237999988Y-150077918D01*
X172999988Y-145350000D02*
X170549988Y-145350000D01*
X240211764Y-149520000D02*
X238557906Y-149520000D01*
X241081561Y-173460000D02*
X243209988Y-173460000D01*
X226999988Y-123450000D02*
X224549988Y-123450000D01*
X240299988Y-118380000D02*
X240469988Y-118550000D01*
X244999988Y-124250000D02*
X244999988Y-125950000D01*
X226999988Y-191450000D02*
X224549988Y-191450000D01*
X154999988Y-143650000D02*
X154999988Y-145350000D01*
X244959988Y-158210000D02*
X244999988Y-158250000D01*
X172999988Y-143650000D02*
X172999988Y-145350000D01*
X244999988Y-125950000D02*
X242549988Y-125950000D01*
X237999988Y-153378427D02*
X240661561Y-156040000D01*
X237999988Y-184060000D02*
X237999988Y-187400000D01*
X190999988Y-123450000D02*
X188549988Y-123450000D01*
X190999988Y-140450000D02*
X188549988Y-140450000D01*
X208999988Y-153250000D02*
X208999988Y-154950000D01*
X262409988Y-165610000D02*
X263799988Y-167000000D01*
X241924988Y-116650000D02*
X241299988Y-116650000D01*
X242549988Y-130181776D02*
X240211764Y-132520000D01*
X208999988Y-171950000D02*
X206549988Y-171950000D01*
X266304902Y-210415800D02*
X265684988Y-210415800D01*
X208999988Y-188950000D02*
X206549988Y-188950000D01*
X244999988Y-141250000D02*
X244999988Y-142950000D01*
X242324988Y-164406776D02*
X240211764Y-166520000D01*
X263799988Y-167000000D02*
X263799988Y-171600000D01*
X245039988Y-139550000D02*
X245039988Y-141210000D01*
X237999988Y-187400000D02*
X241494488Y-190894500D01*
X226999988Y-172750000D02*
X226999988Y-174450000D01*
X253586668Y-119790000D02*
X251639988Y-119790000D01*
X172999988Y-126650000D02*
X172999988Y-128350000D01*
X262409988Y-156100000D02*
X262409988Y-165610000D01*
X240661561Y-156040000D02*
X244959988Y-156040000D01*
X272544988Y-191327378D02*
X272544988Y-204175714D01*
X190999988Y-174450000D02*
X188549988Y-174450000D01*
X240211764Y-132520000D02*
X238557906Y-132520000D01*
X251639988Y-119790000D02*
X251159988Y-120270000D01*
X244999988Y-142950000D02*
X242549988Y-142950000D01*
X242299988Y-117025000D02*
X241924988Y-116650000D01*
X190999988Y-189750000D02*
X190999988Y-191450000D01*
%TO.N,LED_25*%
X152549988Y-177750000D02*
X153249988Y-177750000D01*
X163999988Y-178500000D02*
X164749988Y-179250000D01*
X153249988Y-177750000D02*
X153999988Y-178500000D01*
X164749988Y-179250000D02*
X165449988Y-179250000D01*
%TO.N,LED_26*%
X145999988Y-178500000D02*
X146749988Y-179250000D01*
X144274988Y-177738604D02*
X144274988Y-179650305D01*
X146749988Y-179250000D02*
X147449988Y-179250000D01*
X144274988Y-179650305D02*
X144699683Y-180075000D01*
X149644989Y-163400000D02*
X147399990Y-165644999D01*
X152549988Y-160750000D02*
X153249988Y-160750000D01*
X144699683Y-180075000D02*
X145300293Y-180075000D01*
X147399990Y-174613602D02*
X144274988Y-177738604D01*
X147399990Y-165644999D02*
X147399990Y-174613602D01*
X145300293Y-180075000D02*
X145999988Y-179375305D01*
X152539990Y-163400000D02*
X149644989Y-163400000D01*
X153249988Y-160750000D02*
X153999988Y-161500000D01*
X145999988Y-179375305D02*
X145999988Y-178500000D01*
%TO.N,LED_27*%
X152599990Y-146540000D02*
X152599990Y-149354997D01*
X153249988Y-143750000D02*
X153999988Y-144500000D01*
X150194987Y-151760000D02*
X147379990Y-151760000D01*
X146624988Y-163075000D02*
X147449988Y-162250000D01*
X147379990Y-151760000D02*
X147379990Y-157633602D01*
X146749988Y-162250000D02*
X147449988Y-162250000D01*
X145999988Y-161500000D02*
X146749988Y-162250000D01*
X144699683Y-163075000D02*
X146624988Y-163075000D01*
X152599990Y-149354997D02*
X150194987Y-151760000D01*
X152549988Y-143750000D02*
X153249988Y-143750000D01*
X147379990Y-157633602D02*
X144274988Y-160738604D01*
X144274988Y-162650305D02*
X144699683Y-163075000D01*
X144274988Y-160738604D02*
X144274988Y-162650305D01*
%TO.N,LED_28*%
X152569990Y-129259502D02*
X149785487Y-129259502D01*
X146749988Y-145250000D02*
X147449988Y-145250000D01*
X146624988Y-146075000D02*
X147449988Y-145250000D01*
X144274988Y-145650305D02*
X144699683Y-146075000D01*
X145999988Y-144500000D02*
X146749988Y-145250000D01*
X149785487Y-129259502D02*
X146874988Y-132170001D01*
X152549988Y-126750000D02*
X153249988Y-126750000D01*
X146874988Y-141138604D02*
X144274988Y-143738604D01*
X144274988Y-143738604D02*
X144274988Y-145650305D01*
X153249988Y-126750000D02*
X153999988Y-127500000D01*
X144699683Y-146075000D02*
X146624988Y-146075000D01*
X146874988Y-132170001D02*
X146874988Y-141138604D01*
%TO.N,LED_29*%
X146749988Y-128250000D02*
X147449988Y-128250000D01*
X145999988Y-127500000D02*
X146749988Y-128250000D01*
%TO.N,LED_24*%
X165449988Y-162250000D02*
X165449988Y-172051650D01*
X170549988Y-177151650D02*
X170549988Y-177750000D01*
X164749988Y-162250000D02*
X165449988Y-162250000D01*
X171249988Y-177750000D02*
X171999988Y-178500000D01*
X163999988Y-161500000D02*
X164749988Y-162250000D01*
X165449988Y-172051650D02*
X170549988Y-177151650D01*
X170549988Y-177750000D02*
X171249988Y-177750000D01*
%TO.N,LED_23*%
X170549988Y-160750000D02*
X171249988Y-160750000D01*
X171249988Y-160750000D02*
X171999988Y-161500000D01*
X163999988Y-144500000D02*
X164749988Y-145250000D01*
X164749988Y-145250000D02*
X165449988Y-145250000D01*
X165449988Y-155051650D02*
X170549988Y-160151650D01*
X170549988Y-160151650D02*
X170549988Y-160750000D01*
X165449988Y-145250000D02*
X165449988Y-155051650D01*
%TO.N,LED_22*%
X165449988Y-138051650D02*
X170549988Y-143151650D01*
X164749988Y-128250000D02*
X165449988Y-128250000D01*
X170549988Y-143151650D02*
X170549988Y-143750000D01*
X165449988Y-128250000D02*
X165449988Y-138051650D01*
X163999988Y-127500000D02*
X164749988Y-128250000D01*
X170549988Y-143750000D02*
X171249988Y-143750000D01*
X171249988Y-143750000D02*
X171999988Y-144500000D01*
%TO.N,LED_21*%
X170549988Y-126750000D02*
X171249988Y-126750000D01*
X171249988Y-126750000D02*
X171999988Y-127500000D01*
X182749988Y-123350000D02*
X183449988Y-123350000D01*
X181999988Y-122600000D02*
X182749988Y-123350000D01*
%TO.N,LED_16*%
X189249988Y-189850000D02*
X189999988Y-190600000D01*
X188549988Y-189850000D02*
X189249988Y-189850000D01*
X199999988Y-188100000D02*
X200749988Y-188850000D01*
X200749988Y-188850000D02*
X201449988Y-188850000D01*
%TO.N,LED_17*%
X188549988Y-172850000D02*
X189249988Y-172850000D01*
X185785487Y-175359502D02*
X182874988Y-178270001D01*
X189249988Y-172850000D02*
X189999988Y-173600000D01*
X188599990Y-175359502D02*
X185785487Y-175359502D01*
X182874988Y-178270001D02*
X182874988Y-187238604D01*
X182874988Y-187238604D02*
X180274988Y-189838604D01*
X182749988Y-191350000D02*
X183449988Y-191350000D01*
X180274988Y-189838604D02*
X180274988Y-191750305D01*
X180274988Y-191750305D02*
X180699683Y-192175000D01*
X181999988Y-190600000D02*
X182749988Y-191350000D01*
X182624988Y-192175000D02*
X183449988Y-191350000D01*
X180699683Y-192175000D02*
X182624988Y-192175000D01*
%TO.N,LED_18*%
X182749988Y-174350000D02*
X183449988Y-174350000D01*
X189249988Y-155850000D02*
X189999988Y-156600000D01*
X181999988Y-173600000D02*
X182749988Y-174350000D01*
X185785487Y-158359502D02*
X183899990Y-160244999D01*
X182624988Y-175175000D02*
X183449988Y-174350000D01*
X183899990Y-160244999D02*
X183899990Y-169213602D01*
X188539990Y-158359502D02*
X185785487Y-158359502D01*
X180274988Y-174750305D02*
X180699683Y-175175000D01*
X180274988Y-172838604D02*
X180274988Y-174750305D01*
X180699683Y-175175000D02*
X182624988Y-175175000D01*
X183899990Y-169213602D02*
X180274988Y-172838604D01*
X188549988Y-155850000D02*
X189249988Y-155850000D01*
%TO.N,LED_19*%
X183119990Y-144024999D02*
X183119990Y-152993602D01*
X180274988Y-155838604D02*
X180274988Y-157750305D01*
X188629990Y-141359502D02*
X185785487Y-141359502D01*
X183119990Y-152993602D02*
X180274988Y-155838604D01*
X188549988Y-138850000D02*
X189249988Y-138850000D01*
X181999988Y-156600000D02*
X182749988Y-157350000D01*
X182624988Y-158175000D02*
X183449988Y-157350000D01*
X180274988Y-157750305D02*
X180699683Y-158175000D01*
X182749988Y-157350000D02*
X183449988Y-157350000D01*
X189249988Y-138850000D02*
X189999988Y-139600000D01*
X180699683Y-158175000D02*
X182624988Y-158175000D01*
X185785487Y-141359502D02*
X183119990Y-144024999D01*
%TO.N,LED_20*%
X180274988Y-140750305D02*
X180699683Y-141175000D01*
X182749988Y-140350000D02*
X183449988Y-140350000D01*
X182679990Y-131780000D02*
X182679990Y-136433602D01*
X184314990Y-130145000D02*
X182679990Y-131780000D01*
X190229990Y-124240000D02*
X190229990Y-125824997D01*
X188549988Y-121850000D02*
X189249988Y-121850000D01*
X182679990Y-136433602D02*
X180274988Y-138838604D01*
X190229990Y-125824997D02*
X185909987Y-130145000D01*
X181999988Y-139600000D02*
X182749988Y-140350000D01*
X180699683Y-141175000D02*
X182624988Y-141175000D01*
X185909987Y-130145000D02*
X184314990Y-130145000D01*
X180274988Y-138838604D02*
X180274988Y-140750305D01*
X189249988Y-121850000D02*
X189999988Y-122600000D01*
X182624988Y-141175000D02*
X183449988Y-140350000D01*
%TO.N,LED_15*%
X207249988Y-187350000D02*
X207999988Y-188100000D01*
X206549988Y-187350000D02*
X207249988Y-187350000D01*
X200749988Y-171850000D02*
X201449988Y-171850000D01*
X201449988Y-171850000D02*
X201449988Y-181651650D01*
X201449988Y-181651650D02*
X206549988Y-186751650D01*
X206549988Y-186751650D02*
X206549988Y-187350000D01*
X199999988Y-171100000D02*
X200749988Y-171850000D01*
%TO.N,LED_14*%
X206549988Y-170350000D02*
X207249988Y-170350000D01*
X201449988Y-164651650D02*
X206549988Y-169751650D01*
X207249988Y-170350000D02*
X207999988Y-171100000D01*
X199999988Y-154100000D02*
X200749988Y-154850000D01*
X206549988Y-169751650D02*
X206549988Y-170350000D01*
X200749988Y-154850000D02*
X201449988Y-154850000D01*
X201449988Y-154850000D02*
X201449988Y-164651650D01*
%TO.N,LED_13*%
X199999988Y-137100000D02*
X200749988Y-137850000D01*
X201449988Y-137850000D02*
X201449988Y-147651650D01*
X200749988Y-137850000D02*
X201449988Y-137850000D01*
X206549988Y-152751650D02*
X206549988Y-153350000D01*
X207249988Y-153350000D02*
X207999988Y-154100000D01*
X201449988Y-147651650D02*
X206549988Y-152751650D01*
X206549988Y-153350000D02*
X207249988Y-153350000D01*
%TO.N,LED_12*%
X199999988Y-120100000D02*
X200749988Y-120850000D01*
X200749988Y-120850000D02*
X201449988Y-120850000D01*
X207249988Y-136350000D02*
X207999988Y-137100000D01*
X206549988Y-136350000D02*
X207249988Y-136350000D01*
X201449988Y-130651650D02*
X206549988Y-135751650D01*
X206549988Y-135751650D02*
X206549988Y-136350000D01*
X201449988Y-120850000D02*
X201449988Y-130651650D01*
%TO.N,LED_11*%
X206549988Y-119350000D02*
X207249988Y-119350000D01*
X217999988Y-122600000D02*
X218749988Y-123350000D01*
X207249988Y-119350000D02*
X207999988Y-120100000D01*
X218749988Y-123350000D02*
X219449988Y-123350000D01*
%TO.N,LED_6*%
X239800988Y-194718100D02*
X240331288Y-195636600D01*
X224549988Y-189850000D02*
X225249988Y-189850000D01*
X225249988Y-189850000D02*
X225999988Y-190600000D01*
X240331288Y-195636600D02*
X241007488Y-195817800D01*
%TO.N,LED_7*%
X218624988Y-192175000D02*
X219449988Y-191350000D01*
X224549988Y-172850000D02*
X225249988Y-172850000D01*
X224629990Y-175410000D02*
X221734989Y-175410000D01*
X218879990Y-184980000D02*
X218879990Y-187233602D01*
X218879990Y-178264999D02*
X218879990Y-184980000D01*
X216699683Y-192175000D02*
X218624988Y-192175000D01*
X218749988Y-191350000D02*
X219449988Y-191350000D01*
X216274988Y-191750305D02*
X216699683Y-192175000D01*
X221734989Y-175410000D02*
X218879990Y-178264999D01*
X216274988Y-189838604D02*
X216274988Y-191750305D01*
X225249988Y-172850000D02*
X225999988Y-173600000D01*
X218879990Y-187233602D02*
X216274988Y-189838604D01*
X217999988Y-190600000D02*
X218749988Y-191350000D01*
%TO.N,LED_8*%
X218624988Y-175175000D02*
X216624990Y-175175000D01*
X221349990Y-163190000D02*
X222949990Y-163190000D01*
X217999988Y-173600000D02*
X218749988Y-174350000D01*
X218749988Y-174350000D02*
X219449988Y-174350000D01*
X225249988Y-155850000D02*
X225999988Y-156600000D01*
X216274988Y-174824998D02*
X216274988Y-168265002D01*
X219449988Y-174350000D02*
X218624988Y-175175000D01*
X216624990Y-175175000D02*
X216274988Y-174824998D01*
X222949990Y-163190000D02*
X224569990Y-161570000D01*
X216274988Y-168265002D02*
X221349990Y-163190000D01*
X224549988Y-155850000D02*
X225249988Y-155850000D01*
X224569990Y-161570000D02*
X224569990Y-158440000D01*
%TO.N,LED_9*%
X217999988Y-156600000D02*
X218749988Y-157350000D01*
X218624988Y-158175000D02*
X216699683Y-158175000D01*
X219449988Y-157350000D02*
X218624988Y-158175000D01*
X216699683Y-158175000D02*
X216274988Y-157750305D01*
X218749988Y-157350000D02*
X219449988Y-157350000D01*
X224629990Y-141730000D02*
X225094490Y-141265500D01*
X216274988Y-151415002D02*
X221500490Y-146189500D01*
X225249988Y-138850000D02*
X225999988Y-139600000D01*
X225094490Y-141265500D02*
X225849990Y-141265500D01*
X221500490Y-146189500D02*
X222865487Y-146189500D01*
X216274988Y-157750305D02*
X216274988Y-151415002D01*
X224629990Y-144424997D02*
X224629990Y-141730000D01*
X222865487Y-146189500D02*
X224629990Y-144424997D01*
X224549988Y-138850000D02*
X225249988Y-138850000D01*
%TO.N,LED_10*%
X218624988Y-141175000D02*
X219449988Y-140350000D01*
X222865487Y-129189500D02*
X221565183Y-129189500D01*
X224549988Y-124999998D02*
X224549988Y-127504999D01*
X224549988Y-121850000D02*
X225249988Y-121850000D01*
X225249988Y-121850000D02*
X225999988Y-122600000D01*
X216274988Y-134479695D02*
X216274988Y-140750305D01*
X218749988Y-140350000D02*
X219449988Y-140350000D01*
X216699683Y-141175000D02*
X218624988Y-141175000D01*
X221565183Y-129189500D02*
X216274988Y-134479695D01*
X217999988Y-139600000D02*
X218749988Y-140350000D01*
X216274988Y-140750305D02*
X216699683Y-141175000D01*
X224549988Y-127504999D02*
X222865487Y-129189500D01*
%TO.N,LED_3*%
X243249988Y-175350000D02*
X243999988Y-176100000D01*
X237549988Y-159950000D02*
X237549988Y-170564823D01*
X237449988Y-159850000D02*
X237549988Y-159950000D01*
X241285165Y-174300000D02*
X242249990Y-174300000D01*
X235999988Y-159100000D02*
X236749988Y-159850000D01*
X242549988Y-174599998D02*
X242549988Y-175350000D01*
X237549988Y-170564823D02*
X241285165Y-174300000D01*
X242549988Y-175350000D02*
X243249988Y-175350000D01*
X242249990Y-174300000D02*
X242549988Y-174599998D01*
X236749988Y-159850000D02*
X237449988Y-159850000D01*
%TO.N,LED_4*%
X237549988Y-187586396D02*
X237549988Y-176950000D01*
X271076214Y-190495000D02*
X257934742Y-190495000D01*
X266823388Y-208244000D02*
X266473388Y-208850200D01*
X266473388Y-208850200D02*
X265448788Y-209124800D01*
X235999988Y-176100000D02*
X236749988Y-176850000D01*
X272094988Y-191513774D02*
X271076214Y-190495000D01*
X256960242Y-191469500D02*
X241433092Y-191469500D01*
X237549988Y-176950000D02*
X237449988Y-176850000D01*
X272094988Y-203989318D02*
X272094988Y-191513774D01*
X266823350Y-208244032D02*
X267840274Y-208244032D01*
X241433092Y-191469500D02*
X237549988Y-187586396D01*
X267840274Y-208244032D02*
X272094988Y-203989318D01*
X236749988Y-176850000D02*
X237449988Y-176850000D01*
X257934742Y-190495000D02*
X256960242Y-191469500D01*
%TO.N,LED_2*%
X242549988Y-158350000D02*
X243249988Y-158350000D01*
X243249988Y-158350000D02*
X243999988Y-159100000D01*
X242549988Y-157690000D02*
X242549988Y-158350000D01*
X237549988Y-153564823D02*
X240475165Y-156490000D01*
X241349988Y-156490000D02*
X242549988Y-157690000D01*
X237449988Y-142850000D02*
X237549988Y-142950000D01*
X236749988Y-142850000D02*
X237449988Y-142850000D01*
X237549988Y-142950000D02*
X237549988Y-153564823D01*
X235999988Y-142100000D02*
X236749988Y-142850000D01*
X240475165Y-156490000D02*
X241349988Y-156490000D01*
%TO.N,LED_1*%
X242549988Y-141350000D02*
X243249988Y-141350000D01*
X241185165Y-140200000D02*
X241709988Y-140200000D01*
X241709988Y-140200000D02*
X242549988Y-141040000D01*
X237549988Y-125950000D02*
X237549988Y-136564823D01*
X243249988Y-141350000D02*
X243999988Y-142100000D01*
X237449988Y-125850000D02*
X237549988Y-125950000D01*
X236749988Y-125850000D02*
X237449988Y-125850000D01*
X242549988Y-141040000D02*
X242549988Y-141350000D01*
X235999988Y-125100000D02*
X236749988Y-125850000D01*
X237549988Y-136564823D02*
X241185165Y-140200000D01*
%TO.N,LED_START_5V*%
X238469988Y-119669104D02*
X242549988Y-123749104D01*
X242549988Y-123749104D02*
X242549988Y-124350000D01*
X243249988Y-124350000D02*
X243999988Y-125100000D01*
X242549988Y-124350000D02*
X243249988Y-124350000D01*
X238699988Y-116650000D02*
X238549988Y-116650000D01*
X238699988Y-116650000D02*
X239009988Y-116650000D01*
X239009988Y-116650000D02*
X239849988Y-115810000D01*
%TO.N,LED_5*%
X246998088Y-195870100D02*
X247528388Y-196788600D01*
X268912383Y-200180500D02*
X269124516Y-200180500D01*
X257436588Y-192619500D02*
X246656663Y-192619500D01*
X268074312Y-201018571D02*
X268912383Y-200180500D01*
X268074312Y-203077302D02*
X268074312Y-201018571D01*
X271194988Y-198110028D02*
X271194988Y-191886566D01*
X246656663Y-195354114D02*
X246321899Y-195688878D01*
X246321888Y-195688900D02*
X246998088Y-195870100D01*
X246656663Y-192619500D02*
X246656663Y-195354114D01*
X268424288Y-202471100D02*
X268074288Y-203077300D01*
X271194988Y-191886566D02*
X270703422Y-191395000D01*
X270703422Y-191395000D02*
X258661088Y-191395000D01*
X258661088Y-191395000D02*
X257436588Y-192619500D01*
X269124516Y-200180500D02*
X271194988Y-198110028D01*
X269448788Y-202196600D02*
X268424288Y-202471100D01*
%TO.N,RBottom*%
X157399988Y-176050000D02*
X157399988Y-177550000D01*
X255851788Y-152015401D02*
X255851788Y-141410000D01*
X253315488Y-142680000D02*
X250979988Y-142680000D01*
X249749988Y-157100000D02*
X250767189Y-157100000D01*
X175399988Y-176050000D02*
X175399988Y-177550000D01*
X248369988Y-172680000D02*
X248369988Y-158480000D01*
X211399988Y-168650000D02*
X211399988Y-170150000D01*
X247399988Y-173650000D02*
X248369988Y-172680000D01*
X254135037Y-141860451D02*
X253315488Y-142680000D01*
X250767189Y-157100000D02*
X255851788Y-152015401D01*
X193399988Y-171150000D02*
X193399988Y-172650000D01*
X229399988Y-171150000D02*
X229399988Y-172650000D01*
X248369988Y-158480000D02*
X249749988Y-157100000D01*
X247399988Y-173650000D02*
X247399988Y-175150000D01*
%TO.N,RHome*%
X255127288Y-140312702D02*
X254164136Y-139349550D01*
X229399988Y-154150000D02*
X229399988Y-155650000D01*
X255127288Y-152103505D02*
X255127288Y-140312702D01*
X253373686Y-140140000D02*
X250979988Y-140140000D01*
X247399988Y-156650000D02*
X247399988Y-158150000D01*
X247399988Y-156650000D02*
X250580793Y-156650000D01*
X250580793Y-156650000D02*
X255127288Y-152103505D01*
X211399988Y-151650000D02*
X211399988Y-153150000D01*
X157399988Y-159050000D02*
X157399988Y-160550000D01*
X254164136Y-139349550D02*
X253373686Y-140140000D01*
X193399988Y-154150000D02*
X193399988Y-155650000D01*
X175399988Y-159050000D02*
X175399988Y-160550000D01*
%TO.N,RTop*%
X247399988Y-139650000D02*
X247399988Y-141150000D01*
X253479988Y-137600000D02*
X250979988Y-137600000D01*
X254217287Y-136862701D02*
X253479988Y-137600000D01*
X175399988Y-142050000D02*
X175399988Y-143550000D01*
X229399988Y-137150000D02*
X229399988Y-138650000D01*
X157399988Y-142050000D02*
X157399988Y-143550000D01*
X211399988Y-134650000D02*
X211399988Y-136150000D01*
X193399988Y-137150000D02*
X193399988Y-138650000D01*
%TO.N,RNum*%
X211399988Y-117650000D02*
X211399988Y-119150000D01*
X247399988Y-122650000D02*
X247399988Y-124150000D01*
X229399988Y-120150000D02*
X229399988Y-121650000D01*
X256884988Y-122275148D02*
X253824840Y-119215000D01*
X250834988Y-119215000D02*
X247399988Y-122650000D01*
X256884988Y-126595000D02*
X256884988Y-122275148D01*
X259449488Y-129159500D02*
X256884988Y-126595000D01*
X253824840Y-119215000D02*
X250834988Y-119215000D01*
X253517788Y-135060000D02*
X250979988Y-135060000D01*
X193399988Y-120150000D02*
X193399988Y-121650000D01*
X259449488Y-133885000D02*
X259449488Y-129159500D01*
X157399988Y-125050000D02*
X157399988Y-126550000D01*
X175399988Y-125050000D02*
X175399988Y-126550000D01*
X254242288Y-134335500D02*
X253517788Y-135060000D01*
%TO.N,RMod*%
X256574990Y-151928595D02*
X256574990Y-143951298D01*
X265869988Y-213290000D02*
X264569988Y-212540000D01*
X251058403Y-195521585D02*
X251589988Y-194990000D01*
X251449988Y-157053597D02*
X256574990Y-151928595D01*
X251058403Y-196750965D02*
X251058403Y-195521585D01*
X256369988Y-190044500D02*
X256369988Y-188460000D01*
X229399988Y-188150000D02*
X229399988Y-189650000D01*
X256369988Y-188460000D02*
X251449988Y-183540000D01*
X254402288Y-144495500D02*
X253677788Y-145220000D01*
X251449988Y-183540000D02*
X251449988Y-157053597D01*
X193399988Y-188150000D02*
X193399988Y-189650000D01*
X256574990Y-143951298D02*
X256576288Y-143950000D01*
X211399988Y-185650000D02*
X211399988Y-187150000D01*
X253677788Y-145220000D02*
X250979988Y-145220000D01*
%TO.N,3V3*%
X258599988Y-132570000D02*
X258599988Y-154420000D01*
%TO.N,P0*%
X254307287Y-124175500D02*
X253582787Y-124900000D01*
X253582787Y-124900000D02*
X250979988Y-124900000D01*
%TO.N,P1*%
X254307288Y-126590500D02*
X253457788Y-127440000D01*
X253457788Y-127440000D02*
X250979988Y-127440000D01*
%TO.N,LED_START_3V3*%
X241299988Y-117600000D02*
X243509990Y-117600000D01*
X254212287Y-147017701D02*
X253469988Y-147760000D01*
X260174488Y-120130769D02*
X257933719Y-117890000D01*
X253469988Y-147760000D02*
X250979988Y-147760000D01*
X243509990Y-117600000D02*
X243709990Y-117800000D01*
X260159988Y-146490000D02*
X260174488Y-146475500D01*
X260174488Y-146475500D02*
X260174488Y-120130769D01*
X257929990Y-117890000D02*
X257869990Y-117830000D01*
X257869990Y-117830000D02*
X243739990Y-117830000D01*
X243739990Y-117830000D02*
X243709990Y-117800000D01*
X241309988Y-117610000D02*
X241299988Y-117600000D01*
X257933719Y-117890000D02*
X257929990Y-117890000D01*
%TO.N,TRS_DATA*%
X256799988Y-167000000D02*
X256799988Y-171600000D01*
X254297287Y-149575500D02*
X253572787Y-150300000D01*
X253572787Y-150300000D02*
X250979988Y-150300000D01*
%TO.N,P9*%
X254160038Y-152045450D02*
X253365488Y-152840000D01*
X253365488Y-152840000D02*
X250979988Y-152840000D01*
%TO.N,P10*%
X253278558Y-122360000D02*
X250979988Y-122360000D01*
X254116572Y-121521986D02*
X253278558Y-122360000D01*
%TO.N,OLED_SDA*%
X254789988Y-159260000D02*
X254789988Y-156100000D01*
X263679988Y-151319998D02*
X263679988Y-154420000D01*
X260119990Y-147760000D02*
X263679988Y-151319998D01*
%TD*%
M02*
