M48
; DRILL file {KiCad 7.0.7} date 2023 October 16, Monday 17:22:35
; FORMAT={-:-/ absolute / inch / decimal}
; #@! TF.CreationDate,2023-10-16T17:22:35-07:00
; #@! TF.GenerationSoftware,Kicad,Pcbnew,7.0.7
; #@! TF.FileFunction,NonPlated,1,2,NPTH
FMAT,2
INCH
; #@! TA.AperFunction,NonPlated,NPTH,ComponentDrill
T1C0.0591
; #@! TA.AperFunction,NonPlated,NPTH,ComponentDrill
T2C0.0670
; #@! TA.AperFunction,NonPlated,NPTH,ComponentDrill
T3C0.1181
; #@! TA.AperFunction,NonPlated,NPTH,ComponentDrill
T4C0.1350
%
G90
G05
T1
X10.1732Y-6.6654
X10.4488Y-6.6654
T2
X5.689Y-5.1969
X5.689Y-5.8661
X5.689Y-6.5354
X5.689Y-7.2047
X6.122Y-5.1969
X6.122Y-5.8661
X6.122Y-6.5354
X6.122Y-7.2047
X6.3976Y-5.1969
X6.3976Y-5.8661
X6.3976Y-6.5354
X6.3976Y-7.2047
X6.8307Y-5.1969
X6.8307Y-5.8661
X6.8307Y-6.5354
X6.8307Y-7.2047
X7.1063Y-5.0039
X7.1063Y-5.6732
X7.1063Y-6.3425
X7.1063Y-7.0118
X7.1063Y-7.6811
X7.5394Y-5.0039
X7.5394Y-5.6732
X7.5394Y-6.3425
X7.5394Y-7.0118
X7.5394Y-7.6811
X7.815Y-4.9055
X7.815Y-5.5748
X7.815Y-6.2441
X7.815Y-6.9134
X7.815Y-7.5827
X8.248Y-4.9055
X8.248Y-5.5748
X8.248Y-6.2441
X8.248Y-6.9134
X8.248Y-7.5827
X8.5236Y-5.0039
X8.5236Y-5.6732
X8.5236Y-6.3425
X8.5236Y-7.0118
X8.5236Y-7.6811
X8.9567Y-5.0039
X8.9567Y-5.6732
X8.9567Y-6.3425
X8.9567Y-7.0118
X8.9567Y-7.6811
X9.2323Y-5.1024
X9.2323Y-5.7717
X9.2323Y-6.4409
X9.2323Y-7.1102
X9.3381Y-7.8219
X9.6654Y-5.1024
X9.6654Y-5.7717
X9.6654Y-6.4409
X9.6654Y-7.1102
X9.7564Y-7.934
X10.2678Y-8.1958
X10.4843Y-7.8208
T3
X5.7087Y-5.3445
X5.7087Y-6.0138
X5.7087Y-6.6831
X5.7087Y-7.3524
X5.9055Y-5.4311
X5.9055Y-5.4311
X5.9055Y-6.1004
X5.9055Y-6.1004
X5.9055Y-6.7697
X5.9055Y-6.7697
X5.9055Y-7.439
X5.9055Y-7.439
X6.1024Y-5.3445
X6.1024Y-6.0138
X6.1024Y-6.6831
X6.1024Y-7.3524
X6.4173Y-5.3445
X6.4173Y-6.0138
X6.4173Y-6.6831
X6.4173Y-7.3524
X6.6142Y-5.4311
X6.6142Y-5.4311
X6.6142Y-6.1004
X6.6142Y-6.1004
X6.6142Y-6.7697
X6.6142Y-6.7697
X6.6142Y-7.439
X6.6142Y-7.439
X6.811Y-5.3445
X6.811Y-6.0138
X6.811Y-6.6831
X6.811Y-7.3524
X7.126Y-5.1516
X7.126Y-5.8209
X7.126Y-6.4902
X7.126Y-7.1594
X7.126Y-7.8287
X7.3228Y-5.2382
X7.3228Y-5.2382
X7.3228Y-5.9075
X7.3228Y-5.9075
X7.3228Y-6.5768
X7.3228Y-6.5768
X7.3228Y-7.2461
X7.3228Y-7.2461
X7.3228Y-7.9154
X7.3228Y-7.9154
X7.5197Y-5.1516
X7.5197Y-5.8209
X7.5197Y-6.4902
X7.5197Y-7.1594
X7.5197Y-7.8287
X7.8346Y-5.0531
X7.8346Y-5.7224
X7.8346Y-6.3917
X7.8346Y-7.061
X7.8346Y-7.7303
X8.0315Y-5.1398
X8.0315Y-5.1398
X8.0315Y-5.8091
X8.0315Y-5.8091
X8.0315Y-6.4783
X8.0315Y-6.4783
X8.0315Y-7.1476
X8.0315Y-7.1476
X8.0315Y-7.8169
X8.0315Y-7.8169
X8.2283Y-5.0531
X8.2283Y-5.7224
X8.2283Y-6.3917
X8.2283Y-7.061
X8.2283Y-7.7303
X8.5433Y-5.1516
X8.5433Y-5.8209
X8.5433Y-6.4902
X8.5433Y-7.1594
X8.5433Y-7.8287
X8.7402Y-5.2382
X8.7402Y-5.2382
X8.7402Y-5.9075
X8.7402Y-5.9075
X8.7402Y-6.5768
X8.7402Y-6.5768
X8.7402Y-7.2461
X8.7402Y-7.2461
X8.7402Y-7.9154
X8.7402Y-7.9154
X8.937Y-5.1516
X8.937Y-5.8209
X8.937Y-6.4902
X8.937Y-7.1594
X8.937Y-7.8287
X9.252Y-5.25
X9.252Y-5.9193
X9.252Y-6.5886
X9.252Y-7.2579
X9.3189Y-7.9696
X9.4488Y-5.3366
X9.4488Y-5.3366
X9.4488Y-6.0059
X9.4488Y-6.0059
X9.4488Y-6.6752
X9.4488Y-6.6752
X9.4488Y-7.3445
X9.4488Y-7.3445
X9.4866Y-8.1042
X9.4866Y-8.1042
X9.6457Y-5.25
X9.6457Y-5.9193
X9.6457Y-6.5886
X9.6457Y-7.2579
X9.6992Y-8.0715
X10.1498Y-8.105
X10.1732Y-7.8912
X10.1732Y-7.8912
X10.3466Y-7.764
T4
X5.9055Y-5.1969
X5.9055Y-5.8661
X5.9055Y-6.5354
X5.9055Y-7.2047
X6.6142Y-5.1969
X6.6142Y-5.8661
X6.6142Y-6.5354
X6.6142Y-7.2047
X7.3228Y-5.0039
X7.3228Y-5.6732
X7.3228Y-6.3425
X7.3228Y-7.0118
X7.3228Y-7.6811
X8.0315Y-4.9055
X8.0315Y-5.5748
X8.0315Y-6.2441
X8.0315Y-6.9134
X8.0315Y-7.5827
X8.7402Y-5.0039
X8.7402Y-5.6732
X8.7402Y-6.3425
X8.7402Y-7.0118
X8.7402Y-7.6811
X9.4488Y-5.1024
X9.4488Y-5.7717
X9.4488Y-6.4409
X9.4488Y-7.1102
X9.5472Y-7.878
X10.3761Y-8.0083
T0
M30
